<?xml version="1.0" standalone="no"?>
<!DOCTYPE svg PUBLIC "-//W3C//DTD SVG 1.1//EN" "http://www.w3.org/Graphics/SVG/1.1/DTD/svg11.dtd" >
<svg xmlns="http://www.w3.org/2000/svg">
<metadata>
Created by FontPrep 20130207 at Sun Aug 10 17:24:19 2014
 By Chris Howell
Copyright (c) 2004 Linotype Library GmbH, www.linotype.com. All rights reserved. This software may not be reproduced, used, displayed, modified, disclosed or transferred without the express written approval of Linotype Library GmbH. Avenir is a trademark of Heidelberger Druckmaschinen AG, exclusively licensed through Linotype Library GmbH, and may be registered in certain jurisdictions. This typeface is original artwork of Adrian Frutiger and Akira Kobayashi. The design may be protected in certain jurisdictions.
</metadata>
<defs>
<font id="bca38cd97b16c9a0a447297f3709bcd3" horiz-adv-x='1024' >
  <font-face 
    font-family="AvenirNextLTPro-Medium"
    font-weight="500"
    font-stretch="normal"
    units-per-em="2048"
    panose-1="2 11 6 4 2 2 2 2 2 4"
    ascent="1548"
    descent="-500"
    x-height="971"
    cap-height="1450"
    bbox="-430 -512 2078 1948"
    underline-thickness="102"
    underline-position="-102"
    unicode-range="U+000D-FB02"
  />
<missing-glyph horiz-adv-x="1048" 
d="M1049 1470v-1470h-1049v1470h1049zM946 102v1264h-844v-1264h844zM524 1145q-145 0 -168 -195l-102 17q14 141 88 211t186 70t185 -74q72 -74 71 -195q0 -70 -26 -123t-103 -122q-76 -68 -88 -108t-12 -147h-94l-4 35q1 115 29 169t92 118q63 59 82 94q20 35 20 93
t-46 107q-46 50 -110 50zM455 240v137h114v-137h-114z" />
    <glyph glyph-name="IJ" unicode="IJ" horiz-adv-x="1552" 
d="M1186 453v997h203v-1006q-1 -138 -39 -230t-82 -140t-118 -79q-75 -32 -173 -32q-163 0 -269 84t-139 223l189 54q16 -80 72 -130t137 -51q219 0 219 310zM379 1450v-1450h-203v1450h203z" />
    <glyph glyph-name="ij" unicode="ij" horiz-adv-x="1054" 
d="M788 1446q54 0 92 -36t38 -88t-38 -88t-92 -36t-91 36q-38 36 -38 87t38 88t91 37zM692 971h193v-1096q0 -367 -316 -367q-49 1 -110 13l20 164q41 -10 78 -11q80 0 108 54t27 153v1090zM393 1322q0 -52 -38 -88t-91 -36t-90 36t-37 87t37 88t90 37t91 -36t38 -88z
M360 971v-971h-192v971h192z" />
    <glyph glyph-name="napostrophe" unicode="&#x22;n" horiz-adv-x="1232" 
d="M297 1450l-160 -389h-162l131 389h191zM389 811h6q37 80 125 133t191 53q178 -1 270 -111t92 -284v-602h-192v539q0 297 -222 297q-115 0 -187 -88t-73 -232v-516h-192v762q0 125 -8 209h182q8 -98 8 -160z" />
    <glyph glyph-name="fi" unicode="fi" horiz-adv-x="1175" 
d="M1038 1322q0 -52 -38 -88t-91 -36t-90 36t-37 87t37 88t90 37t91 -36t38 -88zM1006 971v-971h-193v971h193zM623 971v-158h-226v-813h-192v813h-193v158h193v203q0 182 88 290t274 109q70 0 121 -14l-22 -166q-49 14 -97 14q-172 0 -172 -233v-203h226z" />
    <glyph glyph-name="fl" unicode="fl" horiz-adv-x="1175" 
d="M623 971v-158h-226v-813h-192v813h-193v158h193v203q0 182 88 290t274 109q70 0 121 -14l-22 -166q-49 14 -97 14q-172 0 -172 -233v-203h226zM1006 1548v-1548h-193v1548h193z" />
    <glyph glyph-name=".notdef" horiz-adv-x="1048" 
d="M1049 1470v-1470h-1049v1470h1049zM946 102v1264h-844v-1264h844zM524 1145q-145 0 -168 -195l-102 17q14 141 88 211t186 70t185 -74q72 -74 71 -195q0 -70 -26 -123t-103 -122q-76 -68 -88 -108t-12 -147h-94l-4 35q1 115 29 169t92 118q63 59 82 94q20 35 20 93
t-46 107q-46 50 -110 50zM455 240v137h114v-137h-114z" />
    <glyph glyph-name=".null" horiz-adv-x="1024" 
 />
    <glyph glyph-name=".null" horiz-adv-x="1024" 
 />
    <glyph glyph-name="nonmarkingreturn" horiz-adv-x="681" 
 />
    <glyph glyph-name="CR" unicode="&#xd;" horiz-adv-x="0" 
 />
    <glyph glyph-name="space" unicode=" " 
 />
    <glyph glyph-name="exclam" unicode="!" horiz-adv-x="684" 
d="M479 123q0 -55 -40 -95t-97 -40t-97 40t-40 94t40 94t97 40t97 -39t40 -94zM442 1450v-1026h-202v1026h202z" />
    <glyph glyph-name="quotedbl" unicode="&#x22;" horiz-adv-x="866" 
d="M514 938v512h168v-512h-168zM184 938v512h168v-512h-168z" />
    <glyph glyph-name="numbersign" unicode="#" horiz-adv-x="1175" 
d="M494 870l-41 -288h241l39 288h-239zM84 432v150h217l39 288h-201v150h223l60 430h153l-61 -430h242l59 430h154l-62 -430h185v-150h-205l-41 -288h190v-150h-209l-61 -432h-154l62 432h-242l-61 -432h-152l62 432h-197z" />
    <glyph glyph-name="dollar" unicode="$" horiz-adv-x="1218" 
d="M324 1087q0 -168 217 -231v457q-93 -7 -155 -67t-62 -159zM645 633v-492q96 3 163 67t66 179q0 170 -229 246zM541 1616h104v-141q111 -2 221 -42t183 -114l-140 -129q-94 119 -264 123v-488q172 -57 289 -141q137 -99 137 -290t-123 -302t-303 -115v-147h-104v147
q-281 6 -457 203l149 127q53 -74 141 -119t167 -47v521q-180 54 -284 133q-128 97 -128 275q0 177 120 285t292 118v143z" />
    <glyph glyph-name="percent" unicode="%" horiz-adv-x="1781" 
d="M1405 1448l-887 -1514l-139 68l889 1514zM639 1112q0 80 -56 136q-57 56 -137 56t-136 -56t-56 -136t56 -136t136 -56t137 56q56 56 56 136zM84 1112q0 150 105 256t257 106t257 -106t105 -256t-104 -256q-106 -106 -258 -106t-257 106t-105 256zM1528 338q0 80 -56 136
t-137 56q-80 0 -136 -56t-56 -136t56 -136t136 -56q81 0 137 56t56 136zM973 338q0 150 105 256t257 106t257 -106q106 -106 106 -256t-106 -256t-257 -106q-152 0 -257 106t-105 256z" />
    <glyph glyph-name="ampersand" unicode="&#x26;" horiz-adv-x="1480" 
d="M573 137q185 0 308 182l-344 361q-233 -98 -234 -291q0 -111 81 -181t189 -71zM834 1143q0 78 -52 131t-136 53q-83 0 -138 -53t-55 -139q0 -125 143 -252q238 104 238 260zM569 -27q-199 0 -335 110t-136 302q0 270 326 420q-166 174 -166 336t113 254t273 92t268 -90
t108 -250q0 -236 -311 -383l288 -297l183 307h225l-279 -432l332 -342h-268l-180 190q-172 -217 -441 -217z" />
    <glyph glyph-name="quotesingle" unicode="'" horiz-adv-x="536" 
d="M184 938v512h168v-512h-168z" />
    <glyph glyph-name="parenleft" unicode="(" horiz-adv-x="645" 
d="M244 590q0 -219 70 -434t194 -387l-139 -91q-139 186 -219 424t-80 488t80 488t219 423l139 -90q-124 -172 -194 -387t-70 -434z" />
    <glyph glyph-name="parenright" unicode=")" horiz-adv-x="645" 
d="M401 590q0 219 -70 434q-71 215 -194 387l139 90q140 -186 220 -424q164 -484 0 -975q-80 -238 -220 -424l-139 91q123 172 194 387q70 215 70 434z" />
    <glyph glyph-name="asterisk" unicode="*" horiz-adv-x="929" 
d="M373 1450h164v-264l260 84l55 -156l-260 -84l166 -223l-131 -98l-172 231l-172 -231l-131 98l165 223l-260 84l56 156l260 -84v264z" />
    <glyph glyph-name="plus" unicode="+" horiz-adv-x="1363" 
d="M766 1159v-454h455v-168h-455v-455h-168v455h-455v168h455v454h168z" />
    <glyph glyph-name="comma" unicode="," horiz-adv-x="532" 
d="M403 240l-170 -512h-163l141 512h192z" />
    <glyph glyph-name="hyphen" unicode="-" horiz-adv-x="655" 
d="M565 582v-164h-475v164h475z" />
    <glyph glyph-name="period" unicode="." horiz-adv-x="532" 
d="M403 123q1 -55 -39 -95t-98 -40t-97 40q-40 40 -40 94t40 94t97 40t97 -39t40 -94z" />
    <glyph glyph-name="slash" unicode="/" horiz-adv-x="778" 
d="M770 1466l-629 -1534l-145 50l629 1538z" />
    <glyph glyph-name="zero" unicode="0" horiz-adv-x="1218" 
d="M609 1321q-85 0 -145 -57q-60 -58 -90 -152q-55 -173 -56 -384t56 -390q30 -94 90 -150t145 -57q225 0 279 396q13 95 13 197t-13 198q-33 245 -133 342q-61 57 -146 57zM610 1487q166 -1 280 -105q214 -196 214 -657q0 -338 -124 -550t-371 -212t-371 212t-123 550
q0 463 215 657q114 105 280 105z" />
    <glyph glyph-name="one" unicode="1" horiz-adv-x="1218" 
d="M776 1450v-1450h-198v1208l-275 -229l-117 137l412 334h178z" />
    <glyph glyph-name="two" unicode="2" horiz-adv-x="1218" 
d="M1069 178v-178h-946v190l577 574q160 164 160 307q0 111 -74 181t-184 69q-110 0 -182 -70t-90 -182l-195 33q27 168 156 276t317 109q188 0 322 -109q133 -109 133 -303q0 -127 -59 -226t-175 -212l-471 -459h711z" />
    <glyph glyph-name="three" unicode="3" horiz-adv-x="1218" 
d="M436 676v164h64q141 0 232 56t91 174t-74 184q-75 67 -182 67q-184 0 -254 -178l-180 63q53 131 171 206t290 75q172 -1 300 -105t128 -288q0 -121 -72 -211t-184 -119v-4q131 -27 213 -122t82 -232q0 -207 -143 -325t-331 -118q-387 0 -505 320l184 61q33 -96 114 -154
q82 -58 196 -59q114 0 200 73t86 208q0 136 -108 200t-256 64h-62z" />
    <glyph glyph-name="four" unicode="4" horiz-adv-x="1218" 
d="M731 496v727h-4l-459 -727h463zM924 1450v-954h209v-170h-209v-326h-193v326h-668v180l617 944h244z" />
    <glyph glyph-name="five" unicode="5" horiz-adv-x="1218" 
d="M1004 1450v-176h-598l-13 -381q78 27 187 27q213 0 349 -125t136 -340t-143 -353t-363 -139q-166 0 -285 78t-178 213l180 72q35 -88 111 -142q77 -54 189 -53q112 0 199 87q87 88 87 234t-97 227t-254 81t-310 -80l20 770h783z" />
    <glyph glyph-name="six" unicode="6" horiz-adv-x="1218" 
d="M307 441q0 -132 84 -221t217 -89t216 87t83 221t-82 219t-216 85t-218 -85t-84 -217zM655 901q193 0 323 -129t130 -335t-142 -340t-358 -134t-359 135q-143 134 -143 332t142 422l379 598h235l-389 -584l2 -4q66 39 180 39z" />
    <glyph glyph-name="seven" unicode="7" horiz-adv-x="1218" 
d="M1055 1450v-180l-582 -1270h-227l604 1274h-719v176h924z" />
    <glyph glyph-name="eight" unicode="8" horiz-adv-x="1218" 
d="M893 404q0 120 -80 198t-204 78q-123 0 -203 -76t-80 -199q0 -122 78 -199t204 -77q125 0 205 77t80 198zM608 1323q-100 0 -168 -67t-67 -169q-1 -101 67 -169t168 -68t170 69t70 169t-70 167q-70 68 -170 68zM1096 395q0 -197 -140 -315t-347 -117q-206 0 -346 117
t-140 315q0 139 78 237t196 132v4q-100 35 -161 121t-62 203q0 176 126 286t310 109q184 0 310 -108t124 -283q0 -117 -61 -206t-162 -122v-4q119 -31 197 -131t78 -238z" />
    <glyph glyph-name="nine" unicode="9" horiz-adv-x="1218" 
d="M913 1010q0 133 -84 222t-217 89t-217 -88t-84 -222t83 -219t217 -85t218 85t84 218zM563 549q-193 0 -323 129t-129 335q0 206 142 340t358 134q217 0 359 -136q142 -135 142 -331t-139 -422l-379 -598h-236l390 586l-3 2q-67 -39 -182 -39z" />
    <glyph glyph-name="colon" unicode=":" horiz-adv-x="614" 
d="M444 123q0 -55 -40 -95t-97 -40t-97 40t-40 94t40 94t97 40t97 -39t40 -94zM444 850q0 -55 -40 -95t-97 -40t-97 39t-40 94t40 95t97 40t97 -39t40 -94z" />
    <glyph glyph-name="semicolon" unicode=";" horiz-adv-x="614" 
d="M422 240l-170 -512h-164l141 512h193zM444 850q0 -55 -40 -95t-97 -40t-97 39t-40 94t40 95t97 40t97 -39t40 -94z" />
    <glyph glyph-name="less" unicode="&#x3c;" horiz-adv-x="1363" 
d="M1206 1155v-174l-788 -360l784 -361v-174l-1040 473v123z" />
    <glyph glyph-name="equal" unicode="=" horiz-adv-x="1363" 
d="M143 535h1078v-166h-1078v166zM143 872h1078v-165h-1078v165z" />
    <glyph glyph-name="greater" unicode="&#x3e;" horiz-adv-x="1363" 
d="M162 981v174l1040 -473v-123l-1040 -473v174l784 361z" />
    <glyph glyph-name="question" unicode="?" horiz-adv-x="1024" 
d="M668 123q0 -55 -40 -95t-98 -40t-97 40q-40 40 -40 94t40 94t97 40q58 0 98 -39t40 -94zM616 483v-71h-192v98q0 100 36 167t113 138l76 72q105 89 105 195t-62 164t-162 58q-98 0 -161 -64q-63 -65 -74 -161l-197 23q27 174 148 276t298 102t296 -100t118 -278
q0 -119 -46 -191q-46 -71 -142 -153t-125 -130t-29 -145z" />
    <glyph glyph-name="at" unicode="@" horiz-adv-x="1638" 
d="M850 -37q-350 0 -566 212t-216 543t228 550t554 219q289 0 502 -163q102 -79 162 -207t61 -288q0 -237 -117 -369t-284 -132q-82 0 -131 41q-48 41 -48 102h-10q-29 -55 -97 -99t-155 -44q-137 0 -216 92t-79 258t115 306t291 140q76 0 132 -32t75 -84h4l18 86h156
l-80 -385q-20 -92 -21 -146q0 -92 82 -92q90 0 148 96q57 96 57 246q0 250 -157 388q-156 138 -416 138t-428 -176t-168 -448q0 -273 172 -439t448 -165q312 -1 531 206l94 -108q-233 -246 -641 -246zM844 979q-102 0 -164 -101t-62 -223q0 -70 34 -126t113 -56t134 54
q96 94 96 255q1 197 -151 197z" />
    <glyph glyph-name="A" unicode="A" horiz-adv-x="1456" 
d="M725 1214l-272 -679h542zM381 356l-145 -356h-226l629 1450h184l623 -1450h-229l-148 356h-688z" />
    <glyph glyph-name="B" unicode="B" horiz-adv-x="1314" 
d="M379 666v-494h254q96 0 172 20t132 79q56 58 56 151q0 244 -342 244h-272zM379 1280v-442h264q125 0 205 56t80 169q0 217 -318 217h-231zM176 0v1450h500q188 0 321 -88t133 -279q0 -117 -68 -201t-185 -114v-4q143 -16 232 -110t89 -242q0 -201 -152 -307
q-153 -105 -393 -105h-477z" />
    <glyph glyph-name="C" unicode="C" horiz-adv-x="1449" 
d="M879 -37q-347 0 -562 215t-215 550t220 547t552 212q156 1 300 -59t221 -166l-160 -123q-53 76 -151 123t-210 47q-246 0 -398 -168t-152 -416t150 -415t400 -167t383 193l162 -111q-193 -262 -540 -262z" />
    <glyph glyph-name="D" unicode="D" horiz-adv-x="1558" 
d="M379 1274v-1096h254q268 0 437 146t169 405q0 258 -168 401t-438 144h-254zM176 0v1450h498q298 0 528 -168q114 -84 184 -228t70 -326t-70 -324q-70 -144 -184 -229q-234 -175 -528 -175h-498z" />
    <glyph glyph-name="E" unicode="E" horiz-adv-x="1230" 
d="M379 664v-484h758v-180h-961v1450h930v-178h-727v-434h684v-174h-684z" />
    <glyph glyph-name="F" unicode="F" horiz-adv-x="1163" 
d="M379 647v-647h-203v1450h905v-178h-702v-451h657v-174h-657z" />
    <glyph glyph-name="G" unicode="G" horiz-adv-x="1593" 
d="M878 1309q-249 0 -402 -168q-152 -168 -152 -416t152 -414t407 -166q205 0 338 72v404h-322v172h522v-703q-236 -127 -560 -127t-542 214q-217 214 -217 550t220 548q220 211 556 211q338 0 533 -188l-141 -147q-143 158 -392 158z" />
    <glyph glyph-name="H" unicode="H" horiz-adv-x="1492" 
d="M176 0v1450h203v-606h733v606h205v-1450h-205v664h-733v-664h-203z" />
    <glyph glyph-name="I" unicode="I" horiz-adv-x="555" 
d="M379 1450v-1450h-203v1450h203z" />
    <glyph glyph-name="J" unicode="J" horiz-adv-x="1013" 
d="M647 453v997h203v-1006q0 -140 -38 -231t-82 -139t-119 -79q-75 -32 -173 -32q-162 0 -268 84t-139 223l188 54q17 -80 73 -130t136 -51q219 0 219 310z" />
    <glyph glyph-name="K" unicode="K" horiz-adv-x="1349" 
d="M379 1450v-639h4l647 639h281l-705 -664l748 -786h-291l-680 750h-4v-750h-203v1450h203z" />
    <glyph glyph-name="L" unicode="L" horiz-adv-x="1046" 
d="M379 1450v-1270h647v-180h-850v1450h203z" />
    <glyph glyph-name="M" unicode="M" horiz-adv-x="1849" 
d="M1673 1450v-1450h-203v1212h-4l-481 -1212h-129l-479 1212h-4v-1212h-197v1450h316l434 -1114h4l428 1114h315z" />
    <glyph glyph-name="N" unicode="N" horiz-adv-x="1581" 
d="M1202 291v1159h203v-1450h-256l-766 1184h-4v-1184h-203v1450h264l758 -1159h4z" />
    <glyph glyph-name="O" unicode="O" horiz-adv-x="1738" 
d="M1419 726q0 247 -151 415q-152 168 -398 168t-398 -168t-150 -415q0 -247 152 -414t396 -167q246 0 398 167q151 167 151 414zM1638 728q0 -335 -218 -550t-551 -215t-550 215t-217 550t216 547t550 212t552 -212t218 -547z" />
    <glyph glyph-name="P" unicode="P" horiz-adv-x="1218" 
d="M379 1278v-469h215q338 0 338 238q0 231 -334 231h-219zM176 0v1450h442q244 0 381 -99t137 -306t-144 -307t-384 -101h-229v-637h-203z" />
    <glyph glyph-name="Q" unicode="Q" horiz-adv-x="1732" 
d="M322 740q0 -242 147 -402t385 -160t388 162t149 402t-147 404q-146 163 -386 163t-388 -164t-148 -405zM1708 170v-170h-852q-334 0 -544 204t-210 534t214 540q214 209 540 209t539 -209t213 -535q0 -188 -81 -335t-218 -234v-4h399z" />
    <glyph glyph-name="R" unicode="R" horiz-adv-x="1257" 
d="M379 1278v-463h233q340 0 340 234q0 229 -325 229h-248zM379 645v-645h-203v1450h465q229 0 373 -96t143 -305q0 -156 -96 -256t-256 -127l405 -666h-245l-369 645h-217z" />
    <glyph glyph-name="S" unicode="S" horiz-adv-x="1165" 
d="M602 1317q-100 -1 -184 -61q-86 -60 -86 -174t90 -168q49 -30 88 -45t119 -41t122 -41q41 -15 109 -52t104 -77q91 -101 91 -255q-1 -213 -147 -327t-355 -113q-141 0 -269 54t-208 157l157 133q51 -76 139 -123t194 -47t194 65t88 170t-60 165t-284 129q-82 26 -138 52
q-157 71 -208 189q-31 72 -31 166q0 137 76 235q140 180 422 179q125 0 236 -45t179 -121l-143 -139q-100 135 -295 135z" />
    <glyph glyph-name="T" unicode="T" horiz-adv-x="1165" 
d="M684 1272v-1272h-203v1272h-465v178h1133v-178h-465z" />
    <glyph glyph-name="U" unicode="U" horiz-adv-x="1458" 
d="M729 -37q-272 0 -418 167q-145 167 -145 407v913h203v-901q0 -170 87 -287t273 -117t273 117t88 287v901h202v-913q0 -240 -146 -407t-417 -167z" />
    <glyph glyph-name="V" unicode="V" horiz-adv-x="1314" 
d="M221 1450l436 -1188h7l436 1188h219l-569 -1450h-189l-565 1450h225z" />
    <glyph glyph-name="W" unicode="W" horiz-adv-x="2023" 
d="M240 1450l319 -1155h4l340 1155h223l338 -1155h4l320 1155h215l-426 -1450h-211l-352 1165h-4l-353 -1165h-211l-426 1450h220z" />
    <glyph glyph-name="X" unicode="X" horiz-adv-x="1368" 
d="M336 1450l348 -541l344 541h238l-463 -686l526 -764h-256l-397 610l-389 -610h-250l518 768l-467 682h248z" />
    <glyph glyph-name="Y" unicode="Y" horiz-adv-x="1277" 
d="M741 0h-204v627l-543 823h250l401 -655l404 655h235l-543 -823v-627z" />
    <glyph glyph-name="Z" unicode="Z" horiz-adv-x="1212" 
d="M1133 1450v-178l-820 -1092h832v-180h-1077v178l817 1094h-801v178h1049z" />
    <glyph glyph-name="bracketleft" unicode="[" horiz-adv-x="645" 
d="M483 1499v-135h-190v-1548h190v-135h-362v1818h362z" />
    <glyph glyph-name="backslash" unicode="\" horiz-adv-x="778" 
d="M637 -68l-629 1534l144 54l630 -1538z" />
    <glyph glyph-name="bracketright" unicode="]" horiz-adv-x="645" 
d="M162 -319v135h190v1548h-190v135h362v-1818h-362z" />
    <glyph glyph-name="asciicircum" unicode="^" horiz-adv-x="1363" 
d="M152 633l462 817h136l462 -817h-186l-346 614l-342 -614h-186z" />
    <glyph glyph-name="underscore" unicode="_" horiz-adv-x="1024" 
d="M0 -283v129h1024v-129h-1024z" />
    <glyph glyph-name="grave" unicode="`" 
d="M209 1155l-279 295h232l205 -295h-158z" />
    <glyph glyph-name="a" unicode="a" horiz-adv-x="1110" 
d="M770 463h-47q-432 0 -432 -184q0 -80 57 -116t141 -36q131 0 206 79t75 206v51zM770 602v27q0 104 -64 158q-65 54 -176 55q-164 0 -276 -113l-102 123q152 145 397 145q201 0 303 -105t102 -276v-423q0 -127 15 -193h-174q-16 70 -17 139h-6q-109 -164 -326 -164
q-125 0 -233 66q-53 33 -86 93t-33 142t40 144t102 97q154 85 534 85z" />
    <glyph glyph-name="b" unicode="b" horiz-adv-x="1302" 
d="M1001 487q0 145 -86 247t-233 104q-148 0 -240 -104t-92 -248t92 -247t240 -103t234 102q86 104 85 249zM356 154v-154h-186v1548h192v-723h7q53 76 143 124t203 48q213 0 349 -146q136 -147 136 -365t-135 -365t-354 -148q-104 -1 -200 47t-151 134h-4z" />
    <glyph glyph-name="c" unicode="c" horiz-adv-x="1011" 
d="M623 836q-145 0 -231 -102t-87 -248q0 -146 87 -248t235 -102t231 106l129 -117q-131 -152 -360 -152q-229 -1 -377 141t-148 370t146 370t373 143q107 1 207 -41t157 -118l-139 -113q-31 49 -93 80t-130 31z" />
    <glyph glyph-name="d" unicode="d" horiz-adv-x="1300" 
d="M301 487q0 -145 85 -248q84 -103 232 -103t240 102q92 104 92 247t-92 247t-240 106q-148 0 -232 -103q-85 -103 -85 -248zM590 -27q-219 -1 -354 147t-136 367q0 219 136 365t352 145q113 0 202 -48t144 -124h4v723h192v-1548h-186v154h-4q-53 -86 -148 -134t-202 -47z
" />
    <glyph glyph-name="e" unicode="e" horiz-adv-x="1173" 
d="M1071 494q0 -43 -2 -66h-770q4 -125 96 -210t219 -85q182 0 283 148l135 -109q-154 -199 -418 -199q-223 -1 -367 141q-145 142 -145 368t144 370t358 145q215 0 341 -136t126 -367zM607 846q-126 0 -212 -80t-96 -195h578q-4 121 -74 198t-196 77z" />
    <glyph glyph-name="f" unicode="f" horiz-adv-x="634" 
d="M623 971v-158h-226v-813h-192v813h-193v158h193v203q0 182 88 290t274 109q70 0 121 -14l-22 -166q-49 14 -97 14q-172 0 -172 -233v-203h226z" />
    <glyph glyph-name="g" unicode="g" horiz-adv-x="1294" 
d="M301 498q0 -144 88 -244q89 -100 235 -100t237 97t91 241t-93 245t-238 101t-233 -98t-87 -242zM596 -324q342 0 342 359v125h-4q-54 -80 -146 -124t-196 -44q-219 0 -354 143q-136 143 -136 357t136 360q136 145 352 145q109 0 203 -47t147 -135h4v156h186v-922
q0 -226 -121 -382q-121 -157 -415 -159q-127 0 -256 48t-219 129l123 149q63 -72 159 -115t195 -43z" />
    <glyph glyph-name="h" unicode="h" horiz-adv-x="1196" 
d="M362 823h5q35 74 119 124q85 50 188 50q178 -1 270 -111t92 -284v-602h-192v537q0 297 -219 297q-115 0 -189 -88t-74 -232v-514h-192v1548h192v-725z" />
    <glyph glyph-name="i" unicode="i" horiz-adv-x="530" 
d="M393 1322q0 -52 -38 -88t-91 -36t-90 36t-37 87t37 88t90 37t91 -36t38 -88zM360 971v-971h-192v971h192z" />
    <glyph glyph-name="j" unicode="j" horiz-adv-x="532" 
d="M395 1322q0 -52 -38 -88t-91 -36t-91 36t-38 87t38 88t91 37t91 -36t38 -88zM170 -119v1090h192v-1096q0 -367 -315 -367q-49 1 -110 13l20 164q41 -10 78 -11q79 0 107 54t28 153z" />
    <glyph glyph-name="k" unicode="k" horiz-adv-x="1079" 
d="M362 1548v-999h7l407 422h258l-454 -441l493 -530h-266l-438 504h-7v-504h-192v1548h192z" />
    <glyph glyph-name="l" unicode="l" horiz-adv-x="532" 
d="M362 1548v-1548h-192v1548h192z" />
    <glyph glyph-name="m" unicode="m" horiz-adv-x="1816" 
d="M664 997q217 0 301 -194q49 92 137 143t192 51q178 0 271 -110q92 -111 92 -285v-602h-193v539q0 297 -215 297q-123 0 -184 -92t-61 -220v-524h-193v578q0 258 -205 258q-106 0 -177 -88t-71 -232v-516h-192v762q0 125 -8 209h182q8 -98 8 -160h6q39 82 121 134t189 52z
" />
    <glyph glyph-name="n" unicode="n" horiz-adv-x="1191" 
d="M348 811h6q37 80 125 133t191 53q178 -1 270 -111t92 -284v-602h-192v539q0 297 -222 297q-116 0 -188 -88t-72 -232v-516h-192v762q0 125 -8 209h182q8 -98 8 -160z" />
    <glyph glyph-name="o" unicode="o" horiz-adv-x="1249" 
d="M948 487q0 145 -87 247t-237 104q-150 0 -236 -102q-87 -102 -87 -248t87 -249t237 -103q151 0 237 102q86 104 86 249zM1149 487q0 -223 -151 -368q-152 -145 -374 -145t-372 144q-150 146 -150 369t148 367t374 143q226 1 376 -143t149 -367z" />
    <glyph glyph-name="p" unicode="p" horiz-adv-x="1298" 
d="M997 487q0 145 -86 247t-233 104q-148 0 -240 -104t-92 -248t92 -247t240 -103t234 102q86 104 85 249zM358 145v-637h-192v1463h188v-152h6q50 80 142 129t209 49q213 0 349 -146q136 -147 136 -365t-135 -365t-354 -148q-105 0 -197 46t-145 126h-7z" />
    <glyph glyph-name="q" unicode="q" horiz-adv-x="1296" 
d="M301 487q0 -145 85 -248q84 -103 232 -103t240 102q92 104 92 247t-92 247t-240 106q-148 0 -232 -103q-85 -103 -85 -248zM938 145h-4q-52 -80 -146 -126t-198 -46q-219 -1 -354 147t-136 367q0 219 136 365t352 145q115 0 207 -49t143 -129h6v152h186v-1463h-192v637z
" />
    <glyph glyph-name="r" unicode="r" horiz-adv-x="741" 
d="M166 762q0 125 -8 209h182q8 -98 8 -164h6q41 86 121 138t176 52q45 0 76 -8l-8 -178q-41 10 -88 10q-131 0 -202 -90t-71 -221v-510h-192v762z" />
    <glyph glyph-name="s" unicode="s" horiz-adv-x="909" 
d="M464 846q-73 0 -126 -32t-53 -92t51 -91t170 -58q326 -72 325 -286q1 -160 -111 -237t-252 -77q-275 0 -415 174l137 117q39 -59 110 -97t151 -38t135 34t55 102q0 67 -58 101q-57 34 -155 57t-141 39t-88 47q-95 63 -95 201q0 136 108 212t259 75q105 1 203 -41
t149 -118l-133 -113q-33 53 -93 87t-133 34z" />
    <glyph glyph-name="t" unicode="t" horiz-adv-x="673" 
d="M641 971v-158h-258v-506q0 -88 33 -126t100 -38t117 25l6 -158q-74 -27 -164 -26q-137 0 -210 76t-72 227v526h-187v158h187v278h190v-278h258z" />
    <glyph glyph-name="u" unicode="u" horiz-adv-x="1191" 
d="M842 160h-4q-39 -80 -127 -133t-191 -54q-178 0 -270 111t-92 285v602h192v-537q0 -299 221 -299q117 0 189 88t71 232v516h193v-762q0 -125 8 -209h-182q-8 98 -8 160z" />
    <glyph glyph-name="v" unicode="v" horiz-adv-x="1032" 
d="M1012 971l-389 -971h-209l-396 971h213l285 -764h4l287 764h205z" />
    <glyph glyph-name="w" unicode="w" horiz-adv-x="1583" 
d="M29 971h209l219 -742h4l231 742h203l235 -742h5l219 742h202l-321 -971h-201l-239 729h-4l-238 -729h-201z" />
    <glyph glyph-name="x" unicode="x" horiz-adv-x="1046" 
d="M14 0l389 510l-354 461h238l237 -334l240 334h225l-350 -459l391 -512h-239l-271 379l-274 -379h-232z" />
    <glyph glyph-name="y" unicode="y" horiz-adv-x="1032" 
d="M205 -492q-68 0 -127 15l18 170q49 -17 108 -17q60 0 98 38t71 124l61 162l-416 971h215l302 -762h4l268 762h205l-471 -1200q-51 -133 -126 -198t-210 -65z" />
    <glyph glyph-name="z" unicode="z" horiz-adv-x="946" 
d="M858 971v-158l-553 -651h576v-162h-813v158l548 655h-522v158h764z" />
    <glyph glyph-name="braceleft" unicode="{" horiz-adv-x="645" 
d="M10 514v152q66 0 109 46t43 138v385q0 133 68 199q69 66 173 65h140v-141h-105q-104 0 -104 -148v-374q0 -118 -64 -176t-127 -68v-4q55 -4 101 -42q90 -73 90 -208v-369q0 -147 104 -147h105v-141h-140q-104 -1 -173 65t-68 199v377q0 96 -43 144t-109 48z" />
    <glyph glyph-name="bar" unicode="|" horiz-adv-x="454" 
d="M143 1536h168v-2048h-168v2048z" />
    <glyph glyph-name="braceright" unicode="}" horiz-adv-x="645" 
d="M635 514q-66 0 -109 -48t-43 -144v-377q-1 -133 -69 -199t-172 -65h-140v141h107q102 0 102 147v369q-1 127 63 185t130 65v4q-66 10 -129 68t-64 176v374q0 147 -102 148h-107v141h140q104 1 173 -65t68 -199v-385q0 -92 43 -138t109 -46v-152z" />
    <glyph glyph-name="asciitilde" unicode="~" horiz-adv-x="1363" 
d="M899 629q102 0 178 139l121 -113q-119 -199 -295 -198q-111 0 -237 78q-76 47 -116 62t-85 15q-102 0 -178 -139l-121 113q121 201 295 200q114 1 235 -77q78 -49 118 -65t85 -15z" />
    <glyph glyph-name="uni00A0" unicode="&#xa0;" 
 />
    <glyph glyph-name="exclamdown" unicode="&#xa1;" horiz-adv-x="684" 
d="M479 874q0 -55 -40 -94t-97 -39t-97 40q-40 41 -40 95t40 94t97 40t97 -40t40 -96zM442 -453h-202v1026h202v-1026z" />
    <glyph glyph-name="cent" unicode="&#xa2;" horiz-adv-x="1218" 
d="M717 -160h-105v137q-202 19 -322 161t-120 349t119 344t323 162v133h105v-131q219 -10 340 -153l-135 -123q-82 102 -205 108v-684q129 2 209 109l131 -123q-125 -143 -340 -154v-135zM360 486q0 -130 68 -223t184 -118v680q-120 -23 -186 -115q-66 -94 -66 -224z" />
    <glyph glyph-name="sterling" unicode="&#xa3;" horiz-adv-x="1218" 
d="M889 813v-147h-340v-494h538v-172h-944v172h205v494h-198v147h198v180q0 152 64 269q73 138 221 194q82 31 184 31q209 0 338 -123l-121 -137q-84 94 -221 94q-78 0 -133 -33t-82 -88q-49 -100 -49 -219v-168h340z" />
    <glyph glyph-name="currency" unicode="&#xa4;" horiz-adv-x="1822" 
d="M1249 632q0 146 -93 246q-94 100 -242 101q-148 0 -241 -100q-93 -101 -93 -247t92 -248t242 -101q150 0 242 101q93 102 93 248zM377 626q0 184 94 322l-188 189q20 18 59 57l57 57q63 -61 191 -188q137 102 323 102t322 -100q27 29 59 59t69 69l58 58q39 -37 117 -114
l-184 -185q98 -130 98 -322t-104 -327l190 -190q-55 -59 -115 -115q-66 61 -196 192q-131 -96 -311 -96t-318 101q-70 -70 -201 -197l-114 115l194 196q-100 133 -100 317z" />
    <glyph glyph-name="yen" unicode="&#xa5;" horiz-adv-x="1218" 
d="M164 467h348v186h-348v135h297l-434 662h235l356 -602l349 602h225l-426 -662h289v-135h-348v-186h348v-135h-348v-332h-195v332h-348v135z" />
    <glyph glyph-name="brokenbar" unicode="&#xa6;" horiz-adv-x="454" 
d="M143 358h168v-716h-168v716zM143 1382h168v-716h-168v716z" />
    <glyph glyph-name="section" unicode="&#xa7;" horiz-adv-x="1218" 
d="M866 545q0 91 -51 132q-51 42 -131 79l-154 67q-152 -41 -151 -164q0 -76 61 -118q35 -25 57 -36l76 -38l172 -74q49 15 85 59t36 93zM652 1327q-80 0 -140 -42q-59 -42 -59 -119t60 -126q60 -48 215 -112t241 -142t86 -206q0 -88 -49 -161t-125 -106q125 -83 125 -249
t-123 -258t-277 -91q-154 -1 -273 59q-118 60 -179 175l170 94q32 -78 106 -119t158 -41t150 42t67 127t-59 129q-60 45 -189 101t-174 80t-96 62q-97 74 -97 207q0 100 58 174t147 110q-141 90 -141 244t119 241t262 87t243 -49t150 -135l-145 -107q-31 57 -91 94t-140 37z
" />
    <glyph glyph-name="dieresis" unicode="&#xa8;" 
d="M328 1322q0 50 37 87t90 37t90 -36t37 -88t-37 -88t-90 -36t-90 37t-37 87zM-70 1322q0 50 37 87t90 37t90 -36t37 -88t-37 -88t-90 -36t-90 37t-37 87z" />
    <glyph glyph-name="copyright" unicode="&#xa9;" horiz-adv-x="1638" 
d="M853 1059q-134 0 -219 -91q-85 -92 -85 -234t82 -232t219 -90t213 102l125 -88q-123 -156 -336 -156t-345 130t-132 338t135 334t344 126q92 0 182 -34t138 -101l-119 -94q-68 90 -202 90zM164 724q0 -271 192 -463q193 -191 464 -191t463 191q191 191 191 463t-190 464
q-192 192 -464 192t-464 -192q-192 -193 -192 -464zM1597 724q0 -320 -227 -544t-550 -225q-323 1 -551 225t-228 544t228 546q228 225 551 225t550 -225q227 -226 227 -546z" />
    <glyph glyph-name="ordfeminine" unicode="&#xaa;" horiz-adv-x="778" 
d="M504 1126v21h-33q-221 0 -221 -96q0 -74 102 -74q74 -1 113 39t39 110zM506 883v75h-2q-53 -90 -182 -90q-84 0 -151 43t-67 138q0 197 400 196v15q0 50 -38 78t-95 28q-90 0 -160 -66l-74 89q97 92 243 92t204 -71t59 -175v-352h-137z" />
    <glyph glyph-name="guillemotleft" unicode="&#xab;" horiz-adv-x="1024" 
d="M922 858l-236 -358l236 -359l-125 -88l-299 447l299 444zM506 858l-236 -358l238 -359l-127 -88l-299 447l299 444z" />
    <glyph glyph-name="logicalnot" unicode="&#xac;" horiz-adv-x="1363" 
d="M1221 872v-587h-166v422h-912v165h1078z" />
    <glyph glyph-name="uni00AD" unicode="&#xad;" horiz-adv-x="655" 
d="M565 582v-164h-475v164h475z" />
    <glyph glyph-name="registered" unicode="&#xae;" horiz-adv-x="1228" 
d="M221 1010q0 -162 116 -278q115 -116 277 -116t278 116t116 278t-115 278t-279 115q-164 1 -278 -115t-115 -278zM147 1010q1 192 137 328t330 136t331 -136q136 -136 136 -328t-136 -327q-136 -134 -331 -134t-331 134t-136 327zM541 956v-202h-125v524h225q84 0 141 -39
q58 -39 58 -133t-105 -131l139 -221h-147l-113 202h-73zM541 1047h96q29 0 53 19t23 48q0 29 -25 45t-51 17h-96v-129z" />
    <glyph glyph-name="macron" unicode="&#xaf;" 
d="M559 1360v-137h-606v137h606z" />
    <glyph glyph-name="degree" unicode="&#xb0;" horiz-adv-x="819" 
d="M596 1158q0 77 -54 132q-54 56 -132 56t-132 -56t-54 -132q0 -77 54 -132t132 -55t132 55t54 132zM727 1157q0 -133 -92 -224t-225 -91t-226 91q-92 91 -92 224t92 225t226 92t225 -92q92 -92 92 -225z" />
    <glyph glyph-name="plusminus" unicode="&#xb1;" horiz-adv-x="1363" 
d="M143 82v166h1078v-166h-1078zM143 692v166h457v307h166v-307h455v-166h-455v-301h-166v301h-457z" />
    <glyph glyph-name="twosuperior" unicode="&#xb2;" horiz-adv-x="788" 
d="M682 727v-141h-580v137l336 338q82 87 82 149t-35 93t-89 31t-91 -39q-37 -38 -47 -101l-152 20q16 113 98 186t196 73q116 0 198 -66t82 -186q0 -77 -37 -137t-106 -128l-234 -229h379z" />
    <glyph glyph-name="threesuperior" unicode="&#xb3;" horiz-adv-x="788" 
d="M293 975v127h55q164 0 164 129q0 47 -37 78t-88 30q-94 0 -135 -104l-139 47q37 90 111 141q76 51 182 51t184 -60q78 -62 78 -177q0 -66 -36 -116t-91 -74q65 -21 107 -77t42 -130q0 -127 -88 -197t-211 -70q-233 0 -309 215l145 46q41 -123 160 -123q61 0 106 33
q44 34 44 102q1 68 -55 98t-134 31h-55z" />
    <glyph glyph-name="acute" unicode="&#xb4;" 
d="M582 1450l-279 -295h-158l205 295h232z" />
    <glyph glyph-name="mu" unicode="&#xb5;" horiz-adv-x="1183" 
d="M838 160h-4q-39 -80 -127 -133t-196 -53t-165 61v-527h-192v1463h192v-537q0 -299 221 -299q117 0 189 88t71 232v516h193v-762q0 -125 8 -209h-182q-8 98 -8 160z" />
    <glyph glyph-name="paragraph" unicode="&#xb6;" horiz-adv-x="1228" 
d="M1071 1450v-1708h-160v1579h-235v-1579h-162v928q-190 0 -312 108t-122 269q0 199 126 301t347 102h518z" />
    <glyph glyph-name="periodcentered" unicode="&#xb7;" horiz-adv-x="532" 
d="M406 621q0 -55 -40 -95t-98 -41q-58 0 -98 40q-41 40 -41 94q0 53 40 95t98 42q59 0 99 -40t40 -95z" />
    <glyph glyph-name="cedilla" unicode="&#xb8;" 
d="M324 -137q58 0 115 -38t57 -129t-78 -134t-188 -43t-205 47l41 86q76 -35 139 -35q143 0 143 86q0 78 -110 78q-37 0 -84 -14l-41 40l127 193h102l-94 -141q18 4 76 4z" />
    <glyph glyph-name="onesuperior" unicode="&#xb9;" horiz-adv-x="788" 
d="M506 1450v-872h-160v679l-139 -120l-94 104l256 209h137z" />
    <glyph glyph-name="ordmasculine" unicode="&#xba;" horiz-adv-x="778" 
d="M547 1177q0 71 -42 119t-116 47q-74 0 -115 -48q-41 -49 -41 -119t41 -119t115 -49t116 49t42 120zM700 1177q0 -133 -88 -219t-223 -86t-223 86t-88 218t88 218q88 85 223 85t223 -85t88 -217z" />
    <glyph glyph-name="guillemotright" unicode="&#xbb;" horiz-adv-x="1024" 
d="M102 858l125 86l299 -444l-299 -447l-125 88l236 359zM518 858l125 86l299 -444l-299 -447l-127 88l238 359z" />
    <glyph glyph-name="onequarter" unicode="&#xbc;" horiz-adv-x="1781" 
d="M1386 1450l-921 -1522l-119 64l924 1521zM506 1450v-872h-160v679l-139 -120l-94 104l256 209h137zM1382 680h-6l-223 -356h229v356zM1528 872v-548h121v-138h-121v-186h-146v186h-387v131l363 555h170z" />
    <glyph glyph-name="onehalf" unicode="&#xbd;" horiz-adv-x="1781" 
d="M1386 1450l-921 -1522l-119 64l924 1521zM1661 141v-141h-580v137l336 338q82 87 82 149t-35 93t-89 31t-91 -38t-47 -102l-152 21q15 113 97 185t198 73q116 0 197 -66q82 -66 82 -186q0 -78 -37 -137t-106 -127l-234 -230h379zM506 1450v-872h-160v679l-139 -120
l-94 104l256 209h137z" />
    <glyph glyph-name="threequarters" unicode="&#xbe;" horiz-adv-x="1781" 
d="M293 975v127h55q164 0 164 129q0 47 -37 78t-88 30q-94 0 -135 -104l-139 47q37 90 111 141q76 51 182 51t184 -60q78 -62 78 -177q0 -66 -36 -116t-91 -74q65 -21 107 -77t42 -130q0 -127 -88 -197t-211 -70q-233 0 -309 215l145 46q41 -123 160 -123q61 0 106 33
q44 34 44 102q1 68 -55 98t-134 31h-55zM1386 1450l-921 -1522l-119 64l924 1521zM1382 680h-6l-223 -356h229v356zM1528 872v-548h121v-138h-121v-186h-146v186h-387v131l363 555h170z" />
    <glyph glyph-name="questiondown" unicode="&#xbf;" horiz-adv-x="1024" 
d="M369 874q0 56 40 96t97 40t97 -40t40 -94t-40 -94t-97 -41q-57 0 -97 39t-40 94zM420 514v72h192v-99q0 -101 -36 -167t-113 -138l-76 -71q-104 -89 -104 -195t62 -164q63 -58 161 -59q98 0 162 64q63 65 73 161l197 -22q-27 -174 -147 -277q-121 -102 -298 -102
t-296 100t-119 279q0 118 46 190t142 154t125 130t29 144z" />
    <glyph glyph-name="Agrave" unicode="&#xc0;" horiz-adv-x="1456" 
d="M655 1565l-280 295h233l205 -295h-158zM725 1214l-272 -679h542zM381 356l-145 -356h-226l629 1450h184l623 -1450h-229l-148 356h-688z" />
    <glyph glyph-name="Aacute" unicode="&#xc1;" horiz-adv-x="1456" 
d="M1096 1860l-281 -295h-156l203 295h234zM725 1214l-272 -679h542zM381 356l-145 -356h-226l629 1450h184l623 -1450h-229l-148 356h-688z" />
    <glyph glyph-name="Acircumflex" unicode="&#xc2;" horiz-adv-x="1456" 
d="M846 1860l229 -295h-186l-154 202l-155 -202h-185l230 295h221zM725 1214l-272 -679h542zM381 356l-145 -356h-226l629 1450h184l623 -1450h-229l-148 356h-688z" />
    <glyph glyph-name="Atilde" unicode="&#xc3;" horiz-adv-x="1456" 
d="M588 1819q68 0 160 -43t131 -43q70 0 98 94h110q-41 -238 -208 -238q-63 0 -158 43q-86 43 -133 43q-71 0 -96 -94h-113q41 238 209 238zM725 1214l-272 -679h542zM381 356l-145 -356h-226l629 1450h184l623 -1450h-229l-148 356h-688z" />
    <glyph glyph-name="Adieresis" unicode="&#xc4;" horiz-adv-x="1456" 
d="M803 1732q0 50 37 87t90 37t90 -36t37 -88t-37 -88t-90 -36t-90 37t-37 87zM406 1732q0 50 36 87q37 37 90 37t91 -36q37 -36 37 -88t-38 -88q-36 -36 -90 -36t-90 37t-36 87zM725 1214l-272 -679h542zM381 356l-145 -356h-226l629 1450h184l623 -1450h-229l-148 356
h-688z" />
    <glyph glyph-name="Aring" unicode="&#xc5;" horiz-adv-x="1456" 
d="M856 1747q0 51 -36 85t-87 34t-86 -35t-35 -85t35 -84t86 -34t87 34t36 85zM940 1747q0 -86 -60 -144q-60 -59 -146 -59t-146 58q-59 58 -60 143q0 86 60 144q60 59 145 59q87 0 147 -58t60 -143zM725 1214l-272 -679h542zM381 356l-145 -356h-226l629 1450h184
l623 -1450h-229l-148 356h-688z" />
    <glyph glyph-name="AE" unicode="&#xc6;" horiz-adv-x="2078" 
d="M1073 569v703h-29l-444 -703h473zM1276 664v-484h709v-180h-912v393h-579l-248 -393h-242l936 1450h1014v-178h-678v-434h635v-174h-635z" />
    <glyph glyph-name="Ccedilla" unicode="&#xc7;" horiz-adv-x="1449" 
d="M902 -137q59 0 115 -38t56 -129t-78 -134q-79 -43 -189 -43t-204 47l41 86q75 -35 139 -35q144 0 144 86q0 78 -111 78q-37 0 -84 -14l-41 40l105 160q-307 25 -500 235t-193 536t220 537q220 212 552 212q156 1 300 -59t221 -166l-160 -123q-53 76 -151 123t-210 47
q-246 0 -398 -168t-152 -416t150 -415t400 -167t383 193l162 -111q-182 -248 -524 -260l-70 -106q18 4 77 4z" />
    <glyph glyph-name="Egrave" unicode="&#xc8;" horiz-adv-x="1230" 
d="M641 1565l-281 295h234l205 -295h-158zM379 664v-484h758v-180h-961v1450h930v-178h-727v-434h684v-174h-684z" />
    <glyph glyph-name="Eacute" unicode="&#xc9;" horiz-adv-x="1230" 
d="M973 1860l-281 -295h-155l202 295h234zM379 664v-484h758v-180h-961v1450h930v-178h-727v-434h684v-174h-684z" />
    <glyph glyph-name="Ecircumflex" unicode="&#xca;" horiz-adv-x="1230" 
d="M762 1860l229 -295h-186l-154 202l-155 -202h-185l230 295h221zM379 664v-484h758v-180h-961v1450h930v-178h-727v-434h684v-174h-684z" />
    <glyph glyph-name="Edieresis" unicode="&#xcb;" horiz-adv-x="1230" 
d="M721 1732q0 50 37 87t90 37t90 -36t37 -88t-37 -88t-90 -36t-90 37t-37 87zM324 1732q0 50 36 87t90 37t91 -36t37 -88t-37 -88t-90 -36t-91 37q-36 37 -36 87zM379 664v-484h758v-180h-961v1450h930v-178h-727v-434h684v-174h-684z" />
    <glyph glyph-name="Igrave" unicode="&#xcc;" horiz-adv-x="555" 
d="M223 1565l-280 295h233l205 -295h-158zM379 1450v-1450h-203v1450h203z" />
    <glyph glyph-name="Iacute" unicode="&#xcd;" horiz-adv-x="555" 
d="M610 1860l-280 -295h-156l203 295h233zM379 1450v-1450h-203v1450h203z" />
    <glyph glyph-name="Icircumflex" unicode="&#xce;" horiz-adv-x="555" 
d="M385 1860l229 -295h-186l-154 202l-155 -202h-185l230 295h221zM379 1450v-1450h-203v1450h203z" />
    <glyph glyph-name="Idieresis" unicode="&#xcf;" horiz-adv-x="555" 
d="M350 1732q0 50 37 87t90 37t90 -36t37 -88t-37 -88t-90 -36t-90 37t-37 87zM-47 1732q0 50 37 87t90 37t90 -36t37 -88t-37 -88t-90 -36t-90 37t-37 87zM379 1450v-1450h-203v1450h203z" />
    <glyph glyph-name="Eth" unicode="&#xd0;" horiz-adv-x="1558" 
d="M373 686v-502h239q285 0 451 148t166 394q0 247 -158 393t-438 147h-260v-437h485v-143h-485zM168 0v686h-141v143h141v621h528q293 0 513 -179q109 -87 173 -229t64 -317q0 -176 -69 -318q-125 -256 -427 -361q-133 -46 -270 -46h-512z" />
    <glyph glyph-name="Ntilde" unicode="&#xd1;" horiz-adv-x="1581" 
d="M641 1819q68 0 160 -43t131 -43q70 0 98 94h111q-41 -238 -209 -238q-63 0 -158 43q-86 43 -133 43q-71 0 -96 -94h-113q41 238 209 238zM1202 291v1159h203v-1450h-256l-766 1184h-4v-1184h-203v1450h264l758 -1159h4z" />
    <glyph glyph-name="Ograve" unicode="&#xd2;" horiz-adv-x="1738" 
d="M838 1565l-281 295h234l204 -295h-157zM1419 726q0 247 -151 415q-152 168 -398 168t-398 -168t-150 -415q0 -247 152 -414t396 -167q246 0 398 167q151 167 151 414zM1638 728q0 -335 -218 -550t-551 -215t-550 215t-217 550t216 547t550 212t552 -212t218 -547z" />
    <glyph glyph-name="Oacute" unicode="&#xd3;" horiz-adv-x="1738" 
d="M1196 1860l-281 -295h-155l203 295h233zM1419 726q0 247 -151 415q-152 168 -398 168t-398 -168t-150 -415q0 -247 152 -414t396 -167q246 0 398 167q151 167 151 414zM1638 728q0 -335 -218 -550t-551 -215t-550 215t-217 550t216 547t550 212t552 -212t218 -547z" />
    <glyph glyph-name="Ocircumflex" unicode="&#xd4;" horiz-adv-x="1738" 
d="M979 1860l229 -295h-186l-154 202l-155 -202h-185l230 295h221zM1419 726q0 247 -151 415q-152 168 -398 168t-398 -168t-150 -415q0 -247 152 -414t396 -167q246 0 398 167q151 167 151 414zM1638 728q0 -335 -218 -550t-551 -215t-550 215t-217 550t216 547t550 212
t552 -212t218 -547z" />
    <glyph glyph-name="Otilde" unicode="&#xd5;" horiz-adv-x="1738" 
d="M723 1819q68 0 160 -43t131 -43q70 0 98 94h111q-41 -238 -209 -238q-63 0 -158 43q-86 43 -133 43q-71 0 -96 -94h-113q41 238 209 238zM1419 726q0 247 -151 415q-152 168 -398 168t-398 -168t-150 -415q0 -247 152 -414t396 -167q246 0 398 167q151 167 151 414z
M1638 728q0 -335 -218 -550t-551 -215t-550 215t-217 550t216 547t550 212t552 -212t218 -547z" />
    <glyph glyph-name="Odieresis" unicode="&#xd6;" horiz-adv-x="1738" 
d="M940 1732q0 50 37 87t90 37t90 -36t37 -88t-37 -88t-90 -36t-90 37t-37 87zM543 1732q0 50 37 87t90 37t90 -36t37 -88t-37 -88t-90 -36t-90 37t-37 87zM1419 726q0 247 -151 415q-152 168 -398 168t-398 -168t-150 -415q0 -247 152 -414t396 -167q246 0 398 167
q151 167 151 414zM1638 728q0 -335 -218 -550t-551 -215t-550 215t-217 550t216 547t550 212t552 -212t218 -547z" />
    <glyph glyph-name="multiply" unicode="&#xd7;" horiz-adv-x="1363" 
d="M332 1087l350 -350l348 350l117 -114l-348 -350l352 -355l-121 -118l-350 348l-348 -348l-119 118l352 348l-350 357z" />
    <glyph glyph-name="Oslash" unicode="&#xd8;" horiz-adv-x="1738" 
d="M868 141q250 0 404 168q154 169 154 409t-128 396l-784 -848q141 -125 354 -125zM868 1311q-250 0 -402 -168t-151 -404q0 -236 117 -383l780 842q-131 113 -344 113zM868 1487q274 0 471 -146l166 179l88 -80l-161 -176q206 -211 206 -540t-218 -543t-552 -218
q-287 0 -487 162l-166 -178l-88 80l166 180q-191 203 -191 529t216 539q216 212 550 212z" />
    <glyph glyph-name="Ugrave" unicode="&#xd9;" horiz-adv-x="1458" 
d="M662 1565l-281 295h233l205 -295h-157zM729 -37q-272 0 -418 167q-145 167 -145 407v913h203v-901q0 -170 87 -287t273 -117t273 117t88 287v901h202v-913q0 -240 -146 -407t-417 -167z" />
    <glyph glyph-name="Uacute" unicode="&#xda;" horiz-adv-x="1458" 
d="M1040 1860l-280 -295h-156l203 295h233zM729 -37q-272 0 -418 167q-145 167 -145 407v913h203v-901q0 -170 87 -287t273 -117t273 117t88 287v901h202v-913q0 -240 -146 -407t-417 -167z" />
    <glyph glyph-name="Ucircumflex" unicode="&#xdb;" horiz-adv-x="1458" 
d="M836 1860l229 -295h-186l-154 202l-156 -202h-184l229 295h222zM729 -37q-272 0 -418 167q-145 167 -145 407v913h203v-901q0 -170 87 -287t273 -117t273 117t88 287v901h202v-913q0 -240 -146 -407t-417 -167z" />
    <glyph glyph-name="Udieresis" unicode="&#xdc;" horiz-adv-x="1458" 
d="M801 1732q0 50 37 87t90 37t90 -36t37 -88t-37 -88t-90 -36t-90 37t-37 87zM403 1732q0 50 37 87t90 37t91 -36q37 -36 37 -88t-38 -88q-36 -36 -90 -36t-90 37q-37 37 -37 87zM729 -37q-272 0 -418 167q-145 167 -145 407v913h203v-901q0 -170 87 -287t273 -117t273 117
t88 287v901h202v-913q0 -240 -146 -407t-417 -167z" />
    <glyph glyph-name="Yacute" unicode="&#xdd;" horiz-adv-x="1277" 
d="M987 1860l-280 -295h-156l203 295h233zM741 0h-204v627l-543 823h250l401 -655l404 655h235l-543 -823v-627z" />
    <glyph glyph-name="Thorn" unicode="&#xde;" horiz-adv-x="1218" 
d="M379 977v-465h209q338 0 338 232t-334 233h-213zM176 0v1450h203v-299h239q242 0 380 -102t138 -307q0 -204 -142 -304q-144 -100 -386 -100h-229v-338h-203z" />
    <glyph glyph-name="germandbls" unicode="&#xdf;" horiz-adv-x="1253" 
d="M356 1067v-1067h-192v1075q0 199 101 341q51 73 145 115t219 42q178 -1 297 -107t118 -274q0 -113 -60 -197t-167 -118v-5q156 -22 249 -136t93 -281q0 -215 -135 -347t-362 -133q-70 0 -146 17v162q53 -14 121 -15q147 0 235 87t88 240q0 154 -96 234q-98 80 -258 80
h-22v168h22q110 0 178 58t68 164q0 104 -64 168t-154 65q-168 0 -227 -115q-51 -97 -51 -221z" />
    <glyph glyph-name="agrave" unicode="&#xe0;" horiz-adv-x="1110" 
d="M524 1155l-278 295h231l205 -295h-158zM770 463h-47q-432 0 -432 -184q0 -80 57 -116t141 -36q131 0 206 79t75 206v51zM770 602v27q0 104 -64 158q-65 54 -176 55q-164 0 -276 -113l-102 123q152 145 397 145q201 0 303 -105t102 -276v-423q0 -127 15 -193h-174
q-16 70 -17 139h-6q-109 -164 -326 -164q-125 0 -233 66q-53 33 -86 93t-33 142t40 144t102 97q154 85 534 85z" />
    <glyph glyph-name="aacute" unicode="&#xe1;" horiz-adv-x="1110" 
d="M901 1450l-278 -295h-158l205 295h231zM770 463h-47q-432 0 -432 -184q0 -80 57 -116t141 -36q131 0 206 79t75 206v51zM770 602v27q0 104 -64 158q-65 54 -176 55q-164 0 -276 -113l-102 123q152 145 397 145q201 0 303 -105t102 -276v-423q0 -127 15 -193h-174
q-16 70 -17 139h-6q-109 -164 -326 -164q-125 0 -233 66q-53 33 -86 93t-33 142t40 144t102 97q154 85 534 85z" />
    <glyph glyph-name="acircumflex" unicode="&#xe2;" horiz-adv-x="1110" 
d="M659 1450l230 -295h-187l-153 203l-156 -203h-184l229 295h221zM770 463h-47q-432 0 -432 -184q0 -80 57 -116t141 -36q131 0 206 79t75 206v51zM770 602v27q0 104 -64 158q-65 54 -176 55q-164 0 -276 -113l-102 123q152 145 397 145q201 0 303 -105t102 -276v-423
q0 -127 15 -193h-174q-16 70 -17 139h-6q-109 -164 -326 -164q-125 0 -233 66q-53 33 -86 93t-33 142t40 144t102 97q154 85 534 85z" />
    <glyph glyph-name="atilde" unicode="&#xe3;" horiz-adv-x="1110" 
d="M403 1409q68 0 160 -43t131 -43q70 0 99 94h110q-41 -238 -209 -237q-63 0 -153 43t-138 43q-71 -1 -96 -95h-112q41 238 208 238zM770 463h-47q-432 0 -432 -184q0 -80 57 -116t141 -36q131 0 206 79t75 206v51zM770 602v27q0 104 -64 158q-65 54 -176 55
q-164 0 -276 -113l-102 123q152 145 397 145q201 0 303 -105t102 -276v-423q0 -127 15 -193h-174q-16 70 -17 139h-6q-109 -164 -326 -164q-125 0 -233 66q-53 33 -86 93t-33 142t40 144t102 97q154 85 534 85z" />
    <glyph glyph-name="adieresis" unicode="&#xe4;" horiz-adv-x="1110" 
d="M623 1322q0 50 36 87q37 37 91 37t90 -36q37 -36 37 -88t-37 -88t-90 -36t-91 37q-36 37 -36 87zM225 1322q0 50 37 87t90 37t90 -36t37 -88t-37 -88t-90 -36t-90 37t-37 87zM770 463h-47q-432 0 -432 -184q0 -80 57 -116t141 -36q131 0 206 79t75 206v51zM770 602v27
q0 104 -64 158q-65 54 -176 55q-164 0 -276 -113l-102 123q152 145 397 145q201 0 303 -105t102 -276v-423q0 -127 15 -193h-174q-16 70 -17 139h-6q-109 -164 -326 -164q-125 0 -233 66q-53 33 -86 93t-33 142t40 144t102 97q154 85 534 85z" />
    <glyph glyph-name="aring" unicode="&#xe5;" horiz-adv-x="1110" 
d="M670 1337q0 49 -36 82t-85 33t-84 -33t-35 -82t35 -83t84 -34t85 34t36 83zM756 1337q0 -86 -60 -144t-147 -58q-86 0 -146 57q-59 57 -59 143q0 87 59 145t145 58t148 -58q60 -58 60 -143zM770 463h-47q-432 0 -432 -184q0 -80 57 -116t141 -36q131 0 206 79t75 206v51z
M770 602v27q0 104 -64 158q-65 54 -176 55q-164 0 -276 -113l-102 123q152 145 397 145q201 0 303 -105t102 -276v-423q0 -127 15 -193h-174q-16 70 -17 139h-6q-109 -164 -326 -164q-125 0 -233 66q-53 33 -86 93t-33 142t40 144t102 97q154 85 534 85z" />
    <glyph glyph-name="ae" unicode="&#xe6;" horiz-adv-x="1796" 
d="M446 -25q-139 0 -245 65q-107 65 -107 215t121 230q99 65 330 80q92 6 225 6v23q0 248 -240 248q-164 0 -276 -113l-102 123q152 145 406 145t331 -180q129 180 346 180t339 -136t122 -367q0 -43 -2 -66h-746q4 -125 93 -210t212 -85q174 0 275 148l129 -109
q-147 -199 -404 -199q-129 -1 -233 53t-162 148q-106 -199 -412 -199zM1503 571q0 119 -69 197q-70 78 -190 78t-206 -80t-92 -195h557zM766 428h-49q-199 0 -281 -20q-83 -20 -114 -54q-31 -33 -31 -82q0 -147 201 -147q134 0 204 68t70 184v51z" />
    <glyph glyph-name="ccedilla" unicode="&#xe7;" horiz-adv-x="1011" 
d="M623 836q-145 0 -231 -102t-87 -248q0 -146 87 -248t235 -102t231 106l129 -117q-123 -143 -338 -152l-76 -114q18 4 77 4t115 -38t56 -129t-78 -134q-79 -43 -189 -43t-204 47l41 86q75 -35 139 -35q144 0 144 86q0 78 -111 78q-37 0 -84 -14l-41 40l113 170
q-199 23 -324 161t-125 356t146 360t373 143q107 1 207 -41t157 -118l-139 -113q-31 49 -93 80t-130 31z" />
    <glyph glyph-name="egrave" unicode="&#xe8;" horiz-adv-x="1173" 
d="M553 1155l-279 295h232l205 -295h-158zM1071 494q0 -43 -2 -66h-770q4 -125 96 -210t219 -85q182 0 283 148l135 -109q-154 -199 -418 -199q-223 -1 -367 141q-145 142 -145 368t144 370t358 145q215 0 341 -136t126 -367zM607 846q-126 0 -212 -80t-96 -195h578
q-4 121 -74 198t-196 77z" />
    <glyph glyph-name="eacute" unicode="&#xe9;" horiz-adv-x="1173" 
d="M938 1450l-279 -295h-157l205 295h231zM1071 494q0 -43 -2 -66h-770q4 -125 96 -210t219 -85q182 0 283 148l135 -109q-154 -199 -418 -199q-223 -1 -367 141q-145 142 -145 368t144 370t358 145q215 0 341 -136t126 -367zM607 846q-126 0 -212 -80t-96 -195h578
q-4 121 -74 198t-196 77z" />
    <glyph glyph-name="ecircumflex" unicode="&#xea;" horiz-adv-x="1173" 
d="M727 1450l229 -295h-186l-154 203l-155 -203h-185l230 295h221zM1071 494q0 -43 -2 -66h-770q4 -125 96 -210t219 -85q182 0 283 148l135 -109q-154 -199 -418 -199q-223 -1 -367 141q-145 142 -145 368t144 370t358 145q215 0 341 -136t126 -367zM607 846
q-126 0 -212 -80t-96 -195h578q-4 121 -74 198t-196 77z" />
    <glyph glyph-name="edieresis" unicode="&#xeb;" horiz-adv-x="1173" 
d="M686 1322q0 50 37 87t90 37t90 -36t37 -88t-37 -88t-90 -36t-90 37t-37 87zM289 1322q0 50 37 87t90 37t90 -36t37 -88t-37 -88t-90 -36t-90 37t-37 87zM1071 494q0 -43 -2 -66h-770q4 -125 96 -210t219 -85q182 0 283 148l135 -109q-154 -199 -418 -199
q-223 -1 -367 141q-145 142 -145 368t144 370t358 145q215 0 341 -136t126 -367zM607 846q-126 0 -212 -80t-96 -195h578q-4 121 -74 198t-196 77z" />
    <glyph glyph-name="igrave" unicode="&#xec;" horiz-adv-x="530" 
d="M205 1155l-279 295h232l204 -295h-157zM360 971v-971h-192v971h192z" />
    <glyph glyph-name="iacute" unicode="&#xed;" horiz-adv-x="530" 
d="M604 1450l-278 -295h-158l205 295h231zM360 971v-971h-192v971h192z" />
    <glyph glyph-name="icircumflex" unicode="&#xee;" horiz-adv-x="530" 
d="M377 1450l229 -295h-186l-154 203l-155 -203h-185l230 295h221zM360 971v-971h-192v971h192z" />
    <glyph glyph-name="idieresis" unicode="&#xef;" horiz-adv-x="530" 
d="M338 1322q0 50 37 87t90 37t90 -36t37 -88t-37 -88t-90 -36t-90 37t-37 87zM-59 1322q0 50 36 87q37 37 91 37t90 -36q37 -36 37 -88t-37 -88t-90 -36t-91 37q-36 37 -36 87zM360 971v-971h-192v971h192z" />
    <glyph glyph-name="eth" unicode="&#xf0;" horiz-adv-x="1249" 
d="M291 485q0 -145 88 -246q87 -101 237 -101t237 100q87 102 87 247t-87 247t-237 102t-238 -102t-87 -247zM631 -27q-242 1 -389 145t-148 367q0 223 148 367t366 145q154 0 266 -100l5 4q-121 227 -289 369l-225 -109l-99 96l226 109q-53 51 -183 143l158 97
q121 -92 190 -160l222 108l106 -94l-225 -110q170 -172 274 -381t104 -439t-132 -394q-133 -163 -375 -163z" />
    <glyph glyph-name="ntilde" unicode="&#xf1;" horiz-adv-x="1191" 
d="M457 1409q67 0 159 -43t132 -43q70 0 98 94h110q-41 -238 -208 -237q-63 0 -158 43q-86 43 -133 43q-72 -1 -97 -95h-112q41 238 209 238zM348 811h6q37 80 125 133t191 53q178 -1 270 -111t92 -284v-602h-192v539q0 297 -222 297q-116 0 -188 -88t-72 -232v-516h-192
v762q0 125 -8 209h182q8 -98 8 -160z" />
    <glyph glyph-name="ograve" unicode="&#xf2;" horiz-adv-x="1249" 
d="M580 1155l-279 295h231l205 -295h-157zM948 487q0 145 -87 247t-237 104q-150 0 -236 -102q-87 -102 -87 -248t87 -249t237 -103q151 0 237 102q86 104 86 249zM1149 487q0 -223 -151 -368q-152 -145 -374 -145t-372 144q-150 146 -150 369t148 367t374 143
q226 1 376 -143t149 -367z" />
    <glyph glyph-name="oacute" unicode="&#xf3;" horiz-adv-x="1249" 
d="M944 1450l-278 -295h-158l205 295h231zM948 487q0 145 -87 247t-237 104q-150 0 -236 -102q-87 -102 -87 -248t87 -249t237 -103q151 0 237 102q86 104 86 249zM1149 487q0 -223 -151 -368q-152 -145 -374 -145t-372 144q-150 146 -150 369t148 367t374 143
q226 1 376 -143t149 -367z" />
    <glyph glyph-name="ocircumflex" unicode="&#xf4;" horiz-adv-x="1249" 
d="M737 1450l230 -295h-187l-153 203l-156 -203h-184l229 295h221zM948 487q0 145 -87 247t-237 104q-150 0 -236 -102q-87 -102 -87 -248t87 -249t237 -103q151 0 237 102q86 104 86 249zM1149 487q0 -223 -151 -368q-152 -145 -374 -145t-372 144q-150 146 -150 369
t148 367t374 143q226 1 376 -143t149 -367z" />
    <glyph glyph-name="otilde" unicode="&#xf5;" horiz-adv-x="1249" 
d="M481 1409q68 0 160 -43t131 -43q70 0 98 94h111q-41 -238 -209 -237q-63 0 -158 43q-86 43 -133 43q-71 -1 -96 -95h-113q41 238 209 238zM948 487q0 145 -87 247t-237 104q-150 0 -236 -102q-87 -102 -87 -248t87 -249t237 -103q151 0 237 102q86 104 86 249zM1149 487
q0 -223 -151 -368q-152 -145 -374 -145t-372 144q-150 146 -150 369t148 367t374 143q226 1 376 -143t149 -367z" />
    <glyph glyph-name="odieresis" unicode="&#xf6;" horiz-adv-x="1249" 
d="M698 1322q0 50 37 87t90 37t90 -36t37 -88t-37 -88t-90 -36t-90 37t-37 87zM301 1322q0 50 37 87t90 37t90 -36t37 -88t-37 -88t-90 -36t-90 37t-37 87zM948 487q0 145 -87 247t-237 104q-150 0 -236 -102q-87 -102 -87 -248t87 -249t237 -103q151 0 237 102
q86 104 86 249zM1149 487q0 -223 -151 -368q-152 -145 -374 -145t-372 144q-150 146 -150 369t148 367t374 143q226 1 376 -143t149 -367z" />
    <glyph glyph-name="divide" unicode="&#xf7;" horiz-adv-x="1363" 
d="M815 960q0 -54 -39 -94t-94 -39q-55 0 -94 39q-39 40 -39 94t39 94t94 40t94 -40t39 -94zM549 269q0 55 39 95t94 40t94 -41q39 -40 39 -94t-39 -93t-94 -39t-94 39t-39 93zM1221 705v-168h-1078v168h1078z" />
    <glyph glyph-name="oslash" unicode="&#xf8;" horiz-adv-x="1249" 
d="M640 129q140 0 228 105q88 104 88 242t-59 216l-481 -491q84 -72 224 -72zM613 844q-140 0 -229 -106t-89 -244q0 -139 57 -215l479 493q-78 72 -218 72zM1149 472q0 -210 -150 -354t-356 -144t-344 104l-139 -141l-74 73l135 140q-119 138 -119 348t150 354t356 145
q206 0 340 -104l139 143l76 -71l-137 -144q123 -139 123 -349z" />
    <glyph glyph-name="ugrave" unicode="&#xf9;" horiz-adv-x="1191" 
d="M547 1155l-279 295h232l205 -295h-158zM842 160h-4q-39 -80 -127 -133t-191 -54q-178 0 -270 111t-92 285v602h192v-537q0 -299 221 -299q117 0 189 88t71 232v516h193v-762q0 -125 8 -209h-182q-8 98 -8 160z" />
    <glyph glyph-name="uacute" unicode="&#xfa;" horiz-adv-x="1191" 
d="M926 1450l-279 -295h-158l205 295h232zM842 160h-4q-39 -80 -127 -133t-191 -54q-178 0 -270 111t-92 285v602h192v-537q0 -299 221 -299q117 0 189 88t71 232v516h193v-762q0 -125 8 -209h-182q-8 98 -8 160z" />
    <glyph glyph-name="ucircumflex" unicode="&#xfb;" horiz-adv-x="1191" 
d="M707 1450l229 -295h-186l-154 203l-156 -203h-184l229 295h222zM842 160h-4q-39 -80 -127 -133t-191 -54q-178 0 -270 111t-92 285v602h192v-537q0 -299 221 -299q117 0 189 88t71 232v516h193v-762q0 -125 8 -209h-182q-8 98 -8 160z" />
    <glyph glyph-name="udieresis" unicode="&#xfc;" horiz-adv-x="1191" 
d="M666 1322q0 50 36 87t90 37t91 -36t37 -88t-37 -88t-90 -36t-91 37q-36 37 -36 87zM268 1322q0 50 37 87t90 37t90 -36t37 -88t-37 -88t-90 -36t-90 37t-37 87zM842 160h-4q-39 -80 -127 -133t-191 -54q-178 0 -270 111t-92 285v602h192v-537q0 -299 221 -299
q117 0 189 88t71 232v516h193v-762q0 -125 8 -209h-182q-8 98 -8 160z" />
    <glyph glyph-name="yacute" unicode="&#xfd;" horiz-adv-x="1032" 
d="M864 1450l-278 -295h-158l205 295h231zM205 -492q-68 0 -127 15l18 170q49 -17 108 -17q60 0 98 38t71 124l61 162l-416 971h215l302 -762h4l268 762h205l-471 -1200q-51 -133 -126 -198t-210 -65z" />
    <glyph glyph-name="thorn" unicode="&#xfe;" horiz-adv-x="1302" 
d="M997 487q0 145 -86 247t-233 104q-148 0 -240 -104t-92 -248t92 -247t240 -103t234 102q86 104 85 249zM358 145v-637h-190v2040h190v-729h7q47 80 138 129t208 49q213 0 349 -146q136 -147 136 -365t-135 -365t-354 -148q-105 0 -197 46t-145 126h-7z" />
    <glyph glyph-name="ydieresis" unicode="&#xff;" horiz-adv-x="1032" 
d="M604 1322q0 50 37 87t90 37t90 -36t37 -88t-37 -88t-90 -36t-90 37t-37 87zM207 1322q0 50 37 87t90 37t90 -36t37 -88t-37 -88t-90 -36t-90 37t-37 87zM205 -492q-68 0 -127 15l18 170q49 -17 108 -17q60 0 98 38t71 124l61 162l-416 971h215l302 -762h4l268 762h205
l-471 -1200q-51 -133 -126 -198t-210 -65z" />
    <glyph glyph-name="Amacron" unicode="&#x100;" horiz-adv-x="1456" 
d="M1028 1769v-137h-606v137h606zM725 1214l-272 -679h542zM381 356l-145 -356h-226l629 1450h184l623 -1450h-229l-148 356h-688z" />
    <glyph glyph-name="amacron" unicode="&#x101;" horiz-adv-x="1110" 
d="M856 1360v-137h-606v137h606zM770 463h-47q-432 0 -432 -184q0 -80 57 -116t141 -36q131 0 206 79t75 206v51zM770 602v27q0 104 -64 158q-65 54 -176 55q-164 0 -276 -113l-102 123q152 145 397 145q201 0 303 -105t102 -276v-423q0 -127 15 -193h-174q-16 70 -17 139
h-6q-109 -164 -326 -164q-125 0 -233 66q-53 33 -86 93t-33 142t40 144t102 97q154 85 534 85z" />
    <glyph glyph-name="Abreve" unicode="&#x102;" horiz-adv-x="1456" 
d="M724 1577q-140 0 -228 73t-97 210h115q12 -74 70 -111t141 -37q180 1 213 148h113q-11 -137 -99 -210t-228 -73zM725 1214l-272 -679h542zM381 356l-145 -356h-226l629 1450h184l623 -1450h-229l-148 356h-688z" />
    <glyph glyph-name="abreve" unicode="&#x103;" horiz-adv-x="1110" 
d="M550 1167q-140 0 -228 73t-97 210h115q12 -74 70 -111t141 -36q180 0 213 147h113q-11 -137 -99 -210t-228 -73zM770 463h-47q-432 0 -432 -184q0 -80 57 -116t141 -36q131 0 206 79t75 206v51zM770 602v27q0 104 -64 158q-65 54 -176 55q-164 0 -276 -113l-102 123
q152 145 397 145q201 0 303 -105t102 -276v-423q0 -127 15 -193h-174q-16 70 -17 139h-6q-109 -164 -326 -164q-125 0 -233 66q-53 33 -86 93t-33 142t40 144t102 97q154 85 534 85z" />
    <glyph glyph-name="Aogonek" unicode="&#x104;" horiz-adv-x="1456" 
d="M725 1214l-272 -679h542zM1237 -463q-92 0 -152 49q-59 49 -59 129q0 145 186 291l-143 350h-688l-145 -356h-226l629 1450h184l623 -1450h-129q-150 -145 -150 -244q0 -40 29 -68t79 -28t99 45l45 -92q-90 -76 -182 -76z" />
    <glyph glyph-name="aogonek" unicode="&#x105;" horiz-adv-x="1110" 
d="M770 463h-47q-432 0 -432 -184q0 -80 57 -116t141 -36q131 0 206 79t75 206v51zM815 -463q-92 0 -151 49t-60 129q0 147 189 291q-14 57 -15 133h-6q-109 -164 -326 -164q-125 0 -233 66q-53 33 -86 93t-33 142t40 144t102 97q154 85 534 85v27q0 104 -64 158
q-65 54 -176 55q-164 0 -276 -113l-102 123q152 145 397 145q201 0 303 -105t102 -276v-423q0 -127 15 -193h-74q-150 -145 -150 -244q0 -40 29 -68t79 -28t99 45l45 -92q-90 -76 -182 -76z" />
    <glyph glyph-name="Cacute" unicode="&#x106;" horiz-adv-x="1449" 
d="M1163 1860l-280 -295h-156l203 295h233zM879 -37q-347 0 -562 215t-215 550t220 547t552 212q156 1 300 -59t221 -166l-160 -123q-53 76 -151 123t-210 47q-246 0 -398 -168t-152 -416t150 -415t400 -167t383 193l162 -111q-193 -262 -540 -262z" />
    <glyph glyph-name="cacute" unicode="&#x107;" horiz-adv-x="1011" 
d="M934 1450l-279 -295h-157l204 295h232zM623 836q-145 0 -231 -102t-87 -248q0 -146 87 -248t235 -102t231 106l129 -117q-131 -152 -360 -152q-229 -1 -377 141t-148 370t146 370t373 143q107 1 207 -41t157 -118l-139 -113q-31 49 -93 80t-130 31z" />
    <glyph glyph-name="Ccircumflex" unicode="&#x108;" horiz-adv-x="1449" 
d="M977 1860l229 -295h-186l-154 202l-155 -202h-185l230 295h221zM879 -37q-347 0 -562 215t-215 550t220 547t552 212q156 1 300 -59t221 -166l-160 -123q-53 76 -151 123t-210 47q-246 0 -398 -168t-152 -416t150 -415t400 -167t383 193l162 -111q-193 -262 -540 -262z
" />
    <glyph glyph-name="ccircumflex" unicode="&#x109;" horiz-adv-x="1011" 
d="M731 1450l230 -295h-187l-153 203l-156 -203h-184l229 295h221zM623 836q-145 0 -231 -102t-87 -248q0 -146 87 -248t235 -102t231 106l129 -117q-131 -152 -360 -152q-229 -1 -377 141t-148 370t146 370t373 143q107 1 207 -41t157 -118l-139 -113q-31 49 -93 80
t-130 31z" />
    <glyph glyph-name="Cdotaccent" unicode="&#x10a;" horiz-adv-x="1449" 
d="M995 1732q0 -52 -38 -88t-91 -36t-90 36t-37 87t37 88t90 37t91 -36t38 -88zM879 -37q-347 0 -562 215t-215 550t220 547t552 212q156 1 300 -59t221 -166l-160 -123q-53 76 -151 123t-210 47q-246 0 -398 -168t-152 -416t150 -415t400 -167t383 193l162 -111
q-193 -262 -540 -262z" />
    <glyph glyph-name="cdotaccent" unicode="&#x10b;" horiz-adv-x="1011" 
d="M614 1446q53 0 91 -36t38 -88q1 -52 -37 -88t-92 -36t-90 36q-37 36 -37 87t37 88t90 37zM623 836q-145 0 -231 -102t-87 -248q0 -146 87 -248t235 -102t231 106l129 -117q-131 -152 -360 -152q-229 -1 -377 141t-148 370t146 370t373 143q107 1 207 -41t157 -118
l-139 -113q-31 49 -93 80t-130 31z" />
    <glyph glyph-name="Ccaron" unicode="&#x10c;" horiz-adv-x="1449" 
d="M1204 1860l-229 -295h-219l-228 295h185l155 -203l156 203h180zM879 -37q-347 0 -562 215t-215 550t220 547t552 212q156 1 300 -59t221 -166l-160 -123q-53 76 -151 123t-210 47q-246 0 -398 -168t-152 -416t150 -415t400 -167t383 193l162 -111q-193 -262 -540 -262z
" />
    <glyph glyph-name="ccaron" unicode="&#x10d;" horiz-adv-x="1011" 
d="M961 1450l-230 -295h-219l-227 295h184l156 -203l155 203h181zM623 836q-145 0 -231 -102t-87 -248q0 -146 87 -248t235 -102t231 106l129 -117q-131 -152 -360 -152q-229 -1 -377 141t-148 370t146 370t373 143q107 1 207 -41t157 -118l-139 -113q-31 49 -93 80t-130 31
z" />
    <glyph glyph-name="Dcaron" unicode="&#x10e;" horiz-adv-x="1558" 
d="M1042 1860l-229 -295h-219l-227 295h184l156 -203l155 203h180zM379 1274v-1096h254q268 0 437 146t169 405q0 258 -168 401t-438 144h-254zM176 0v1450h498q298 0 528 -168q114 -84 184 -228t70 -326t-70 -324q-70 -144 -184 -229q-234 -175 -528 -175h-498z" />
    <glyph glyph-name="dcaron" unicode="&#x10f;" horiz-adv-x="1427" 
d="M1522 1450l-160 -389h-162l131 389h191zM301 487q0 -145 85 -248q84 -103 232 -103t240 102q92 104 92 247t-92 247t-240 106q-148 0 -232 -103q-85 -103 -85 -248zM590 -27q-219 -1 -354 147t-136 367q0 219 136 365t352 145q113 0 202 -48t144 -124h4v723h192v-1548
h-186v154h-4q-53 -86 -148 -134t-202 -47z" />
    <glyph glyph-name="Dcroat" unicode="&#x110;" horiz-adv-x="1558" 
d="M373 686v-502h239q285 0 451 148t166 394q0 247 -158 393t-438 147h-260v-437h485v-143h-485zM168 0v686h-141v143h141v621h528q293 0 513 -179q109 -87 173 -229t64 -317q0 -176 -69 -318q-125 -256 -427 -361q-133 -46 -270 -46h-512z" />
    <glyph glyph-name="dcroat" unicode="&#x111;" horiz-adv-x="1300" 
d="M301 487q0 -145 85 -248q84 -103 232 -103t240 102q92 104 92 247t-92 247t-240 106q-148 0 -232 -103q-85 -103 -85 -248zM604 1296h334v252h192v-252h115v-129h-115v-1167h-186v154h-4q-53 -86 -148 -134t-202 -47q-219 -1 -354 147t-136 367q0 219 136 365t352 145
q113 0 202 -48t144 -124h4v342h-334v129z" />
    <glyph glyph-name="Emacron" unicode="&#x112;" horiz-adv-x="1230" 
d="M946 1769v-137h-606v137h606zM379 664v-484h758v-180h-961v1450h930v-178h-727v-434h684v-174h-684z" />
    <glyph glyph-name="emacron" unicode="&#x113;" horiz-adv-x="1173" 
d="M909 1360v-137h-606v137h606zM1071 494q0 -43 -2 -66h-770q4 -125 96 -210t219 -85q182 0 283 148l135 -109q-154 -199 -418 -199q-223 -1 -367 141q-145 142 -145 368t144 370t358 145q215 0 341 -136t126 -367zM607 846q-126 0 -212 -80t-96 -195h578q-4 121 -74 198
t-196 77z" />
    <glyph glyph-name="Ebreve" unicode="&#x114;" horiz-adv-x="1230" 
d="M648 1577q-140 0 -228 73t-96 210h114q12 -74 70 -111t141 -37q180 1 213 148h113q-12 -137 -99 -210q-88 -73 -228 -73zM379 664v-484h758v-180h-961v1450h930v-178h-727v-434h684v-174h-684z" />
    <glyph glyph-name="ebreve" unicode="&#x115;" horiz-adv-x="1173" 
d="M612 1167q-140 0 -229 73q-88 73 -96 210h114q13 -74 71 -111t140 -36q180 0 213 147h113q-12 -137 -99 -210t-227 -73zM1071 494q0 -43 -2 -66h-770q4 -125 96 -210t219 -85q182 0 283 148l135 -109q-154 -199 -418 -199q-223 -1 -367 141q-145 142 -145 368t144 370
t358 145q215 0 341 -136t126 -367zM607 846q-126 0 -212 -80t-96 -195h578q-4 121 -74 198t-196 77z" />
    <glyph glyph-name="Edotaccent" unicode="&#x116;" horiz-adv-x="1230" 
d="M772 1732q0 -52 -38 -88t-91 -36t-90 36t-37 87t37 88t90 37t91 -36t38 -88zM379 664v-484h758v-180h-961v1450h930v-178h-727v-434h684v-174h-684z" />
    <glyph glyph-name="edotaccent" unicode="&#x117;" horiz-adv-x="1173" 
d="M735 1322q0 -52 -38 -88t-91 -36t-90 36t-37 87t37 88t90 37t91 -36t38 -88zM1071 494q0 -43 -2 -66h-770q4 -125 96 -210t219 -85q182 0 283 148l135 -109q-154 -199 -418 -199q-223 -1 -367 141q-145 142 -145 368t144 370t358 145q215 0 341 -136t126 -367zM607 846
q-126 0 -212 -80t-96 -195h578q-4 121 -74 198t-196 77z" />
    <glyph glyph-name="Eogonek" unicode="&#x118;" horiz-adv-x="1230" 
d="M1026 -463q-92 0 -152 49q-59 49 -59 129q0 137 178 285h-817v1450h930v-178h-727v-434h684v-174h-684v-484h758v-180h-31q-150 -145 -150 -244q0 -40 29 -68t79 -28t99 45l45 -92q-90 -76 -182 -76z" />
    <glyph glyph-name="eogonek" unicode="&#x119;" horiz-adv-x="1173" 
d="M607 846q-126 0 -212 -80t-96 -195h578q-4 121 -74 198t-196 77zM637 -463q-92 0 -152 49q-59 49 -59 129q0 127 149 260q-209 11 -341 151t-132 361t144 365t358 145q215 0 341 -136t126 -367q0 -43 -2 -66h-770q4 -125 96 -210t219 -85q182 0 283 148l135 -109
q-131 -168 -336 -192q-129 -133 -129 -224q0 -40 29 -68t79 -28t99 45l45 -92q-90 -76 -182 -76z" />
    <glyph glyph-name="Ecaron" unicode="&#x11a;" horiz-adv-x="1230" 
d="M987 1860l-229 -295h-219l-228 295h185l155 -203l156 203h180zM379 664v-484h758v-180h-961v1450h930v-178h-727v-434h684v-174h-684z" />
    <glyph glyph-name="ecaron" unicode="&#x11b;" horiz-adv-x="1173" 
d="M944 1450l-229 -295h-219l-228 295h185l155 -203l156 203h180zM1071 494q0 -43 -2 -66h-770q4 -125 96 -210t219 -85q182 0 283 148l135 -109q-154 -199 -418 -199q-223 -1 -367 141q-145 142 -145 368t144 370t358 145q215 0 341 -136t126 -367zM607 846
q-126 0 -212 -80t-96 -195h578q-4 121 -74 198t-196 77z" />
    <glyph glyph-name="Gcircumflex" unicode="&#x11c;" horiz-adv-x="1593" 
d="M985 1860l229 -295h-186l-154 202l-155 -202h-184l229 295h221zM878 1309q-249 0 -402 -168q-152 -168 -152 -416t152 -414t407 -166q205 0 338 72v404h-322v172h522v-703q-236 -127 -560 -127t-542 214q-217 214 -217 550t220 548q220 211 556 211q338 0 533 -188
l-141 -147q-143 158 -392 158z" />
    <glyph glyph-name="gcircumflex" unicode="&#x11d;" horiz-adv-x="1294" 
d="M745 1450l230 -295h-187l-153 203l-156 -203h-184l229 295h221zM301 498q0 -144 88 -244q89 -100 235 -100t237 97t91 241t-93 245t-238 101t-233 -98t-87 -242zM596 -324q342 0 342 359v125h-4q-54 -80 -146 -124t-196 -44q-219 0 -354 143q-136 143 -136 357t136 360
q136 145 352 145q109 0 203 -47t147 -135h4v156h186v-922q0 -226 -121 -382q-121 -157 -415 -159q-127 0 -256 48t-219 129l123 149q63 -72 159 -115t195 -43z" />
    <glyph glyph-name="Gbreve" unicode="&#x11e;" horiz-adv-x="1593" 
d="M874 1577q-140 0 -229 73q-88 73 -96 210h115q12 -74 70 -111t140 -37q180 1 213 148h113q-12 -137 -99 -210t-227 -73zM878 1309q-249 0 -402 -168q-152 -168 -152 -416t152 -414t407 -166q205 0 338 72v404h-322v172h522v-703q-236 -127 -560 -127t-542 214
q-217 214 -217 550t220 548q220 211 556 211q338 0 533 -188l-141 -147q-143 158 -392 158z" />
    <glyph glyph-name="gbreve" unicode="&#x11f;" horiz-adv-x="1294" 
d="M626 1167q-140 0 -229 73q-88 73 -96 210h115q12 -74 70 -111t141 -36q180 0 213 147h112q-12 -137 -99 -210t-227 -73zM301 498q0 -144 88 -244q89 -100 235 -100t237 97t91 241t-93 245t-238 101t-233 -98t-87 -242zM596 -324q342 0 342 359v125h-4q-54 -80 -146 -124
t-196 -44q-219 0 -354 143q-136 143 -136 357t136 360q136 145 352 145q109 0 203 -47t147 -135h4v156h186v-922q0 -226 -121 -382q-121 -157 -415 -159q-127 0 -256 48t-219 129l123 149q63 -72 159 -115t195 -43z" />
    <glyph glyph-name="Gdotaccent" unicode="&#x120;" horiz-adv-x="1593" 
d="M1001 1732q1 -52 -37 -88t-92 -36t-90 36q-37 36 -37 87t37 88t90 37t92 -36q37 -36 37 -88zM878 1309q-249 0 -402 -168q-152 -168 -152 -416t152 -414t407 -166q205 0 338 72v404h-322v172h522v-703q-236 -127 -560 -127t-542 214q-217 214 -217 550t220 548
q220 211 556 211q338 0 533 -188l-141 -147q-143 158 -392 158z" />
    <glyph glyph-name="gdotaccent" unicode="&#x121;" horiz-adv-x="1294" 
d="M778 1322q0 -52 -38 -88t-91 -36t-90 36t-37 87t37 88t90 37t91 -36t38 -88zM301 498q0 -144 88 -244q89 -100 235 -100t237 97t91 241t-93 245t-238 101t-233 -98t-87 -242zM596 -324q342 0 342 359v125h-4q-54 -80 -146 -124t-196 -44q-219 0 -354 143
q-136 143 -136 357t136 360q136 145 352 145q109 0 203 -47t147 -135h4v156h186v-922q0 -226 -121 -382q-121 -157 -415 -159q-127 0 -256 48t-219 129l123 149q63 -72 159 -115t195 -43z" />
    <glyph glyph-name="Gcommaaccent" unicode="&#x122;" horiz-adv-x="1593" 
d="M1004 -92l-160 -389h-162l131 389h191zM878 1309q-249 0 -402 -168q-152 -168 -152 -416t152 -414t407 -166q205 0 338 72v404h-322v172h522v-703q-236 -127 -560 -127t-542 214q-217 214 -217 550t220 548q220 211 556 211q338 0 533 -188l-141 -147q-143 158 -392 158z
" />
    <glyph glyph-name="gcommaaccent" unicode="&#x123;" horiz-adv-x="1294" 
d="M557 1155l160 389h162l-131 -389h-191zM301 498q0 -144 88 -244q89 -100 235 -100t237 97t91 241t-93 245t-238 101t-233 -98t-87 -242zM596 -324q342 0 342 359v125h-4q-54 -80 -146 -124t-196 -44q-219 0 -354 143q-136 143 -136 357t136 360q136 145 352 145
q109 0 203 -47t147 -135h4v156h186v-922q0 -226 -121 -382q-121 -157 -415 -159q-127 0 -256 48t-219 129l123 149q63 -72 159 -115t195 -43z" />
    <glyph glyph-name="Hcircumflex" unicode="&#x124;" horiz-adv-x="1492" 
d="M856 1860l229 -295h-186l-154 202l-155 -202h-184l229 295h221zM176 0v1450h203v-606h733v606h205v-1450h-205v664h-733v-664h-203z" />
    <glyph glyph-name="hcircumflex" unicode="&#x125;" horiz-adv-x="1196" 
d="M715 1925l229 -295h-186l-154 203l-155 -203h-185l230 295h221zM362 823h5q35 74 119 124q85 50 188 50q178 -1 270 -111t92 -284v-602h-192v537q0 297 -219 297q-115 0 -189 -88t-74 -232v-514h-192v1548h192v-725z" />
    <glyph glyph-name="Hbar" unicode="&#x126;" horiz-adv-x="1492" 
d="M379 844h733v180h-733v-180zM176 0v1450h203v-297h733v297h205v-1450h-205v664h-733v-664h-203z" />
    <glyph glyph-name="hbar" unicode="&#x127;" horiz-adv-x="1196" 
d="M59 1296h111v252h192v-252h336v-129h-336v-344h5q35 74 119 124q85 50 188 50q178 1 271 -111t93 -284v-602h-194v537q0 297 -219 297q-115 0 -189 -88t-74 -232v-514h-192v1167h-111v129z" />
    <glyph glyph-name="Itilde" unicode="&#x128;" horiz-adv-x="555" 
d="M131 1819q68 0 160 -43t131 -43q70 0 98 94h111q-41 -238 -209 -238q-63 0 -158 43q-86 43 -133 43q-71 0 -96 -94h-113q41 238 209 238zM379 1450v-1450h-203v1450h203z" />
    <glyph glyph-name="itilde" unicode="&#x129;" horiz-adv-x="530" 
d="M123 1409q67 0 159 -43t132 -43q70 0 98 94h111q-41 -238 -209 -237q-63 0 -158 43q-86 43 -133 43q-71 -1 -96 -95h-113q41 238 209 238zM360 971v-971h-192v971h192z" />
    <glyph glyph-name="Imacron" unicode="&#x12a;" horiz-adv-x="555" 
d="M578 1769v-137h-607v137h607zM379 1450v-1450h-203v1450h203z" />
    <glyph glyph-name="imacron" unicode="&#x12b;" horiz-adv-x="530" 
d="M569 1360v-137h-606v137h606zM360 971v-971h-192v971h192z" />
    <glyph glyph-name="Iogonek" unicode="&#x12e;" horiz-adv-x="555" 
d="M282 -463q-92 0 -151 49t-59 129q0 137 178 285h-74v1450h203v-1450h-17q-150 -145 -149 -244q0 -40 29 -68t79 -28t99 45l45 -92q-91 -76 -183 -76z" />
    <glyph glyph-name="iogonek" unicode="&#x12f;" horiz-adv-x="530" 
d="M393 1322q0 -52 -38 -88t-91 -36t-90 36t-37 87t37 88t90 37t91 -36t38 -88zM258 -463q-92 0 -152 49q-59 49 -59 129q0 137 178 285h-57v971h192v-971h-22q-150 -145 -150 -244q0 -40 29 -68t79 -28t99 45l45 -92q-90 -76 -182 -76z" />
    <glyph glyph-name="Idotaccent" unicode="&#x130;" horiz-adv-x="555" 
d="M410 1732q0 -52 -38 -88t-91 -36t-91 36q-37 36 -36 87q0 51 36 88t90 37t92 -36t38 -88zM379 1450v-1450h-203v1450h203z" />
    <glyph glyph-name="dotlessi" unicode="&#x131;" horiz-adv-x="530" 
d="M360 971v-971h-192v971h192z" />
    <glyph glyph-name="Jcircumflex" unicode="&#x134;" horiz-adv-x="1013" 
d="M858 1860l229 -295h-186l-153 202l-156 -202h-184l229 295h221zM647 453v997h203v-1006q0 -140 -38 -231t-82 -139t-119 -79q-75 -32 -173 -32q-162 0 -268 84t-139 223l188 54q17 -80 73 -130t136 -51q219 0 219 310z" />
    <glyph glyph-name="jcircumflex" unicode="&#x135;" horiz-adv-x="532" 
d="M373 1450l229 -295h-186l-154 203l-156 -203h-184l230 295h221zM170 -119v1090h192v-1096q0 -367 -315 -367q-49 1 -110 13l20 164q41 -10 78 -11q79 0 107 54t28 153z" />
    <glyph glyph-name="Kcommaaccent" unicode="&#x136;" horiz-adv-x="1349" 
d="M819 -92l-160 -389h-161l131 389h190zM379 1450v-639h4l647 639h281l-705 -664l748 -786h-291l-680 750h-4v-750h-203v1450h203z" />
    <glyph glyph-name="kcommaaccent" unicode="&#x137;" horiz-adv-x="1079" 
d="M682 -92l-160 -389h-162l132 389h190zM362 1548v-999h7l407 422h258l-454 -441l493 -530h-266l-438 504h-7v-504h-192v1548h192z" />
    <glyph glyph-name="Lacute" unicode="&#x139;" horiz-adv-x="1046" 
d="M621 1860l-281 -295h-156l203 295h234zM379 1450v-1270h647v-180h-850v1450h203z" />
    <glyph glyph-name="lacute" unicode="&#x13a;" horiz-adv-x="532" 
d="M606 1917l-278 -295h-158l205 295h231zM362 1548v-1548h-192v1548h192z" />
    <glyph glyph-name="Lcommaaccent" unicode="&#x13b;" horiz-adv-x="1046" 
d="M727 -92l-160 -389h-161l131 389h190zM379 1450v-1270h647v-180h-850v1450h203z" />
    <glyph glyph-name="lcommaaccent" unicode="&#x13c;" horiz-adv-x="532" 
d="M395 -92l-159 -389h-162l131 389h190zM362 1548v-1548h-192v1548h192z" />
    <glyph glyph-name="Lcaron" unicode="&#x13d;" horiz-adv-x="1046" 
d="M791 1450l-160 -389h-162l131 389h191zM379 1450v-1270h647v-180h-850v1450h203z" />
    <glyph glyph-name="lcaron" unicode="&#x13e;" horiz-adv-x="661" 
d="M756 1450l-160 -389h-162l131 389h191zM362 1548v-1548h-192v1548h192z" />
    <glyph glyph-name="Ldot" unicode="&#x13f;" horiz-adv-x="1046" 
d="M842 871q0 -52 -38 -88q-38 -35 -91 -35t-90 36t-37 86q0 51 37 88t90 37t91 -36t38 -88zM379 1450v-1270h647v-180h-850v1450h203z" />
    <glyph glyph-name="ldot" unicode="&#x140;" horiz-adv-x="716" 
d="M717 933q0 -52 -38 -88t-91 -36t-90 36t-37 87t37 88t90 37t91 -36t38 -88zM362 1548v-1548h-192v1548h192z" />
    <glyph glyph-name="Lslash" unicode="&#x141;" horiz-adv-x="1046" 
d="M379 1450v-662l432 377v-184l-432 -377v-424h647v-180h-850v453l-156 -136v187l156 133v813h203z" />
    <glyph glyph-name="lslash" unicode="&#x142;" horiz-adv-x="532" 
d="M360 1548v-565l154 156v-185l-154 -153v-801h-190v643l-154 -156v189l154 153v719h190z" />
    <glyph glyph-name="Nacute" unicode="&#x143;" horiz-adv-x="1581" 
d="M1081 1860l-280 -295h-156l203 295h233zM1202 291v1159h203v-1450h-256l-766 1184h-4v-1184h-203v1450h264l758 -1159h4z" />
    <glyph glyph-name="nacute" unicode="&#x144;" horiz-adv-x="1191" 
d="M913 1450l-278 -295h-158l205 295h231zM348 811h6q37 80 125 133t191 53q178 -1 270 -111t92 -284v-602h-192v539q0 297 -222 297q-116 0 -188 -88t-72 -232v-516h-192v762q0 125 -8 209h182q8 -98 8 -160z" />
    <glyph glyph-name="Ncommaaccent" unicode="&#x145;" horiz-adv-x="1581" 
d="M932 -92l-160 -389h-162l131 389h191zM1202 291v1159h203v-1450h-256l-766 1184h-4v-1184h-203v1450h264l758 -1159h4z" />
    <glyph glyph-name="ncommaaccent" unicode="&#x146;" horiz-adv-x="1191" 
d="M727 -92l-160 -389h-161l131 389h190zM348 811h6q37 80 125 133t191 53q178 -1 270 -111t92 -284v-602h-192v539q0 297 -222 297q-116 0 -188 -88t-72 -232v-516h-192v762q0 125 -8 209h182q8 -98 8 -160z" />
    <glyph glyph-name="Ncaron" unicode="&#x147;" horiz-adv-x="1581" 
d="M1135 1860l-230 -295h-219l-227 295h184l156 -203l155 203h181zM1202 291v1159h203v-1450h-256l-766 1184h-4v-1184h-203v1450h264l758 -1159h4z" />
    <glyph glyph-name="ncaron" unicode="&#x148;" horiz-adv-x="1191" 
d="M936 1450l-229 -295h-220l-227 295h184l156 -203l156 203h180zM348 811h6q37 80 125 133t191 53q178 -1 270 -111t92 -284v-602h-192v539q0 297 -222 297q-116 0 -188 -88t-72 -232v-516h-192v762q0 125 -8 209h182q8 -98 8 -160z" />
    <glyph glyph-name="Omacron" unicode="&#x14c;" horiz-adv-x="1738" 
d="M1174 1769v-137h-607v137h607zM1419 726q0 247 -151 415q-152 168 -398 168t-398 -168t-150 -415q0 -247 152 -414t396 -167q246 0 398 167q151 167 151 414zM1638 728q0 -335 -218 -550t-551 -215t-550 215t-217 550t216 547t550 212t552 -212t218 -547z" />
    <glyph glyph-name="omacron" unicode="&#x14d;" horiz-adv-x="1249" 
d="M930 1360v-137h-606v137h606zM948 487q0 145 -87 247t-237 104q-150 0 -236 -102q-87 -102 -87 -248t87 -249t237 -103q151 0 237 102q86 104 86 249zM1149 487q0 -223 -151 -368q-152 -145 -374 -145t-372 144q-150 146 -150 369t148 367t374 143q226 1 376 -143
t149 -367z" />
    <glyph glyph-name="Obreve" unicode="&#x14e;" horiz-adv-x="1738" 
d="M868 1577q-140 0 -229 73q-88 73 -96 210h114q13 -74 71 -111t140 -37q180 1 213 148h113q-12 -137 -99 -210t-227 -73zM1419 726q0 247 -151 415q-152 168 -398 168t-398 -168t-150 -415q0 -247 152 -414t396 -167q246 0 398 167q151 167 151 414zM1638 728
q0 -335 -218 -550t-551 -215t-550 215t-217 550t216 547t550 212t552 -212t218 -547z" />
    <glyph glyph-name="obreve" unicode="&#x14f;" horiz-adv-x="1249" 
d="M626 1167q-140 0 -229 73q-88 73 -96 210h115q12 -74 70 -111t141 -36q180 0 213 147h112q-12 -137 -99 -210t-227 -73zM948 487q0 145 -87 247t-237 104q-150 0 -236 -102q-87 -102 -87 -248t87 -249t237 -103q151 0 237 102q86 104 86 249zM1149 487q0 -223 -151 -368
q-152 -145 -374 -145t-372 144q-150 146 -150 369t148 367t374 143q226 1 376 -143t149 -367z" />
    <glyph glyph-name="Ohungarumlaut" unicode="&#x150;" horiz-adv-x="1738" 
d="M1397 1860l-279 -295h-157l204 295h232zM1024 1860l-281 -295h-157l205 295h233zM1419 726q0 247 -151 415q-152 168 -398 168t-398 -168t-150 -415q0 -247 152 -414t396 -167q246 0 398 167q151 167 151 414zM1638 728q0 -335 -218 -550t-551 -215t-550 215t-217 550
t216 547t550 212t552 -212t218 -547z" />
    <glyph glyph-name="ohungarumlaut" unicode="&#x151;" horiz-adv-x="1249" 
d="M1163 1450l-278 -295h-158l205 295h231zM791 1450l-281 -295h-158l205 295h234zM948 487q0 145 -87 247t-237 104q-150 0 -236 -102q-87 -102 -87 -248t87 -249t237 -103q151 0 237 102q86 104 86 249zM1149 487q0 -223 -151 -368q-152 -145 -374 -145t-372 144
q-150 146 -150 369t148 367t374 143q226 1 376 -143t149 -367z" />
    <glyph glyph-name="OE" unicode="&#x152;" horiz-adv-x="2054" 
d="M926 1272q-272 0 -440 -142t-167 -401q0 -258 169 -403t438 -146h123v1092h-123zM885 1450h1044v-178h-678v-434h635v-174h-635v-484h709v-180h-1075q-295 0 -530 175q-114 85 -183 228q-70 143 -70 325t70 326q125 258 433 354q135 42 280 42z" />
    <glyph glyph-name="oe" unicode="&#x153;" horiz-adv-x="1996" 
d="M1432 846q-126 0 -212 -80t-96 -195h580q-4 121 -75 198t-197 77zM948 487q0 145 -87 247t-237 104q-150 0 -237 -102q-88 -102 -88 -248t88 -249t238 -103q151 0 237 102q86 104 86 249zM1430 997q217 0 342 -136t124 -367q0 -43 -2 -66h-772q8 -125 100 -210t218 -85
q186 0 282 148l133 -109q-154 -199 -417 -199q-132 -1 -238 55t-170 154q-63 -96 -171 -152t-241 -57q-223 -1 -369 145t-147 369q0 223 146 367t370 143q133 0 242 -56t172 -155q66 96 168 154t230 57z" />
    <glyph glyph-name="Racute" unicode="&#x154;" horiz-adv-x="1257" 
d="M891 1860l-281 -295h-155l202 295h234zM379 1278v-463h233q340 0 340 234q0 229 -325 229h-248zM379 645v-645h-203v1450h465q229 0 373 -96t143 -305q0 -156 -96 -256t-256 -127l405 -666h-245l-369 645h-217z" />
    <glyph glyph-name="racute" unicode="&#x155;" horiz-adv-x="741" 
d="M649 1450l-278 -295h-158l205 295h231zM166 762q0 125 -8 209h182q8 -98 8 -164h6q41 86 121 138t176 52q45 0 76 -8l-8 -178q-41 10 -88 10q-131 0 -202 -90t-71 -221v-510h-192v762z" />
    <glyph glyph-name="Rcommaaccent" unicode="&#x156;" horiz-adv-x="1257" 
d="M776 -92l-160 -389h-161l131 389h190zM379 1278v-463h233q340 0 340 234q0 229 -325 229h-248zM379 645v-645h-203v1450h465q229 0 373 -96t143 -305q0 -156 -96 -256t-256 -127l405 -666h-245l-369 645h-217z" />
    <glyph glyph-name="rcommaaccent" unicode="&#x157;" horiz-adv-x="741" 
d="M393 -92l-160 -389h-161l131 389h190zM166 762q0 125 -8 209h182q8 -98 8 -164h6q41 86 121 138t176 52q45 0 76 -8l-8 -178q-41 10 -88 10q-131 0 -202 -90t-71 -221v-510h-192v762z" />
    <glyph glyph-name="Rcaron" unicode="&#x158;" horiz-adv-x="1257" 
d="M940 1860l-229 -295h-219l-228 295h185l155 -203l156 203h180zM379 1278v-463h233q340 0 340 234q0 229 -325 229h-248zM379 645v-645h-203v1450h465q229 0 373 -96t143 -305q0 -156 -96 -256t-256 -127l405 -666h-245l-369 645h-217z" />
    <glyph glyph-name="rcaron" unicode="&#x159;" horiz-adv-x="741" 
d="M774 1450l-229 -295h-219l-228 295h185l155 -203l156 203h180zM166 762q0 125 -8 209h182q8 -98 8 -164h6q41 86 121 138t176 52q45 0 76 -8l-8 -178q-41 10 -88 10q-131 0 -202 -90t-71 -221v-510h-192v762z" />
    <glyph glyph-name="Sacute" unicode="&#x15a;" horiz-adv-x="1165" 
d="M907 1860l-280 -295h-156l203 295h233zM602 1317q-100 -1 -184 -61q-86 -60 -86 -174t90 -168q49 -30 88 -45t119 -41t122 -41q41 -15 109 -52t104 -77q91 -101 91 -255q-1 -213 -147 -327t-355 -113q-141 0 -269 54t-208 157l157 133q51 -76 139 -123t194 -47t194 65
t88 170t-60 165t-284 129q-82 26 -138 52q-157 71 -208 189q-31 72 -31 166q0 137 76 235q140 180 422 179q125 0 236 -45t179 -121l-143 -139q-100 135 -295 135z" />
    <glyph glyph-name="sacute" unicode="&#x15b;" horiz-adv-x="909" 
d="M762 1450l-279 -295h-157l204 295h232zM464 846q-73 0 -126 -32t-53 -92t51 -91t170 -58q326 -72 325 -286q1 -160 -111 -237t-252 -77q-275 0 -415 174l137 117q39 -59 110 -97t151 -38t135 34t55 102q0 67 -58 101q-57 34 -155 57t-141 39t-88 47q-95 63 -95 201
q0 136 108 212t259 75q105 1 203 -41t149 -118l-133 -113q-33 53 -93 87t-133 34z" />
    <glyph glyph-name="Scircumflex" unicode="&#x15c;" horiz-adv-x="1165" 
d="M731 1860l230 -295h-187l-153 202l-156 -202h-184l229 295h221zM602 1317q-100 -1 -184 -61q-86 -60 -86 -174t90 -168q49 -30 88 -45t119 -41t122 -41q41 -15 109 -52t104 -77q91 -101 91 -255q-1 -213 -147 -327t-355 -113q-141 0 -269 54t-208 157l157 133
q51 -76 139 -123t194 -47t194 65t88 170t-60 165t-284 129q-82 26 -138 52q-157 71 -208 189q-31 72 -31 166q0 137 76 235q140 180 422 179q125 0 236 -45t179 -121l-143 -139q-100 135 -295 135z" />
    <glyph glyph-name="scircumflex" unicode="&#x15d;" horiz-adv-x="909" 
d="M588 1450l229 -295h-186l-154 203l-155 -203h-185l230 295h221zM464 846q-73 0 -126 -32t-53 -92t51 -91t170 -58q326 -72 325 -286q1 -160 -111 -237t-252 -77q-275 0 -415 174l137 117q39 -59 110 -97t151 -38t135 34t55 102q0 67 -58 101q-57 34 -155 57t-141 39
t-88 47q-95 63 -95 201q0 136 108 212t259 75q105 1 203 -41t149 -118l-133 -113q-33 53 -93 87t-133 34z" />
    <glyph glyph-name="Scedilla" unicode="&#x15e;" horiz-adv-x="1165" 
d="M602 1317q-100 -1 -184 -61q-86 -60 -86 -174t90 -168q49 -30 88 -45t119 -41t122 -41q41 -15 109 -52t104 -77q91 -101 91 -255q0 -193 -119 -305t-303 -131l-72 -108q19 4 77 4t114 -38t57 -129q0 -91 -78 -134q-79 -43 -189 -43t-204 47l41 86q75 -35 139 -35
q144 0 144 86q0 78 -111 78q-37 0 -84 -14l-41 40l102 156q-135 3 -256 59t-196 152l157 133q51 -76 139 -123t194 -47t194 65t88 170t-60 165t-284 129q-82 26 -138 52q-157 71 -208 189q-31 72 -31 166q0 137 76 235q140 180 422 179q125 0 236 -45t179 -121l-143 -139
q-100 135 -295 135z" />
    <glyph glyph-name="scedilla" unicode="&#x15f;" horiz-adv-x="909" 
d="M464 846q-73 0 -126 -32t-53 -92t51 -91t170 -58q326 -72 325 -286q0 -147 -95 -223t-240 -89l-78 -116q18 4 76 4t115 -38t57 -129t-78 -134t-188 -43t-205 47l41 86q76 -35 139 -35q143 0 143 86q0 78 -110 78q-37 0 -84 -14l-41 40l110 170q-219 16 -340 170l137 117
q39 -59 110 -97t151 -38t135 34t55 102q0 67 -58 101q-57 34 -155 57t-141 39t-88 47q-95 63 -95 201q0 136 108 212t259 75q105 1 203 -41t149 -118l-133 -113q-33 53 -93 87t-133 34z" />
    <glyph glyph-name="Scaron" unicode="&#x160;" horiz-adv-x="1165" 
d="M948 1860l-229 -295h-219l-228 295h185l155 -203l156 203h180zM602 1317q-100 -1 -184 -61q-86 -60 -86 -174t90 -168q49 -30 88 -45t119 -41t122 -41q41 -15 109 -52t104 -77q91 -101 91 -255q-1 -213 -147 -327t-355 -113q-141 0 -269 54t-208 157l157 133
q51 -76 139 -123t194 -47t194 65t88 170t-60 165t-284 129q-82 26 -138 52q-157 71 -208 189q-31 72 -31 166q0 137 76 235q140 180 422 179q125 0 236 -45t179 -121l-143 -139q-100 135 -295 135z" />
    <glyph glyph-name="scaron" unicode="&#x161;" horiz-adv-x="909" 
d="M811 1450l-229 -295h-220l-227 295h184l156 -203l156 203h180zM464 846q-73 0 -126 -32t-53 -92t51 -91t170 -58q326 -72 325 -286q1 -160 -111 -237t-252 -77q-275 0 -415 174l137 117q39 -59 110 -97t151 -38t135 34t55 102q0 67 -58 101q-57 34 -155 57t-141 39
t-88 47q-95 63 -95 201q0 136 108 212t259 75q105 1 203 -41t149 -118l-133 -113q-33 53 -93 87t-133 34z" />
    <glyph glyph-name="Tcommaaccent" unicode="&#x162;" horiz-adv-x="1165" 
d="M711 -92l-160 -389h-162l131 389h191zM684 1272v-1272h-203v1272h-465v178h1133v-178h-465z" />
    <glyph glyph-name="tcommaaccent" unicode="&#x163;" horiz-adv-x="673" 
d="M535 -92l-160 -389h-162l131 389h191zM641 971v-158h-258v-506q0 -88 33 -126t100 -38t117 25l6 -158q-74 -27 -164 -26q-137 0 -210 76t-72 227v526h-187v158h187v278h190v-278h258z" />
    <glyph glyph-name="Tcaron" unicode="&#x164;" horiz-adv-x="1165" 
d="M918 1860l-230 -295h-219l-227 295h184l156 -203l155 203h181zM684 1272v-1272h-203v1272h-465v178h1133v-178h-465z" />
    <glyph glyph-name="tcaron" unicode="&#x165;" horiz-adv-x="700" 
d="M768 1497l-160 -389h-162l132 389h190zM641 971v-158h-258v-506q0 -88 33 -126t100 -38t117 25l6 -158q-74 -27 -164 -26q-137 0 -210 76t-72 227v526h-187v158h187v278h190v-278h258z" />
    <glyph glyph-name="Tbar" unicode="&#x166;" horiz-adv-x="1165" 
d="M147 1075h334v197h-465v178h1133v-178h-465v-197h334v-129h-334v-946h-203v946h-334v129z" />
    <glyph glyph-name="tbar" unicode="&#x167;" horiz-adv-x="673" 
d="M25 623h168v190h-187v158h187v278h190v-278h258v-158h-258v-190h229v-129h-229v-187q0 -88 33 -126t100 -38t117 25l6 -158q-74 -27 -164 -26q-137 0 -210 76t-72 227v207h-168v129z" />
    <glyph glyph-name="Utilde" unicode="&#x168;" horiz-adv-x="1458" 
d="M575 1819q68 0 160 -43t131 -43q70 0 99 94h110q-41 -238 -209 -238q-63 0 -153 43t-138 43q-71 0 -96 -94h-112q41 238 208 238zM729 -37q-272 0 -418 167q-145 167 -145 407v913h203v-901q0 -170 87 -287t273 -117t273 117t88 287v901h202v-913q0 -240 -146 -407
t-417 -167z" />
    <glyph glyph-name="utilde" unicode="&#x169;" horiz-adv-x="1191" 
d="M446 1409q68 0 160 -43t131 -43q70 0 99 94h110q-41 -238 -209 -237q-63 0 -153 43t-138 43q-71 -1 -96 -95h-112q41 238 208 238zM842 160h-4q-39 -80 -127 -133t-191 -54q-178 0 -270 111t-92 285v602h192v-537q0 -299 221 -299q117 0 189 88t71 232v516h193v-762
q0 -125 8 -209h-182q-8 98 -8 160z" />
    <glyph glyph-name="Umacron" unicode="&#x16a;" horiz-adv-x="1458" 
d="M1024 1769v-137h-606v137h606zM729 -37q-272 0 -418 167q-145 167 -145 407v913h203v-901q0 -170 87 -287t273 -117t273 117t88 287v901h202v-913q0 -240 -146 -407t-417 -167z" />
    <glyph glyph-name="umacron" unicode="&#x16b;" horiz-adv-x="1191" 
d="M895 1360v-137h-606v137h606zM842 160h-4q-39 -80 -127 -133t-191 -54q-178 0 -270 111t-92 285v602h192v-537q0 -299 221 -299q117 0 189 88t71 232v516h193v-762q0 -125 8 -209h-182q-8 98 -8 160z" />
    <glyph glyph-name="Ubreve" unicode="&#x16c;" horiz-adv-x="1458" 
d="M730 1577q-140 0 -228 73t-96 210h114q12 -74 70 -111t141 -37q180 1 213 148h113q-11 -137 -99 -210t-228 -73zM729 -37q-272 0 -418 167q-145 167 -145 407v913h203v-901q0 -170 87 -287t273 -117t273 117t88 287v901h202v-913q0 -240 -146 -407t-417 -167z" />
    <glyph glyph-name="ubreve" unicode="&#x16d;" horiz-adv-x="1191" 
d="M593 1167q-140 0 -228 73t-97 210h115q13 -74 71 -111t140 -36q180 0 213 147h113q-12 -137 -100 -210t-227 -73zM842 160h-4q-39 -80 -127 -133t-191 -54q-178 0 -270 111t-92 285v602h192v-537q0 -299 221 -299q117 0 189 88t71 232v516h193v-762q0 -125 8 -209h-182
q-8 98 -8 160z" />
    <glyph glyph-name="Uring" unicode="&#x16e;" horiz-adv-x="1458" 
d="M844 1747q0 51 -36 85t-87 34t-86 -35t-35 -85t35 -84t86 -34t87 34t36 85zM928 1747q0 -86 -60 -144q-60 -59 -147 -59q-85 0 -145 58t-60 143q0 86 59 144q59 59 145 59t148 -58q60 -58 60 -143zM729 -37q-272 0 -418 167q-145 167 -145 407v913h203v-901
q0 -170 87 -287t273 -117t273 117t88 287v901h202v-913q0 -240 -146 -407t-417 -167z" />
    <glyph glyph-name="uring" unicode="&#x16f;" horiz-adv-x="1191" 
d="M711 1337q0 49 -36 82t-85 33t-84 -33t-35 -82t35 -83t84 -34t85 34t36 83zM797 1337q-1 -86 -61 -144t-146 -58t-146 57q-59 57 -59 143q0 87 59 145q60 58 146 58t146 -58t61 -143zM842 160h-4q-39 -80 -127 -133t-191 -54q-178 0 -270 111t-92 285v602h192v-537
q0 -299 221 -299q117 0 189 88t71 232v516h193v-762q0 -125 8 -209h-182q-8 98 -8 160z" />
    <glyph glyph-name="Uhungarumlaut" unicode="&#x170;" horiz-adv-x="1458" 
d="M1249 1860l-278 -295h-158l205 295h231zM877 1860l-281 -295h-158l205 295h234zM729 -37q-272 0 -418 167q-145 167 -145 407v913h203v-901q0 -170 87 -287t273 -117t273 117t88 287v901h202v-913q0 -240 -146 -407t-417 -167z" />
    <glyph glyph-name="uhungarumlaut" unicode="&#x171;" horiz-adv-x="1191" 
d="M1126 1450l-278 -295h-158l205 295h231zM754 1450l-281 -295h-158l205 295h234zM842 160h-4q-39 -80 -127 -133t-191 -54q-178 0 -270 111t-92 285v602h192v-537q0 -299 221 -299q117 0 189 88t71 232v516h193v-762q0 -125 8 -209h-182q-8 98 -8 160z" />
    <glyph glyph-name="Uogonek" unicode="&#x172;" horiz-adv-x="1458" 
d="M780 -463q-92 0 -151 49t-60 129q0 117 138 250q-262 8 -402 172q-139 164 -139 400v913h203v-901q0 -170 87 -287t273 -117t273 117t88 287v901h202v-913q0 -215 -118 -375t-343 -191q-121 -129 -120 -215q1 -40 29 -68t78 -28t100 45l45 -92q-91 -76 -183 -76z" />
    <glyph glyph-name="uogonek" unicode="&#x173;" horiz-adv-x="1191" 
d="M864 -463q-92 0 -151 49t-60 129q0 143 195 297q-6 72 -6 148h-4q-39 -80 -127 -133t-191 -54q-178 0 -270 111t-92 285v602h192v-537q0 -299 221 -299q117 0 189 88t71 232v516h193v-762q0 -125 8 -209h-88q-150 -145 -149 -244q1 -40 29 -68t78 -28t99 45l46 -92
q-91 -76 -183 -76z" />
    <glyph glyph-name="Wcircumflex" unicode="&#x174;" horiz-adv-x="2023" 
d="M1126 1860l230 -295h-187l-153 202l-156 -202h-184l229 295h221zM240 1450l319 -1155h4l340 1155h223l338 -1155h4l320 1155h215l-426 -1450h-211l-352 1165h-4l-353 -1165h-211l-426 1450h220z" />
    <glyph glyph-name="wcircumflex" unicode="&#x175;" horiz-adv-x="1583" 
d="M901 1450l229 -295h-186l-153 203l-156 -203h-184l229 295h221zM29 971h209l219 -742h4l231 742h203l235 -742h5l219 742h202l-321 -971h-201l-239 729h-4l-238 -729h-201z" />
    <glyph glyph-name="Ycircumflex" unicode="&#x176;" horiz-adv-x="1277" 
d="M754 1860l229 -295h-186l-154 202l-156 -202h-184l229 295h222zM741 0h-204v627l-543 823h250l401 -655l404 655h235l-543 -823v-627z" />
    <glyph glyph-name="ycircumflex" unicode="&#x177;" horiz-adv-x="1032" 
d="M643 1450l229 -295h-186l-154 203l-155 -203h-184l229 295h221zM205 -492q-68 0 -127 15l18 170q49 -17 108 -17q60 0 98 38t71 124l61 162l-416 971h215l302 -762h4l268 762h205l-471 -1200q-51 -133 -126 -198t-210 -65z" />
    <glyph glyph-name="Ydieresis" unicode="&#x178;" horiz-adv-x="1277" 
d="M717 1732q0 50 37 87t90 37t90 -36t37 -88t-37 -88t-90 -36t-90 37t-37 87zM319 1732q0 50 37 87t90 37t91 -36q37 -36 37 -88t-38 -88q-36 -36 -90 -36t-90 37q-37 37 -37 87zM741 0h-204v627l-543 823h250l401 -655l404 655h235l-543 -823v-627z" />
    <glyph glyph-name="Zacute" unicode="&#x179;" horiz-adv-x="1212" 
d="M899 1860l-281 -295h-155l203 295h233zM1133 1450v-178l-820 -1092h832v-180h-1077v178l817 1094h-801v178h1049z" />
    <glyph glyph-name="zacute" unicode="&#x17a;" horiz-adv-x="946" 
d="M772 1450l-278 -295h-158l205 295h231zM858 971v-158l-553 -651h576v-162h-813v158l548 655h-522v158h764z" />
    <glyph glyph-name="Zdotaccent" unicode="&#x17b;" horiz-adv-x="1212" 
d="M735 1732q0 -52 -38 -88t-91 -36t-90 36t-37 87t37 88t90 37t91 -36t38 -88zM1133 1450v-178l-820 -1092h832v-180h-1077v178l817 1094h-801v178h1049z" />
    <glyph glyph-name="zdotaccent" unicode="&#x17c;" horiz-adv-x="946" 
d="M487 1446q53 0 91 -36t38 -88t-38 -88t-90 -36q-54 0 -91 36t-37 87t37 88t90 37zM858 971v-158l-553 -651h576v-162h-813v158l548 655h-522v158h764z" />
    <glyph glyph-name="Zcaron" unicode="&#x17d;" horiz-adv-x="1212" 
d="M948 1860l-229 -295h-219l-228 295h185l155 -203l156 203h180zM1133 1450v-178l-820 -1092h832v-180h-1077v178l817 1094h-801v178h1049z" />
    <glyph glyph-name="zcaron" unicode="&#x17e;" horiz-adv-x="946" 
d="M823 1450l-229 -295h-219l-228 295h185l155 -203l156 203h180zM858 971v-158l-553 -651h576v-162h-813v158l548 655h-522v158h764z" />
    <glyph glyph-name="florin" unicode="&#x192;" horiz-adv-x="1218" 
d="M967 866v-149h-265l-127 -654q-66 -348 -350 -348q-106 0 -188 49l78 146q45 -29 113 -29q68 -1 104 55q35 56 55 160l119 621h-227v149h256l51 260q66 348 340 349q113 0 217 -62l-82 -145q-59 35 -117 35t-96 -41q-39 -41 -52 -81t-24 -102l-41 -213h236z" />
    <glyph glyph-name="Scommaaccent" unicode="&#x218;" horiz-adv-x="1165" 
d="M707 -92l-160 -389h-162l131 389h191zM602 1317q-100 -1 -184 -61q-86 -60 -86 -174t90 -168q49 -30 88 -45t119 -41t122 -41q41 -15 109 -52t104 -77q91 -101 91 -255q-1 -213 -147 -327t-355 -113q-141 0 -269 54t-208 157l157 133q51 -76 139 -123t194 -47t194 65
t88 170t-60 165t-284 129q-82 26 -138 52q-157 71 -208 189q-31 72 -31 166q0 137 76 235q140 180 422 179q125 0 236 -45t179 -121l-143 -139q-100 135 -295 135z" />
    <glyph glyph-name="scommaaccent" unicode="&#x219;" horiz-adv-x="909" 
d="M578 -92l-160 -389h-162l131 389h191zM464 846q-73 0 -126 -32t-53 -92t51 -91t170 -58q326 -72 325 -286q1 -160 -111 -237t-252 -77q-275 0 -415 174l137 117q39 -59 110 -97t151 -38t135 34t55 102q0 67 -58 101q-57 34 -155 57t-141 39t-88 47q-95 63 -95 201
q0 136 108 212t259 75q105 1 203 -41t149 -118l-133 -113q-33 53 -93 87t-133 34z" />
    <glyph glyph-name="uni021A" unicode="&#x21a;" horiz-adv-x="1165" 
d="M711 -92l-160 -389h-162l131 389h191zM684 1272v-1272h-203v1272h-465v178h1133v-178h-465z" />
    <glyph glyph-name="uni021B" unicode="&#x21b;" horiz-adv-x="673" 
d="M535 -92l-160 -389h-162l131 389h191zM641 971v-158h-258v-506q0 -88 33 -126t100 -38t117 25l6 -158q-74 -27 -164 -26q-137 0 -210 76t-72 227v526h-187v158h187v278h190v-278h258z" />
    <glyph glyph-name="circumflex" unicode="&#x2c6;" 
d="M367 1450l229 -295h-186l-154 203l-156 -203h-184l229 295h222z" />
    <glyph glyph-name="caron" unicode="&#x2c7;" 
d="M594 1450l-229 -295h-220l-227 295h184l156 -203l156 203h180z" />
    <glyph glyph-name="uni02C9" unicode="&#x2c9;" 
d="M559 1769v-137h-606v137h606z" />
    <glyph glyph-name="breve" unicode="&#x2d8;" 
d="M255 1167q-140 0 -228 73t-97 210h115q13 -74 71 -111t140 -36q180 0 213 147h113q-12 -137 -100 -210t-227 -73z" />
    <glyph glyph-name="dotaccent" unicode="&#x2d9;" 
d="M385 1322q0 -52 -38 -88t-91 -36t-90 36t-37 87t37 88t90 37t91 -36t38 -88z" />
    <glyph glyph-name="ring" unicode="&#x2da;" 
d="M377 1337q0 49 -36 82t-85 33t-84 -33t-35 -82t35 -83t84 -34t85 34t36 83zM463 1337q-1 -86 -61 -144t-146 -58t-145 57t-60 143q-1 87 59 145t146 58t146 -58t61 -143z" />
    <glyph glyph-name="ogonek" unicode="&#x2db;" 
d="M240 -463q-92 0 -152 49q-59 49 -59 129q0 143 194 297h111q-164 -160 -164 -256q0 -40 29 -68t79 -28t99 45l45 -92q-90 -76 -182 -76z" />
    <glyph glyph-name="tilde" unicode="&#x2dc;" 
d="M111 1409q67 0 159 -43t131 -43q70 0 99 94h110q-41 -238 -209 -237q-63 0 -153 43t-137 43q-72 -1 -97 -95h-112q41 238 209 238z" />
    <glyph glyph-name="hungarumlaut" unicode="&#x2dd;" 
d="M733 1450l-278 -295h-158l205 295h231zM360 1450l-280 -295h-158l205 295h233z" />
    <glyph glyph-name="uni0394" unicode="&#x394;" horiz-adv-x="1388" 
d="M1106 170l-424 1085l-408 -1085h832zM1366 0h-1343l565 1458h194z" />
    <glyph glyph-name="uni03A9" unicode="&#x3a9;" horiz-adv-x="1540" 
d="M1419 0h-540v379q168 31 259 156t91 312t-133 323t-336 136t-338 -136q-135 -138 -135 -326t89 -310q89 -120 257 -155v-379h-539v158h389v127q-184 53 -286 205t-103 350q0 274 194 455t472 181t468 -178q191 -180 191 -454q0 -203 -100 -355t-289 -204v-127h389v-158z
" />
    <glyph glyph-name="uni03BC" unicode="&#x3bc;" horiz-adv-x="1183" 
d="M838 160h-4q-39 -80 -127 -133t-196 -53t-165 61v-527h-192v1463h192v-537q0 -299 221 -299q117 0 189 88t71 232v516h193v-762q0 -125 8 -209h-182q-8 98 -8 160z" />
    <glyph glyph-name="pi" unicode="&#x3c0;" horiz-adv-x="1183" 
d="M965 -14q-117 0 -154 64t-37 192v563h-391v-805h-176v805h-144v166h1047v-166h-160v-553q0 -37 3 -57q3 -21 21 -39t58 -18q39 0 84 20v-133q-82 -39 -151 -39z" />
    <glyph glyph-name="endash" unicode="&#x2013;" horiz-adv-x="819" 
d="M758 578v-154h-697v154h697z" />
    <glyph glyph-name="emdash" unicode="&#x2014;" horiz-adv-x="1228" 
d="M1167 578v-154h-1106v154h1106z" />
    <glyph glyph-name="quoteleft" unicode="&#x2018;" horiz-adv-x="503" 
d="M86 938l170 512h162l-139 -512h-193z" />
    <glyph glyph-name="quoteright" unicode="&#x2019;" horiz-adv-x="503" 
d="M418 1450l-170 -512h-162l141 512h191z" />
    <glyph glyph-name="quotesinglbase" unicode="&#x201a;" horiz-adv-x="503" 
d="M418 240l-170 -512h-162l141 512h191z" />
    <glyph glyph-name="quotedblleft" unicode="&#x201c;" horiz-adv-x="872" 
d="M455 938l170 512h161l-139 -512h-192zM86 938l170 512h162l-139 -512h-193z" />
    <glyph glyph-name="quotedblright" unicode="&#x201d;" horiz-adv-x="872" 
d="M418 1450l-170 -512h-162l141 512h191zM786 1450l-170 -512h-161l141 512h190z" />
    <glyph glyph-name="quotedblbase" unicode="&#x201e;" horiz-adv-x="872" 
d="M418 240l-170 -512h-162l141 512h191zM786 240l-170 -512h-161l141 512h190z" />
    <glyph glyph-name="dagger" unicode="&#x2020;" horiz-adv-x="1177" 
d="M680 1450v-416h414v-162h-414v-1130h-184v1130h-412v162h412v416h184z" />
    <glyph glyph-name="daggerdbl" unicode="&#x2021;" horiz-adv-x="1177" 
d="M680 1450v-385h397v-162h-397v-614h397v-160h-397v-387h-184v387h-398v160h398v614h-398v162h398v385h184z" />
    <glyph glyph-name="bullet" unicode="&#x2022;" horiz-adv-x="1024" 
d="M150 725q0 152 105 257t257 105t257 -105t105 -257t-105 -257q-105 -106 -257 -106t-257 106t-105 257z" />
    <glyph glyph-name="ellipsis" unicode="&#x2026;" horiz-adv-x="2048" 
d="M1542 143q0 66 48 113t116 47t116 -45t48 -111q0 -67 -48 -113t-115 -46t-116 44t-49 111zM860 143q0 66 48 113t116 47t116 -45t48 -111q0 -67 -48 -113t-115 -46t-116 44t-49 111zM178 143q0 66 48 113t116 47t116 -45t48 -111q0 -67 -48 -113t-115 -46t-116 44
t-49 111z" />
    <glyph glyph-name="perthousand" unicode="&#x2030;" horiz-adv-x="2146" 
d="M1253 1448l-960 -1514l-115 66l963 1513zM1925 303q0 72 -51 122t-123 50t-122 -50t-50 -122t50 -123t122 -51t123 51t51 123zM1425 303q-1 135 95 231t232 95q136 0 231 -95q95 -94 95 -230t-94 -231q-96 -95 -232 -95t-232 94q-96 96 -95 231zM1204 303q0 72 -51 122
t-123 50t-122 -50t-50 -122t50 -123t122 -51t123 51t51 123zM705 303q0 135 95 231t231 95q135 0 231 -95q96 -94 96 -230t-95 -231t-231 -95t-232 94q-95 96 -95 231zM580 1153q0 72 -52 122t-122 50q-72 0 -122 -50t-50 -122t50 -123t122 -51t123 51t51 123zM80 1153
q0 135 95 230t231 95t232 -94q95 -96 95 -231t-95 -230t-231 -95q-135 0 -231 94q-96 96 -96 231z" />
    <glyph glyph-name="guilsinglleft" unicode="&#x2039;" horiz-adv-x="610" 
d="M272 500l236 -359l-127 -88l-299 447l299 444l127 -86z" />
    <glyph glyph-name="guilsinglright" unicode="&#x203a;" horiz-adv-x="610" 
d="M340 498l-238 360l127 86l299 -446l-299 -445l-125 88z" />
    <glyph glyph-name="fraction" unicode="&#x2044;" horiz-adv-x="204" 
d="M590 1448l-885 -1514l-135 68l889 1514z" />
    <glyph glyph-name="Euro" unicode="&#x20ac;" horiz-adv-x="1218" 
d="M814 137q160 0 276 74l71 -156q-137 -92 -373 -92q-236 1 -393 145q-158 144 -202 361h-164l49 145h96q-4 57 -4 115t6 105h-143l51 145h115q57 236 226 372t402 136q190 0 316 -68l-64 -164q-102 59 -258 59q-155 0 -269 -89q-114 -90 -155 -246h602l-47 -145h-583
q-19 -110 -2 -220h524l-47 -145h-455q29 -147 147 -239t278 -93z" />
    <glyph glyph-name="afii61289" unicode="&#x2113;" horiz-adv-x="1024" 
d="M694 1188q0 72 -28 118q-29 46 -74 46t-77 -56t-32 -159v-420q211 242 211 471zM600 -29q-144 0 -222 72q-77 72 -77 203v186l-119 -117h-4l-67 99l188 174v518q0 168 84 269t205 101q122 0 190 -74q68 -75 68 -202q0 -293 -363 -643v-283q0 -90 42 -128t102 -37
q88 0 180 77h4l66 -96q-133 -119 -277 -119z" />
    <glyph glyph-name="trademark" unicode="&#x2122;" horiz-adv-x="2048" 
d="M1919 1450v-844h-168v629h-4l-244 -629h-112l-246 629h-4v-629h-166v844h242l231 -598l231 598h240zM805 1450v-147h-260v-697h-166v697h-264v147h690z" />
    <glyph glyph-name="Omega" unicode="&#x2126;" horiz-adv-x="1540" 
d="M1419 0h-540v379q168 31 259 156t91 312t-133 323t-336 136t-338 -136q-135 -138 -135 -326t89 -310q89 -120 257 -155v-379h-539v158h389v127q-184 53 -286 205t-103 350q0 274 194 455t472 181t468 -178q191 -180 191 -454q0 -203 -100 -355t-289 -204v-127h389v-158z
" />
    <glyph glyph-name="estimated" unicode="&#x212e;" horiz-adv-x="1236" 
d="M322 604h596v297q-130 123 -302 123t-294 -123v-297zM322 530v-370q121 -121 296 -121q250 0 396 246l71 -43q-94 -147 -200 -212t-267 -65q-236 0 -382 162q-146 163 -146 405t146 403t382 161t382 -158t149 -408h-827z" />
    <glyph glyph-name="partialdiff" unicode="&#x2202;" horiz-adv-x="1071" 
d="M510 739q-127 0 -198 -90q-70 -90 -70 -219t68 -224t180 -95q112 1 183 77q123 133 128 367q-47 86 -124 135t-167 49zM456 1333q-106 0 -227 -96q-16 18 -48 56l-48 57q159 127 315 127t264 -67q108 -66 164 -178q109 -217 109 -470q0 -252 -43 -394t-95 -218t-142 -125
t-207 -50q-193 -1 -310 133q-116 134 -116 326t113 319q114 126 299 126t323 -144l2 84q0 189 -70 336q-82 178 -283 178z" />
    <glyph glyph-name="Delta" unicode="&#x2206;" horiz-adv-x="1388" 
d="M1106 170l-424 1085l-408 -1085h832zM1366 0h-1343l565 1458h194z" />
    <glyph glyph-name="product" unicode="&#x220f;" horiz-adv-x="1486" 
d="M1352 -438h-185v1878h-845v-1878h-187v2048h1217v-2048z" />
    <glyph glyph-name="summation" unicode="&#x2211;" horiz-adv-x="1282" 
d="M1231 -438h-1180v147l647 887l-620 864v150h1128v-170h-884l598 -844l-637 -866h948v-168z" />
    <glyph glyph-name="minus" unicode="&#x2212;" horiz-adv-x="1363" 
d="M1221 705v-168h-1078v168h1078z" />
    <glyph glyph-name="uni2215" unicode="&#x2215;" horiz-adv-x="204" 
d="M590 1448l-885 -1514l-135 68l889 1514z" />
    <glyph glyph-name="uni2219" unicode="&#x2219;" horiz-adv-x="532" 
d="M406 621q0 -55 -40 -95t-98 -41q-58 0 -98 40q-41 40 -41 94q0 53 40 95t98 42q59 0 99 -40t40 -95z" />
    <glyph glyph-name="radical" unicode="&#x221a;" horiz-adv-x="1054" 
d="M1077 1610l-432 -2048h-176l-324 671l-98 -47l-67 144l253 119l295 -619l365 1780h184z" />
    <glyph glyph-name="infinity" unicode="&#x221e;" horiz-adv-x="1593" 
d="M1217 889q147 0 237 -100t90 -252t-89 -253t-241 -102q-112 0 -198 58t-180 161q-68 -73 -110 -111t-114 -72t-151 -34q-152 0 -244 100t-92 251t89 251q90 100 222 100t218 -60t182 -173q61 74 107 117t120 81t154 38zM428 713q-62 1 -106 -53t-43 -130q0 -76 45 -124
t122 -48q125 0 293 172q-57 53 -91 83t-96 65t-124 35zM1243 358q66 0 109 49t43 126t-45 129q-46 52 -110 53q-64 0 -124 -35t-94 -65q-33 -30 -88 -85q53 -52 89 -82t95 -60t125 -30z" />
    <glyph glyph-name="integral" unicode="&#x222b;" horiz-adv-x="1175" 
d="M725 1610q59 0 119 -34t61 -95q1 -39 -25 -63t-62 -24q-67 1 -87 57t-45 56q-53 0 -53 -176l4 -176v-1163q0 -166 -47 -284q-56 -144 -223 -144q-66 0 -118 30t-52 93q-1 35 25 59t60 25q61 1 81 -55t45 -56q51 0 51 182l-4 133l2 25v1022l-2 154q0 243 68 339
q68 95 202 95z" />
    <glyph glyph-name="approxequal" unicode="&#x2248;" horiz-adv-x="1363" 
d="M946 174q-90 0 -287 74q-203 72 -259 72t-94 -46q-38 -45 -48 -106h-121q16 135 84 227q67 92 179 92t294 -71q199 -72 271 -72q117 0 143 148h119q-14 -138 -83 -228t-198 -90zM946 584q-90 0 -290 72t-256 73q-56 0 -94 -45t-48 -106h-121q16 135 84 227q67 92 179 92
t294 -72q199 -72 271 -71q117 0 143 147h119q-14 -137 -83 -227t-198 -90z" />
    <glyph glyph-name="notequal" unicode="&#x2260;" horiz-adv-x="1363" 
d="M1130 221h-585l-158 -305l-149 78l118 227h-274v172h362l129 252h-491v172h582l157 305l152 -75l-121 -230h278v-172h-366l-131 -252h497v-172z" />
    <glyph glyph-name="lessequal" unicode="&#x2264;" horiz-adv-x="1363" 
d="M1206 16h-1048v172h1048v-172zM1206 266l-1048 367v176l1048 375v-183l-813 -280l813 -275v-180z" />
    <glyph glyph-name="greaterequal" unicode="&#x2265;" horiz-adv-x="1363" 
d="M1206 16h-1048v172h1048v-172zM1206 633l-1048 -367v180l813 275l-813 280v183l1048 -375v-176z" />
    <glyph glyph-name="lozenge" unicode="&#x25ca;" horiz-adv-x="1214" 
d="M868 729l-262 625l-260 -625l260 -625zM1047 729l-357 -801h-168l-354 801l354 801h168z" />
    <glyph glyph-name="uniF8FF" unicode="&#xf8ff;" horiz-adv-x="1048" 
d="M1049 1470v-1470h-1049v1470h1049zM946 102v1264h-844v-1264h844zM524 1145q-145 0 -168 -195l-102 17q14 141 88 211t186 70t185 -74q72 -74 71 -195q0 -70 -26 -123t-103 -122q-76 -68 -88 -108t-12 -147h-94l-4 35q1 115 29 169t92 118q63 59 82 94q20 35 20 93
t-46 107q-46 50 -110 50zM455 240v137h114v-137h-114z" />
    <glyph glyph-name="ydieresis.sc" horiz-adv-x="968" 
d="M563 1383q0 50 37 87t90 37t90 -36t37 -88t-37 -88q-37 -35 -90 -35t-90 36t-37 87zM166 1383q0 50 37 87t90 37t90 -36t37 -88t-37 -88q-37 -35 -90 -35t-90 36t-37 87zM582 0h-197v442l-397 656h221l280 -498l281 498h211l-399 -656v-442z" />
    <glyph glyph-name="n.sc" horiz-adv-x="1265" 
d="M903 266v832h191v-1098h-234l-493 827h-5v-827h-190v1098h238l489 -832h4z" />
    <glyph glyph-name="umacron.sc" horiz-adv-x="1218" 
d="M915 1421v-137h-606v137h606zM608 -29q-208 0 -328 123t-120 316v688h196v-674q0 -121 62 -199t190 -78q129 0 192 78q62 78 62 199v674h197v-688q0 -193 -121 -316t-330 -123z" />
    <glyph glyph-name="ohungarumlaut.sc" horiz-adv-x="1394" 
d="M1229 1511l-279 -294h-157l204 294h232zM856 1511l-281 -294h-157l205 294h233zM1077 550q0 175 -105 289q-104 113 -276 113t-275 -114t-103 -288q0 -175 102 -290q104 -115 275 -115t277 115q105 115 105 290zM1288 553q0 -254 -169 -418t-423 -164t-422 164t-168 418
t167 414q167 159 423 159t424 -160t168 -413z" />
    <glyph glyph-name="iogonek.sc" horiz-adv-x="540" 
d="M274 -475q-92 0 -151 49t-60 129q0 143 195 297h-86v1098h197v-1098q-164 -160 -164 -256q1 -39 29 -68q28 -28 78 -28t100 45l45 -92q-91 -76 -183 -76z" />
    <glyph glyph-name="p.sc" horiz-adv-x="1034" 
d="M369 934v-359h166q106 1 167 47q62 46 62 134t-57 133t-164 45h-174zM172 0v1098h381q190 0 299 -88t109 -251t-112 -253t-302 -90h-178v-416h-197z" />
    <glyph glyph-name="macron.sc" 
d="M559 1421v-137h-606v137h606z" />
    <glyph glyph-name="ugrave.sc" horiz-adv-x="1218" 
d="M553 1217l-279 294h232l205 -294h-158zM608 -29q-208 0 -328 123t-120 316v688h196v-674q0 -121 62 -199t190 -78q129 0 192 78q62 78 62 199v674h197v-688q0 -193 -121 -316t-330 -123z" />
    <glyph glyph-name="oe.sc" horiz-adv-x="1654" 
d="M725 922q-171 0 -279 -102t-108 -272q0 -169 108 -270t279 -102h63v746h-63zM985 487v-321h557v-166h-817q-256 0 -428 151t-172 401t171 397q171 148 429 149h793v-164h-533v-289h504v-158h-504z" />
    <glyph glyph-name="udieresis.sc" horiz-adv-x="1218" 
d="M688 1383q0 50 37 87t90 37t90 -36t37 -88t-37 -88q-37 -35 -90 -35t-90 36t-37 87zM291 1383q0 50 37 87t90 37t90 -36t37 -88t-37 -88q-37 -35 -90 -35t-90 36t-37 87zM608 -29q-208 0 -328 123t-120 316v688h196v-674q0 -121 62 -199t190 -78q129 0 192 78
q62 78 62 199v674h197v-688q0 -193 -121 -316t-330 -123z" />
    <glyph glyph-name="grave.sc" 
d="M209 1217l-279 294h232l205 -294h-158z" />
    <glyph glyph-name="hungarumlaut.cap" 
d="M733 1860l-278 -295h-158l205 295h231zM360 1860l-280 -295h-158l205 295h233z" />
    <glyph glyph-name="otilde.sc" horiz-adv-x="1394" 
d="M842 1241q-63 0 -158 43q-86 43 -133 43q-71 0 -96 -94h-113q41 238 209 237q68 0 160 -42t131 -44q70 0 98 95h111q-41 -238 -209 -238zM1077 550q0 175 -105 289q-104 113 -276 113t-275 -114t-103 -288q0 -175 102 -290q104 -115 275 -115t277 115q105 115 105 290z
M1288 553q0 -254 -169 -418t-423 -164t-422 164t-168 418t167 414q167 159 423 159t424 -160t168 -413z" />
    <glyph glyph-name="imacron.sc" horiz-adv-x="540" 
d="M573 1421v-137h-606v137h606zM369 1098v-1098h-197v1098h197z" />
    <glyph glyph-name="ocircumflex.sc" horiz-adv-x="1394" 
d="M807 1511l229 -294h-186l-154 202l-155 -202h-185l230 294h221zM1077 550q0 175 -105 289q-104 113 -276 113t-275 -114t-103 -288q0 -175 102 -290q104 -115 275 -115t277 115q105 115 105 290zM1288 553q0 -254 -169 -418t-423 -164t-422 164t-168 418t167 414
q167 159 423 159t424 -160t168 -413z" />
    <glyph glyph-name="perthousand.sc" horiz-adv-x="2088" 
d="M1126 1081l-669 -1142l-131 73l671 1145zM1599 250q0 -57 34 -93t88 -36t88 36t34 93t-33 92t-88 35t-89 -35t-34 -92zM1721 -25q-123 0 -205 77t-82 199q0 121 82 195t206 74t206 -74q81 -74 81 -196t-82 -198q-82 -77 -206 -77zM954 250q0 -57 34 -93t88 -36t88 36
t34 93t-33 92t-88 35t-89 -35t-34 -92zM788 251q0 121 82 195t207 74t206 -74t81 -196t-82 -198q-82 -77 -206 -77t-206 77t-82 199zM258 844q0 -57 34 -93t88 -36t88 36t34 93t-33 92t-88 35t-89 -35t-34 -92zM92 845q0 121 82 195t207 74t206 -74t81 -196t-82 -198
q-82 -77 -206 -77t-206 77t-82 199z" />
    <glyph glyph-name="napostrophe.sc" horiz-adv-x="1398" 
d="M252 1098l-160 -389h-162l131 389h191zM1036 266v832h191v-1098h-234l-493 827h-4v-827h-191v1098h238l489 -832h4z" />
    <glyph glyph-name="ij.sc" horiz-adv-x="1372" 
d="M1016 350v748h196v-752q0 -100 -28 -181t-105 -137t-195 -56t-203 72t-112 185l185 54q37 -135 135 -136q127 0 127 203zM369 1098v-1098h-197v1098h197z" />
    <glyph glyph-name="percent.sc" horiz-adv-x="1445" 
d="M1126 1081l-669 -1142l-131 73l671 1145zM952 250q0 -57 34 -93t88 -36t88 36t34 93t-33 92t-88 35t-89 -35t-34 -92zM786 251q0 121 82 195t207 74t206 -74t81 -196t-82 -198q-82 -77 -206 -77t-206 77t-82 199zM258 844q0 -57 34 -93t88 -36t88 36t34 93t-33 92t-88 35
t-89 -35t-34 -92zM92 845q0 121 82 195t207 74t206 -74t81 -196t-82 -198q-82 -77 -206 -77t-206 77t-82 199z" />
    <glyph glyph-name="obreve.sc" horiz-adv-x="1394" 
d="M696 1229q-140 0 -229 73q-88 73 -96 209h114q13 -75 71 -111t140 -36q180 0 213 147h113q-12 -137 -99 -209t-227 -73zM1077 550q0 175 -105 289q-104 113 -276 113t-275 -114t-103 -288q0 -175 102 -290q104 -115 275 -115t277 115q105 115 105 290zM1288 553
q0 -254 -169 -418t-423 -164t-422 164t-168 418t167 414q167 159 423 159t424 -160t168 -413z" />
    <glyph glyph-name="two.onum" horiz-adv-x="1105" 
d="M981 170v-170h-842v174l117 78q313 209 395 285q121 115 121 215t-59 153t-174 53q-182 0 -277 -170l-145 103q67 109 181 172t245 63q201 0 313 -94t113 -262q0 -122 -91 -243q-72 -94 -376 -296l-86 -55v-6h565z" />
    <glyph glyph-name="nine.sc" horiz-adv-x="1032" 
d="M127 762q0 162 110 263q111 101 279 101t279 -102t111 -259t-124 -349l-260 -416h-229l291 432l-2 2q-51 -23 -107 -22q-152 0 -250 94t-98 256zM713 766q-1 88 -57 142t-141 54t-139 -54q-54 -56 -54 -144t53 -144t140 -56t143 56q56 58 55 146z" />
    <glyph glyph-name="oacute.sc" horiz-adv-x="1394" 
d="M1026 1511l-278 -294h-158l205 294h231zM1077 550q0 175 -105 289q-104 113 -276 113t-275 -114t-103 -288q0 -175 102 -290q104 -115 275 -115t277 115q105 115 105 290zM1288 553q0 -254 -169 -418t-423 -164t-422 164t-168 418t167 414q167 159 423 159t424 -160
t168 -413z" />
    <glyph glyph-name="idotaccent.sc" horiz-adv-x="540" 
d="M397 1383q0 -52 -38 -88q-38 -35 -91 -35t-90 36t-37 86q0 51 37 88t90 37t91 -36t38 -88zM369 1098v-1098h-197v1098h197z" />
    <glyph glyph-name="ucircumflex.sc" horiz-adv-x="1218" 
d="M727 1511l229 -294h-186l-154 202l-155 -202h-185l230 294h221zM608 -29q-208 0 -328 123t-120 316v688h196v-674q0 -121 62 -199t190 -78q129 0 192 78q62 78 62 199v674h197v-688q0 -193 -121 -316t-330 -123z" />
    <glyph glyph-name="macron.cap" 
d="M559 1769v-137h-606v137h606z" />
    <glyph glyph-name="oslash.sc" horiz-adv-x="1394" 
d="M680 950q-154 0 -258 -114t-103 -270q0 -156 68 -259l547 563q-100 80 -254 80zM1075 532q0 156 -69 261l-549 -566q95 -80 251 -80t262 115q105 114 105 270zM1288 538q0 -242 -169 -404q-169 -163 -425 -163q-213 0 -370 119l-150 -153l-74 73l148 152
q-142 154 -142 400t167 405q167 160 421 159q217 0 375 -118l143 147l76 -72l-141 -145q141 -158 141 -400z" />
    <glyph glyph-name="yacute.sc" horiz-adv-x="968" 
d="M813 1511l-278 -294h-158l205 294h231zM582 0h-197v442l-397 656h221l280 -498l281 498h211l-399 -656v-442z" />
    <glyph glyph-name="uhungarumlaut.sc" horiz-adv-x="1218" 
d="M1118 1511l-278 -294h-158l205 294h231zM745 1511l-280 -294h-158l205 294h233zM608 -29q-208 0 -328 123t-120 316v688h196v-674q0 -121 62 -199t190 -78q129 0 192 78q62 78 62 199v674h197v-688q0 -193 -121 -316t-330 -123z" />
    <glyph glyph-name="omacron.sc" horiz-adv-x="1394" 
d="M997 1421v-137h-606v137h606zM1077 550q0 175 -105 289q-104 113 -276 113t-275 -114t-103 -288q0 -175 102 -290q104 -115 275 -115t277 115q105 115 105 290zM1288 553q0 -254 -169 -418t-423 -164t-422 164t-168 418t167 414q167 159 423 159t424 -160t168 -413z" />
    <glyph glyph-name="z.sc" horiz-adv-x="1015" 
d="M913 1098v-164l-575 -768h584v-166h-828v162l578 772h-570v164h811z" />
    <glyph glyph-name="questiondown.sc" horiz-adv-x="901" 
d="M317 980q0 54 38 92q37 38 95 38t97 -37t39 -92t-39 -93t-96 -38t-96 38q-38 38 -38 92zM362 700v43h189v-53q0 -119 -78 -188l-49 -43q-63 -55 -88 -95t-25 -92t35 -90q35 -39 103 -39q125 0 149 146l190 -25q-20 -141 -113 -217t-246 -76t-235 88t-83 223
q0 135 143 250q66 51 87 86t21 82z" />
    <glyph glyph-name="idieresis.sc" horiz-adv-x="540" 
d="M344 1383q0 50 37 87t90 37t90 -36t37 -88t-37 -88q-37 -35 -90 -35t-90 36t-37 87zM-53 1383q0 50 37 87t90 37t90 -36t37 -88t-37 -88q-37 -35 -90 -35t-90 36t-37 87zM369 1098v-1098h-197v1098h197z" />
    <glyph glyph-name="one.sc" horiz-adv-x="1032" 
d="M682 1098v-1098h-195v854l-188 -162l-115 133l330 273h168z" />
    <glyph glyph-name="question.sc" horiz-adv-x="901" 
d="M584 118q0 -54 -38 -92t-95 -38t-97 37q-39 37 -39 92t39 93q38 38 96 38t96 -38t38 -92zM539 397v-43h-189v54q0 119 78 188l49 43q63 55 88 95t25 91t-35 90t-102 39q-125 0 -150 -145l-190 25q20 141 113 217q93 75 246 75t236 -88t83 -223t-144 -250q-66 -51 -87 -86
t-21 -82z" />
    <glyph glyph-name="iacute.sc" horiz-adv-x="540" 
d="M614 1511l-278 -294h-158l205 294h231zM369 1098v-1098h-197v1098h197z" />
    <glyph glyph-name="three.sc" horiz-adv-x="1032" 
d="M160 893q94 233 364 233q136 0 235 -80t99 -225q0 -85 -47 -149t-131 -94v-3q94 -25 149 -95t56 -165q0 -160 -111 -252t-266 -92q-287 0 -385 262l180 62q57 -156 203 -156q76 0 131 46t55 133t-65 132q-66 44 -170 44h-72v157h74q92 0 149 38q58 38 58 113t-48 117
t-114 42q-123 0 -170 -132z" />
    <glyph glyph-name="ordfeminine.sc" horiz-adv-x="778" 
d="M311 1114h154l-76 197zM61 883l261 600h141l258 -600h-164l-51 127h-234l-49 -127h-162z" />
    <glyph glyph-name="l.sc" horiz-adv-x="860" 
d="M369 1098v-932h471v-166h-668v1098h197z" />
    <glyph glyph-name="scommaaccent.sc" horiz-adv-x="952" 
d="M575 -92l-159 -389h-162l131 389h190zM496 958q-76 0 -127 -40t-51 -108t44 -100q45 -32 165 -72t206 -99q107 -75 107 -234q0 -160 -110 -247t-277 -87q-115 0 -217 45t-166 125l135 125q92 -123 252 -123q82 0 136 38t54 111t-56 115q-56 43 -187 83t-206 106t-75 214
t114 232t271 84q205 0 328 -137l-125 -131q-80 100 -215 100z" />
    <glyph glyph-name="uring.sc" horiz-adv-x="1218" 
d="M733 1399q0 49 -36 82t-85 33t-84 -34q-34 -32 -34 -81t34 -83t84 -34q49 0 85 34t36 83zM819 1399q0 -87 -60 -145q-61 -58 -147 -58t-145 57t-59 143t59 145q59 58 145 58t146 -57t61 -143zM608 -29q-208 0 -328 123t-120 316v688h196v-674q0 -121 62 -199t190 -78
q129 0 192 78q62 78 62 199v674h197v-688q0 -193 -121 -316t-330 -123z" />
    <glyph glyph-name="i.sc" horiz-adv-x="540" 
d="M369 1098v-1098h-197v1098h197z" />
    <glyph glyph-name="hcircumflex.sc" horiz-adv-x="1243" 
d="M735 1511l230 -294h-187l-153 202l-156 -202h-184l229 294h221zM172 0v1098h197v-451h505v451h197v-1098h-197v485h-505v-485h-197z" />
    <glyph glyph-name="ograve.sc" horiz-adv-x="1394" 
d="M643 1217l-278 294h231l205 -294h-158zM1077 550q0 175 -105 289q-104 113 -276 113t-275 -114t-103 -288q0 -175 102 -290q104 -115 275 -115t277 115q105 115 105 290zM1288 553q0 -254 -169 -418t-423 -164t-422 164t-168 418t167 414q167 159 423 159t424 -160
t168 -413z" />
    <glyph glyph-name="ycircumflex.sc" horiz-adv-x="968" 
d="M600 1511l229 -294h-186l-154 202l-155 -202h-184l229 294h221zM582 0h-197v442l-397 656h221l280 -498l281 498h211l-399 -656v-442z" />
    <glyph glyph-name="o.sc" horiz-adv-x="1394" 
d="M1077 550q0 175 -105 289q-104 113 -276 113t-275 -114t-103 -288q0 -175 102 -290q104 -115 275 -115t277 115q105 115 105 290zM1288 553q0 -254 -169 -418t-423 -164t-422 164t-168 418t167 414q167 159 423 159t424 -160t168 -413z" />
    <glyph glyph-name="scircumflex.sc" horiz-adv-x="952" 
d="M618 1511l230 -294h-186l-154 202l-156 -202h-184l229 294h221zM496 958q-76 0 -127 -40t-51 -108t44 -100q45 -32 165 -72t206 -99q107 -75 107 -234q0 -160 -110 -247t-277 -87q-115 0 -217 45t-166 125l135 125q92 -123 252 -123q82 0 136 38t54 111t-56 115
q-56 43 -187 83t-206 106t-75 214t114 232t271 84q205 0 328 -137l-125 -131q-80 100 -215 100z" />
    <glyph glyph-name="j.sc" horiz-adv-x="833" 
d="M477 350v748h197v-752q0 -219 -133 -318q-76 -56 -195 -56q-120 0 -204 72t-111 185l184 54q37 -135 135 -136q127 0 127 203z" />
    <glyph glyph-name="igrave.sc" horiz-adv-x="540" 
d="M211 1217l-279 294h232l205 -294h-158zM369 1098v-1098h-197v1098h197z" />
    <glyph glyph-name="aring.sc" horiz-adv-x="1126" 
d="M684 1399q0 49 -36 82t-85 33t-84 -34q-35 -32 -35 -81t35 -83t84 -34t85 34t36 83zM770 1399q0 -87 -60 -145t-146 -58t-146 57t-60 143t60 145q60 58 145 58q87 0 147 -57t60 -143zM561 872l-184 -460h366zM317 254l-104 -254h-207l467 1098h182l465 -1098h-213
l-102 254h-488z" />
    <glyph glyph-name="ring.sc" 
d="M377 1399q0 49 -36 82t-85 33t-84 -34q-35 -32 -35 -81t35 -83t84 -34t85 34t36 83zM463 1399q-1 -87 -61 -145t-146 -58t-145 57t-59 143t58 145q60 58 146 58t146 -57t61 -143z" />
    <glyph glyph-name="hungarumlaut.sc" 
d="M733 1511l-278 -294h-158l205 294h231zM360 1511l-280 -294h-158l205 294h233z" />
    <glyph glyph-name="sterling.sc" horiz-adv-x="1032" 
d="M727 629v-144h-233v-319h383v-166h-711v166h133v319h-127v144h127v125q0 158 97 263q98 105 260 105t274 -96l-117 -131q-63 66 -147 66q-84 1 -128 -55t-44 -163v-114h233z" />
    <glyph glyph-name="nacute.sc" horiz-adv-x="1265" 
d="M924 1511l-279 -294h-158l205 294h232zM903 266v832h191v-1098h-234l-493 827h-5v-827h-190v1098h238l489 -832h4z" />
    <glyph glyph-name="ubreve.sc" horiz-adv-x="1218" 
d="M608 1229q-140 0 -229 73q-88 73 -96 209h114q13 -75 71 -111t140 -36q180 0 213 147h113q-12 -137 -99 -209t-227 -73zM608 -29q-208 0 -328 123t-120 316v688h196v-674q0 -121 62 -199t190 -78q129 0 192 78q62 78 62 199v674h197v-688q0 -193 -121 -316t-330 -123z
" />
    <glyph glyph-name="seven.sc" horiz-adv-x="1032" 
d="M872 1098v-156l-432 -942h-223l449 924h-519v174h725z" />
    <glyph glyph-name="odieresis.sc" horiz-adv-x="1394" 
d="M766 1383q0 50 37 87t90 37t90 -36t37 -88t-37 -88q-37 -35 -90 -35t-90 36t-37 87zM369 1383q0 50 37 87t90 37t90 -36t37 -88t-37 -88q-37 -35 -90 -35t-90 36t-37 87zM1077 550q0 175 -105 289q-104 113 -276 113t-275 -114t-103 -288q0 -175 102 -290
q104 -115 275 -115t277 115q105 115 105 290zM1288 553q0 -254 -169 -418t-423 -164t-422 164t-168 418t167 414q167 159 423 159t424 -160t168 -413z" />
    <glyph glyph-name="zcaron.sc" horiz-adv-x="1015" 
d="M848 1511l-230 -294h-219l-227 294h184l156 -202l156 202h180zM913 1098v-164l-575 -768h584v-166h-828v162l578 772h-570v164h811z" />
    <glyph glyph-name="nine.onum" horiz-adv-x="1247" 
d="M123 652q0 206 142 340q143 134 361 134t358 -136t140 -367t-190 -514t-451 -486l-155 109q145 106 277 244t208 272l-6 4q-80 -63 -232 -64q-193 0 -323 129t-129 335zM924 648q0 132 -84 221t-217 89t-216 -87t-83 -221t82 -219t216 -85t218 85t84 217z" />
    <glyph glyph-name="germandbls.sc" horiz-adv-x="1904" 
d="M1448 954q-76 0 -127 -39t-51 -107t45 -98q45 -32 164 -72t216 -107q97 -66 97 -226t-110 -247t-277 -87q-115 0 -217 45t-166 125l135 125q92 -123 252 -123q82 0 136 38t54 111t-56 115q-56 43 -187 83t-206 106t-75 212t114 230t271 84q205 0 328 -137l-125 -131
q-80 100 -215 100zM496 954q-76 0 -127 -39t-51 -107t44 -98q45 -32 165 -72t206 -99q107 -75 107 -234q0 -160 -110 -247t-277 -87q-115 0 -217 45t-166 125l135 125q92 -123 252 -123q82 0 136 38t54 111t-56 115q-56 43 -187 83t-206 106t-75 212t114 230t271 84
q205 0 328 -137l-125 -131q-80 100 -215 100z" />
    <glyph glyph-name="aacute.sc" horiz-adv-x="1126" 
d="M915 1511l-278 -294h-158l205 294h231zM561 872l-184 -460h366zM317 254l-104 -254h-207l467 1098h182l465 -1098h-213l-102 254h-488z" />
    <glyph glyph-name="q.sc" horiz-adv-x="1406" 
d="M317 559q1 -169 103 -281t266 -112t267 112t103 282t-104 282t-265 112t-265 -112t-105 -283zM1337 166v-166h-651q-260 0 -420 153t-160 405t165 410t416 158t414 -154t163 -407q0 -252 -193 -393v-6h266z" />
    <glyph glyph-name="exclamdown.sc" horiz-adv-x="655" 
d="M463 978q0 -54 -39 -93t-96 -39t-97 40q-39 40 -38 93q0 53 39 92q40 39 96 39t96 -39q39 -39 39 -93zM426 0h-197v743h197v-743z" />
    <glyph glyph-name="jcircumflex.sc" horiz-adv-x="833" 
d="M688 1511l230 -294h-187l-153 202l-156 -202h-184l229 294h221zM477 350v748h197v-752q0 -219 -133 -318q-76 -56 -195 -56q-120 0 -204 72t-111 185l184 54q37 -135 135 -136q127 0 127 203z" />
    <glyph glyph-name="lacute.sc" horiz-adv-x="860" 
d="M625 1511l-279 -294h-158l205 294h232zM369 1098v-932h471v-166h-668v1098h197z" />
    <glyph glyph-name="zacute.sc" horiz-adv-x="1015" 
d="M778 1511l-278 -294h-158l205 294h231zM913 1098v-164l-575 -768h584v-166h-828v162l578 772h-570v164h811z" />
    <glyph glyph-name="six.onum" horiz-adv-x="1247" 
d="M672 899q192 0 322 -129t130 -335t-142 -340t-360 -134t-359 136q-140 135 -140 367q1 232 191 514t450 486l156 -108q-146 -106 -278 -244t-208 -272l6 -4q80 63 232 63zM324 439q0 -132 84 -221t217 -89t216 87t83 221t-82 219t-216 85t-218 -85t-84 -217z" />
    <glyph glyph-name="k.sc" horiz-adv-x="1112" 
d="M369 1098v-469h4l448 469h262l-514 -506l543 -592h-268l-471 543h-4v-543h-197v1098h197z" />
    <glyph glyph-name="tcommaaccent.sc" horiz-adv-x="905" 
d="M582 -92l-160 -389h-162l131 389h191zM549 934v-934h-197v934h-336v164h873v-164h-340z" />
    <glyph glyph-name="r.sc" horiz-adv-x="1075" 
d="M369 934v-311h170q227 0 227 163q0 147 -215 148h-182zM369 463v-463h-197v1098h391q401 0 402 -305q0 -117 -65 -195t-175 -106l285 -492h-228l-256 463h-157z" />
    <glyph glyph-name="lslash.sc" horiz-adv-x="860" 
d="M369 1098v-299l225 188v-184l-225 -191v-446h471v-166h-668v449l-156 -132v187l156 129v465h197z" />
    <glyph glyph-name="scaron.sc" horiz-adv-x="952" 
d="M846 1511l-230 -294h-219l-227 294h184l156 -202l156 202h180zM496 958q-76 0 -127 -40t-51 -108t44 -100q45 -32 165 -72t206 -99q107 -75 107 -234q0 -160 -110 -247t-277 -87q-115 0 -217 45t-166 125l135 125q92 -123 252 -123q82 0 136 38t54 111t-56 115
q-56 43 -187 83t-206 106t-75 214t114 232t271 84q205 0 328 -137l-125 -131q-80 100 -215 100z" />
    <glyph glyph-name="icircumflex.sc" horiz-adv-x="540" 
d="M381 1511l229 -294h-186l-154 202l-155 -202h-185l230 294h221zM369 1098v-1098h-197v1098h197z" />
    <glyph glyph-name="itilde.sc" horiz-adv-x="540" 
d="M416 1241q-63 0 -158 43q-86 43 -133 43q-71 0 -96 -94h-113q41 238 209 237q68 0 160 -42t131 -44q70 0 98 95h111q-41 -238 -209 -238zM369 1098v-1098h-197v1098h197z" />
    <glyph glyph-name="s.sc" horiz-adv-x="952" 
d="M496 958q-76 0 -127 -40t-51 -108t44 -100q45 -32 165 -72t206 -99q107 -75 107 -234q0 -160 -110 -247t-277 -87q-115 0 -217 45t-166 125l135 125q92 -123 252 -123q82 0 136 38t54 111t-56 115q-56 43 -187 83t-206 106t-75 214t114 232t271 84q205 0 328 -137
l-125 -131q-80 100 -215 100z" />
    <glyph glyph-name="hbar.sc" horiz-adv-x="1243" 
d="M369 635h505v164h-505v-164zM172 0v1098h197v-191h505v191h197v-1098h-197v485h-505v-485h-197z" />
    <glyph glyph-name="y.sc" horiz-adv-x="968" 
d="M582 0h-197v442l-397 656h221l280 -498l281 498h211l-399 -656v-442z" />
    <glyph glyph-name="kcommaaccent.sc" horiz-adv-x="1112" 
d="M713 -92l-160 -389h-162l131 389h191zM369 1098v-469h4l448 469h262l-514 -506l543 -592h-268l-471 543h-4v-543h-197v1098h197z" />
    <glyph glyph-name="zdotaccent.sc" horiz-adv-x="1015" 
d="M645 1383q0 -52 -38 -88q-38 -35 -91 -35t-90 36t-37 86q0 51 37 88t90 37t91 -36t38 -88zM913 1098v-164l-575 -768h584v-166h-828v162l578 772h-570v164h811z" />
    <glyph glyph-name="exclam.sc" horiz-adv-x="655" 
d="M463 120q0 -54 -39 -93t-95 -39t-97 39q-40 39 -39 92q0 53 38 93q39 40 97 40t96 -39q39 -39 39 -93zM426 1098v-744h-197v744h197z" />
    <glyph glyph-name="a.sc" horiz-adv-x="1126" 
d="M561 872l-184 -460h366zM317 254l-104 -254h-207l467 1098h182l465 -1098h-213l-102 254h-488z" />
    <glyph glyph-name="h.sc" horiz-adv-x="1243" 
d="M172 0v1098h197v-451h505v451h197v-1098h-197v485h-505v-485h-197z" />
    <glyph glyph-name="m.sc" horiz-adv-x="1509" 
d="M1337 1098v-1098h-192v838h-4l-322 -838h-131l-319 838h-4v-838h-193v1098h291l297 -785h4l291 785h282z" />
    <glyph glyph-name="tilde.sc" 
d="M401 1241q-63 0 -153 43t-137 43q-72 0 -97 -94h-112q41 238 209 237q67 0 159 -42t131 -44q70 0 99 95h110q-41 -238 -209 -238z" />
    <glyph glyph-name="grave.cap" 
d="M233 1565l-280 295h233l205 -295h-158z" />
    <glyph glyph-name="seven.onum" horiz-adv-x="1085" 
d="M90 922v176h893v-180q-354 -707 -588 -1293l-200 53q297 672 587 1244h-692z" />
    <glyph glyph-name="tbar.sc" horiz-adv-x="905" 
d="M766 594h-217v-594h-197v594h-215v129h215v211h-336v164h873v-164h-340v-211h217v-129z" />
    <glyph glyph-name="acute.cap" 
d="M559 1860l-280 -295h-156l203 295h233z" />
    <glyph glyph-name="wcircumflex.sc" horiz-adv-x="1630" 
d="M928 1511l229 -294h-186l-154 202l-155 -202h-185l230 294h221zM12 1098h215l236 -838h4l242 838h213l247 -838h5l235 838h209l-338 -1098h-211l-252 823h-4l-250 -823h-211z" />
    <glyph glyph-name="ebreve.sc" horiz-adv-x="1038" 
d="M532 1229q-140 0 -229 73q-88 73 -96 209h115q12 -75 70 -111t140 -36q180 0 213 147h113q-12 -137 -99 -209t-227 -73zM367 487v-321h559v-166h-754v1098h729v-164h-534v-289h505v-158h-505z" />
    <glyph glyph-name="ncommaaccent.sc" horiz-adv-x="1265" 
d="M758 -92l-160 -389h-162l131 389h191zM903 266v832h191v-1098h-234l-493 827h-5v-827h-190v1098h238l489 -832h4z" />
    <glyph glyph-name="three.onum" horiz-adv-x="1126" 
d="M553 559q190 0 314 -116t124 -287q0 -232 -164 -368t-430 -136q-141 0 -221 18l29 172q76 -20 186 -20q193 0 296 84t103 222t-86 213q-88 75 -255 75q-86 0 -209 -31l-39 145q324 238 493 394v8h-538v166h778v-178q-156 -150 -447 -359v-8q25 6 66 6z" />
    <glyph glyph-name="one.onum" horiz-adv-x="819" 
d="M573 1098v-1098h-194v854l-189 -162l-114 133l330 273h167z" />
    <glyph glyph-name="ntilde.sc" horiz-adv-x="1265" 
d="M772 1241q-63 0 -158 43q-86 43 -133 43q-71 0 -96 -94h-113q41 238 209 237q68 0 160 -42t131 -44q70 0 98 95h111q-41 -238 -209 -238zM903 266v832h191v-1098h-234l-493 827h-5v-827h-190v1098h238l489 -832h4z" />
    <glyph glyph-name="w.sc" horiz-adv-x="1630" 
d="M12 1098h215l236 -838h4l242 838h213l247 -838h5l235 838h209l-338 -1098h-211l-252 823h-4l-250 -823h-211z" />
    <glyph glyph-name="acute.sc" 
d="M582 1511l-279 -294h-158l205 294h232z" />
    <glyph glyph-name="four.sc" horiz-adv-x="1032" 
d="M598 397v480h-6l-279 -480h285zM786 1098v-701h150v-164h-150v-233h-188v233h-489v158l440 707h237z" />
    <glyph glyph-name="Euro.sc" horiz-adv-x="1032" 
d="M702 958q-104 0 -181 -56t-107 -157h432l-43 -135h-412q-6 -38 -6 -70t4 -65h377l-45 -137h-305q25 -92 99 -147q75 -54 177 -54t197 62l69 -150q-118 -78 -286 -78q-168 -1 -290 99t-157 268h-143l47 137h74q-2 19 -2 63t4 72h-117l47 135h90q45 177 173 279t284 102
t276 -59l-63 -160q-89 51 -193 51z" />
    <glyph glyph-name="dotaccent.cap" 
d="M385 1732q0 -52 -38 -88t-91 -36t-90 36t-37 87t37 88t90 37t91 -36t38 -88z" />
    <glyph glyph-name="aogonek.sc" horiz-adv-x="1126" 
d="M561 872l-184 -460h366zM924 -475q-92 0 -152 49q-59 49 -59 129q0 143 194 297l-102 254h-488l-104 -254h-207l467 1098h182l465 -1098h-102q-164 -160 -164 -256q0 -39 29 -68q29 -28 79 -28t99 45l45 -92q-90 -76 -182 -76z" />
    <glyph glyph-name="five.onum" horiz-adv-x="1114" 
d="M766 152q0 142 -94 214t-232 72t-262 -37l82 697h717v-176h-555l-47 -338q59 12 125 12q203 0 333 -118t130 -318q0 -244 -156 -376t-414 -132q-137 0 -229 18l26 172q84 -23 187 -22q389 0 389 332z" />
    <glyph glyph-name="florin.sc" horiz-adv-x="1032" 
d="M772 696v-143h-188l-90 -459q-53 -270 -299 -270q-86 0 -158 43l61 145q33 -27 88 -26q98 0 125 139l80 428h-162v143h187l26 150q49 281 273 280q117 0 188 -59l-84 -141q-43 33 -94 32q-72 0 -92 -118l-25 -144h164z" />
    <glyph glyph-name="atilde.sc" horiz-adv-x="1126" 
d="M709 1241q-63 0 -158 43q-86 43 -133 43q-71 0 -96 -94h-113q41 238 209 237q68 0 160 -42t131 -44q70 0 98 95h111q-41 -238 -209 -238zM561 872l-184 -460h366zM317 254l-104 -254h-207l467 1098h182l465 -1098h-213l-102 254h-488z" />
    <glyph glyph-name="dollar.sc" horiz-adv-x="1032" 
d="M338 811q0 -57 32 -91t99 -54v276q-59 -4 -95 -39t-36 -92zM567 469v-313q63 6 101 45q37 39 37 100q-1 117 -138 168zM469 1223h98v-125q162 -6 293 -119l-123 -127q-78 84 -170 90v-305q322 -92 322 -328q0 -131 -87 -217t-235 -92v-129h-98v129q-217 10 -346 158
q63 50 139 123q88 -121 207 -125v340q-162 46 -238 116q-75 70 -75 194t85 203t228 89v125z" />
    <glyph glyph-name="ccedilla.sc" horiz-adv-x="1159" 
d="M730 -137q59 0 115 -38t56 -129t-78 -134q-79 -43 -189 -43t-204 47l41 86q75 -35 139 -35q144 0 144 86q0 78 -111 78q-37 0 -84 -14l-41 40l109 168q-236 19 -378 175q-143 156 -143 406t168 411q168 160 424 159q123 0 231 -47t173 -131l-154 -121q-88 125 -256 125
t-271 -114t-103 -284q0 -171 106 -290q106 -118 274 -118t269 141l155 -109q-158 -190 -393 -205l-76 -114q18 4 77 4z" />
    <glyph glyph-name="gbreve.sc" horiz-adv-x="1280" 
d="M700 1229q-140 0 -229 73q-88 73 -96 209h114q13 -75 71 -111t140 -36q180 0 213 147h113q-12 -137 -99 -209t-227 -73zM705 145q129 0 221 43v271h-232v159h428v-548q-186 -98 -435 -98t-415 162q-166 163 -166 418t167 415q167 159 425 159t416 -147l-137 -141
q-105 114 -279 114t-277 -114t-103 -287q0 -172 106 -289t281 -117z" />
    <glyph glyph-name="lcaron.sc" horiz-adv-x="860" 
d="M801 1098l-160 -389h-162l131 389h191zM369 1098v-932h471v-166h-668v1098h197z" />
    <glyph glyph-name="racute.sc" horiz-adv-x="1075" 
d="M829 1511l-278 -294h-158l205 294h231zM369 934v-311h170q227 0 227 163q0 147 -215 148h-182zM369 463v-463h-197v1098h391q401 0 402 -305q0 -117 -65 -195t-175 -106l285 -492h-228l-256 463h-157z" />
    <glyph glyph-name="dcroat.sc" horiz-adv-x="1267" 
d="M369 934v-291h268v-143h-268v-334h163q186 0 304 101q116 101 116 290t-115 283q-116 94 -305 94h-163zM172 0v500h-141v143h141v455h395q231 0 407 -124q187 -134 187 -442q0 -162 -90 -290q-169 -242 -508 -242h-391z" />
    <glyph glyph-name="four.onum" horiz-adv-x="1200" 
d="M721 182v484h188v-484h230v-170h-230v-360h-188v360h-639v176l553 938h207l-566 -944h445z" />
    <glyph glyph-name="tilde.cap" 
d="M111 1819q67 0 159 -43t131 -43q70 0 99 94h110q-41 -238 -209 -238q-63 0 -153 43t-137 43q-72 0 -97 -94h-112q41 238 209 238z" />
    <glyph glyph-name="utilde.sc" horiz-adv-x="1218" 
d="M758 1241q-63 0 -158 43q-86 43 -133 43q-71 0 -96 -94h-113q41 238 209 237q68 0 160 -42t131 -44q70 0 98 95h111q-41 -238 -209 -238zM608 -29q-208 0 -328 123t-120 316v688h196v-674q0 -121 62 -199t190 -78q129 0 192 78q62 78 62 199v674h197v-688
q0 -193 -121 -316t-330 -123z" />
    <glyph glyph-name="acircumflex.sc" horiz-adv-x="1126" 
d="M672 1511l229 -294h-186l-154 202l-155 -202h-185l230 294h221zM561 872l-184 -460h366zM317 254l-104 -254h-207l467 1098h182l465 -1098h-213l-102 254h-488z" />
    <glyph glyph-name="fi.sc" horiz-adv-x="1515" 
d="M1343 1098v-1098h-196v1098h196zM369 467v-467h-197v1098h711v-164h-514v-307h483v-160h-483z" />
    <glyph glyph-name="ldot.sc" horiz-adv-x="860" 
d="M768 646q0 -52 -38 -88t-91 -36t-90 36t-37 87t37 88t90 37t91 -36t38 -88zM369 1098v-932h471v-166h-668v1098h197z" />
    <glyph glyph-name="zero.sc" horiz-adv-x="1032" 
d="M516 946q-98 0 -147 -115t-49 -285t48 -285q48 -114 148 -114t149 114q48 114 48 285q1 172 -49 286t-148 114zM119 547q0 259 100 417t296 158t297 -158t101 -417q0 -258 -101 -417t-297 -159t-296 159t-100 417z" />
    <glyph glyph-name="b.sc" horiz-adv-x="1103" 
d="M365 487v-321h184q229 0 229 164q0 158 -213 157h-200zM365 934v-289h182q82 0 133 39t51 113q0 137 -199 137h-167zM172 0v1098h408q150 0 248 -69t100 -225q0 -156 -158 -224v-5q96 -25 152 -90q55 -66 55 -168q0 -161 -120 -239t-302 -78h-383z" />
    <glyph glyph-name="caron.cap" 
d="M594 1860l-229 -295h-220l-227 295h184l156 -203l156 203h180z" />
    <glyph glyph-name="two.sc" horiz-adv-x="1032" 
d="M879 166v-166h-729v170l401 399q119 119 119 236q0 63 -42 108t-114 45q-145 0 -178 -172l-186 33q23 139 121 223q99 84 248 84t249 -82t100 -246t-182 -341l-301 -291h494z" />
    <glyph glyph-name="dotaccent.sc" 
d="M385 1383q0 -52 -38 -88q-38 -35 -91 -35t-90 36t-37 86q0 51 37 88t90 37t91 -36t38 -88z" />
    <glyph glyph-name="yen.sc" horiz-adv-x="1032" 
d="M176 344h244v123h-244v131h203l-330 500h221l254 -426l246 426h211l-322 -500h197v-131h-246v-123h246v-131h-246v-213h-190v213h-244v131z" />
    <glyph glyph-name="scedilla.sc" horiz-adv-x="952" 
d="M496 958q-76 0 -127 -40t-51 -108t44 -100q45 -32 165 -72t206 -99q107 -75 107 -224t-86 -234t-226 -104l-77 -118q19 4 77 4t114 -38t56 -129t-78 -134t-188 -43q-111 0 -205 47l41 86q76 -35 140 -35q144 0 143 86q0 78 -111 78q-37 0 -84 -14l-41 40l109 166
q-231 10 -354 168l135 125q92 -123 252 -123q82 0 136 38t54 111t-56 115q-56 43 -187 83t-206 106t-75 214t114 232t271 84q205 0 328 -137l-125 -131q-80 100 -215 100z" />
    <glyph glyph-name="cent.sc" horiz-adv-x="1032" 
d="M666 -160h-105v137q-203 19 -323 161t-119 349q0 207 119 344t323 162v133h105v-131q219 -10 340 -153l-136 -123q-81 102 -204 108v-684q129 2 208 109l132 -123q-125 -143 -340 -154v-135zM309 486q-1 -130 67 -223t185 -118v680q-119 -23 -185 -115q-66 -94 -67 -224z
" />
    <glyph glyph-name="uogonek.sc" horiz-adv-x="1218" 
d="M633 -475q-92 0 -152 49q-59 49 -59 129q0 129 160 268q-197 8 -310 130t-112 309v688h196v-674q0 -121 62 -199t190 -78q129 0 192 78q62 78 62 199v674h197v-688q0 -168 -94 -286t-260 -144q-141 -141 -142 -236q0 -39 29 -68q29 -28 79 -28t99 45l45 -92
q-90 -76 -182 -76z" />
    <glyph glyph-name="emacron.sc" horiz-adv-x="1038" 
d="M836 1421v-137h-607v137h607zM367 487v-321h559v-166h-754v1098h729v-164h-534v-289h505v-158h-505z" />
    <glyph glyph-name="rcaron.sc" horiz-adv-x="1075" 
d="M872 1511l-229 -294h-219l-227 294h184l156 -202l155 202h180zM369 934v-311h170q227 0 227 163q0 147 -215 148h-182zM369 463v-463h-197v1098h391q401 0 402 -305q0 -117 -65 -195t-175 -106l285 -492h-228l-256 463h-157z" />
    <glyph glyph-name="eth.sc" horiz-adv-x="1267" 
d="M369 934v-291h268v-143h-268v-334h163q186 0 304 101q116 101 116 290t-115 283q-116 94 -305 94h-163zM172 0v500h-141v143h141v455h395q231 0 407 -124q187 -134 187 -442q0 -162 -90 -290q-169 -242 -508 -242h-391z" />
    <glyph glyph-name="ampersand.sc" horiz-adv-x="1267" 
d="M340 293q0 -72 48 -117t124 -45q135 1 209 105l-244 253q-137 -57 -137 -196zM684 858q0 49 -32 79t-83 30t-85 -34t-33 -85q0 -74 86 -166q147 67 147 176zM143 291q0 207 228 319q-109 125 -109 245t89 196q89 75 216 75t213 -72t86 -194q0 -176 -225 -289l186 -190
l115 201h215l-205 -322l256 -260h-260l-106 113q-119 -141 -328 -142q-156 0 -264 83t-107 237z" />
    <glyph glyph-name="eight.onum" horiz-adv-x="1218" 
d="M893 404q0 120 -80 198t-204 78q-123 0 -203 -76t-80 -199q0 -122 78 -199t204 -77q125 0 205 77t80 198zM608 1323q-100 0 -168 -67t-67 -169q-1 -101 67 -169t168 -68t170 69t70 169t-70 167q-70 68 -170 68zM1096 395q0 -197 -140 -315t-347 -117q-206 0 -346 117
t-140 315q0 139 78 237t196 132v4q-100 35 -161 121t-62 203q0 176 126 286t310 109q184 0 310 -108t124 -283q0 -117 -61 -206t-162 -122v-4q119 -31 197 -131t78 -238z" />
    <glyph glyph-name="ncaron.sc" horiz-adv-x="1265" 
d="M967 1511l-230 -294h-219l-227 294h184l156 -202l155 202h181zM903 266v832h191v-1098h-234l-493 827h-5v-827h-190v1098h238l489 -832h4z" />
    <glyph glyph-name="x.sc" horiz-adv-x="1040" 
d="M281 1098l241 -379l238 379h227l-350 -518l399 -580h-243l-277 430l-276 -430h-236l393 580l-352 518h236z" />
    <glyph glyph-name="breve.sc" 
d="M255 1229q-140 0 -228 73t-97 209h115q13 -75 71 -111t140 -36q180 0 213 147h113q-12 -137 -100 -209t-227 -73z" />
    <glyph glyph-name="fl.sc" horiz-adv-x="1835" 
d="M1343 1098v-932h472v-166h-668v1098h196zM369 467v-467h-197v1098h711v-164h-514v-307h483v-160h-483z" />
    <glyph glyph-name="dcaron.sc" horiz-adv-x="1267" 
d="M952 1511l-229 -294h-219l-228 294h185l155 -202l156 202h180zM369 934v-768h163q186 0 304 101q116 101 116 290t-115 283q-116 94 -305 94h-163zM172 0v1098h395q231 0 407 -124q187 -134 187 -442q0 -162 -90 -290q-169 -242 -508 -242h-391z" />
    <glyph glyph-name="agrave.sc" horiz-adv-x="1126" 
d="M496 1217l-279 294h232l204 -294h-157zM561 872l-184 -460h366zM317 254l-104 -254h-207l467 1098h182l465 -1098h-213l-102 254h-488z" />
    <glyph glyph-name="rcommaaccent.sc" horiz-adv-x="1075" 
d="M680 -92l-160 -389h-162l131 389h191zM369 934v-311h170q227 0 227 163q0 147 -215 148h-182zM369 463v-463h-197v1098h391q401 0 402 -305q0 -117 -65 -195t-175 -106l285 -492h-228l-256 463h-157z" />
    <glyph glyph-name="u.sc" horiz-adv-x="1218" 
d="M608 -29q-208 0 -328 123t-120 316v688h196v-674q0 -121 62 -199t190 -78q129 0 192 78q62 78 62 199v674h197v-688q0 -193 -121 -316t-330 -123z" />
    <glyph glyph-name="uacute.sc" horiz-adv-x="1218" 
d="M963 1511l-279 -294h-158l205 294h232zM608 -29q-208 0 -328 123t-120 316v688h196v-674q0 -121 62 -199t190 -78q129 0 192 78q62 78 62 199v674h197v-688q0 -193 -121 -316t-330 -123z" />
    <glyph glyph-name="zero.onum" horiz-adv-x="1427" 
d="M712 147q172 0 276 115q106 115 106 290t-106 288q-106 112 -276 112q-171 0 -275 -112q-103 -113 -103 -288t103 -290t275 -115zM1305 555q0 -254 -169 -418t-423 -164t-422 164t-168 417t167 413q167 159 423 159t424 -158t168 -413z" />
    <glyph glyph-name="eacute.sc" horiz-adv-x="1038" 
d="M877 1511l-279 -294h-158l205 294h232zM367 487v-321h559v-166h-754v1098h729v-164h-534v-289h505v-158h-505z" />
    <glyph glyph-name="dotlessj" horiz-adv-x="532" 
d="M170 -119v1090h192v-1096q0 -367 -315 -367q-49 1 -110 13l20 164q41 -10 78 -11q79 0 107 54t28 153z" />
    <glyph glyph-name="eight.sc" horiz-adv-x="1032" 
d="M360 808q0 -69 46 -111t109 -42q64 0 110 42q45 42 45 111t-45 113t-111 44t-110 -44t-44 -113zM328 312q0 -81 52 -130t135 -49t135 50t52 130t-53 133q-53 54 -134 54t-134 -54t-53 -134zM858 821q0 -81 -43 -145t-121 -94v-4q96 -33 150 -104t55 -167
q1 -156 -109 -246t-275 -90t-275 90t-109 246q0 96 52 167t147 104v4q-72 29 -115 92t-43 143q0 139 99 224t245 85t244 -83t98 -222z" />
    <glyph glyph-name="dieresis.sc" 
d="M328 1383q0 50 37 87t90 37t90 -36t37 -88t-37 -88q-37 -35 -90 -35t-90 36t-37 87zM-70 1383q0 50 37 87t90 37t90 -36t37 -88t-37 -88q-37 -35 -90 -35t-90 36t-37 87z" />
    <glyph glyph-name="edieresis.sc" horiz-adv-x="1038" 
d="M608 1383q0 50 37 87t90 37t90 -36t37 -88t-37 -88q-37 -35 -90 -35t-90 36t-37 87zM211 1383q0 50 37 87t90 37t90 -36t37 -88t-37 -88q-37 -35 -90 -35t-90 36t-37 87zM367 487v-321h559v-166h-754v1098h729v-164h-534v-289h505v-158h-505z" />
    <glyph glyph-name="caron.alt" 
d="M467 1450l-160 -389h-162l131 389h191z" />
    <glyph glyph-name="amacron.sc" horiz-adv-x="1126" 
d="M864 1421v-137h-606v137h606zM561 872l-184 -460h366zM317 254l-104 -254h-207l467 1098h182l465 -1098h-213l-102 254h-488z" />
    <glyph glyph-name="ccircumflex.sc" horiz-adv-x="1159" 
d="M807 1511l229 -294h-186l-154 202l-155 -202h-185l230 294h221zM690 -29q-262 0 -423 160t-161 418t168 418t424 159q123 0 231 -47t173 -131l-154 -121q-88 125 -256 125t-271 -114t-103 -284q0 -171 106 -290q106 -118 274 -118t269 141l155 -109q-170 -207 -432 -207z
" />
    <glyph glyph-name="g.sc" horiz-adv-x="1280" 
d="M705 145q129 0 221 43v271h-232v159h428v-548q-186 -98 -435 -98t-415 162q-166 163 -166 418t167 415q167 159 425 159t416 -147l-137 -141q-105 114 -279 114t-277 -114t-103 -287q0 -172 106 -289t281 -117z" />
    <glyph glyph-name="ecaron.sc" horiz-adv-x="1038" 
d="M877 1511l-230 -294h-219l-227 294h184l156 -202l155 202h181zM367 487v-321h559v-166h-754v1098h729v-164h-534v-289h505v-158h-505z" />
    <glyph glyph-name="eogonek.sc" horiz-adv-x="1038" 
d="M764 -475q-92 0 -152 49q-59 49 -59 129q0 143 195 297h-576v1098h729v-164h-534v-289h505v-158h-505v-321h559v-166h-68q-164 -160 -164 -256q0 -39 29 -68q29 -28 79 -28t99 45l45 -92q-90 -76 -182 -76z" />
    <glyph glyph-name="lcommaaccent.sc" horiz-adv-x="860" 
d="M635 -92l-160 -389h-162l131 389h191zM369 1098v-932h471v-166h-668v1098h197z" />
    <glyph glyph-name="ae.sc" horiz-adv-x="1720" 
d="M854 432v514h-20l-322 -514h342zM1051 487v-321h557v-166h-754v274h-440l-170 -274h-236l707 1098h868v-164h-532v-289h503v-158h-503z" />
    <glyph glyph-name="ccaron.sc" horiz-adv-x="1159" 
d="M1034 1511l-229 -294h-219l-228 294h185l155 -202l156 202h180zM690 -29q-262 0 -423 160t-161 418t168 418t424 159q123 0 231 -47t173 -131l-154 -121q-88 125 -256 125t-271 -114t-103 -284q0 -171 106 -290q106 -118 274 -118t269 141l155 -109q-170 -207 -432 -207z
" />
    <glyph glyph-name="v.sc" horiz-adv-x="1032" 
d="M209 1098l307 -840h6l307 840h207l-434 -1098h-176l-430 1098h213z" />
    <glyph glyph-name="thorn.sc" horiz-adv-x="1034" 
d="M369 739v-311h163q227 0 228 164q0 76 -50 112t-171 35h-170zM172 0v1098h197v-195h188q403 0 404 -311q0 -150 -110 -237t-306 -87h-176v-268h-197z" />
    <glyph glyph-name="ring.cap" 
d="M379 1747q0 51 -36 85t-87 34t-86 -35t-35 -85t35 -84t86 -34t87 34t36 85zM463 1747q-1 -86 -61 -144q-60 -59 -146 -59t-145 58t-60 143q-1 86 59 144q60 59 146 59t146 -58t61 -143z" />
    <glyph glyph-name="e.sc" horiz-adv-x="1038" 
d="M367 487v-321h559v-166h-754v1098h729v-164h-534v-289h505v-158h-505z" />
    <glyph glyph-name="abreve.sc" horiz-adv-x="1126" 
d="M560 1229q-140 0 -228 73t-96 209h114q12 -75 70 -111t141 -36q180 0 213 147h113q-11 -137 -99 -209t-228 -73zM561 872l-184 -460h366zM317 254l-104 -254h-207l467 1098h182l465 -1098h-213l-102 254h-488z" />
    <glyph glyph-name="adieresis.sc" horiz-adv-x="1126" 
d="M635 1383q0 50 37 87t90 37t90 -36t37 -88t-37 -88q-37 -35 -90 -35t-90 36t-37 87zM238 1383q0 50 36 87t90 37t91 -36t37 -88t-37 -88q-37 -35 -90 -35t-91 36q-36 37 -36 87zM561 872l-184 -460h366zM317 254l-104 -254h-207l467 1098h182l465 -1098h-213l-102 254
h-488z" />
    <glyph glyph-name="five.sc" horiz-adv-x="1032" 
d="M840 1098v-164h-434l-9 -238q55 16 113 17q170 -1 274 -97t104 -263t-111 -275q-112 -108 -290 -107q-131 -1 -228 61t-142 181l170 76q53 -152 202 -152q89 -1 147 57t58 157t-62 153t-171 53q-109 0 -254 -78l16 619h617z" />
    <glyph glyph-name="ecircumflex.sc" horiz-adv-x="1038" 
d="M647 1511l230 -294h-187l-153 202l-156 -202h-184l229 294h221zM367 487v-321h559v-166h-754v1098h729v-164h-534v-289h505v-158h-505z" />
    <glyph glyph-name="circumflex.cap" 
d="M367 1860l229 -295h-186l-154 202l-156 -202h-184l229 295h222z" />
    <glyph glyph-name="commaaccent" 
d="M414 -92l-160 -389h-162l131 389h191z" />
    <glyph glyph-name="cacute.sc" horiz-adv-x="1159" 
d="M973 1511l-279 -294h-157l204 294h232zM690 -29q-262 0 -423 160t-161 418t168 418t424 159q123 0 231 -47t173 -131l-154 -121q-88 125 -256 125t-271 -114t-103 -284q0 -171 106 -290q106 -118 274 -118t269 141l155 -109q-170 -207 -432 -207z" />
    <glyph glyph-name="breve.cap" 
d="M255 1577q-140 0 -228 73t-97 210h115q13 -74 71 -111t140 -37q180 1 213 148h113q-12 -137 -100 -210t-227 -73z" />
    <glyph glyph-name="edotaccent.sc" horiz-adv-x="1038" 
d="M672 1383q0 -52 -38 -88q-38 -35 -91 -35t-90 36t-37 86q0 51 37 88t90 37t91 -36t38 -88zM367 487v-321h559v-166h-754v1098h729v-164h-534v-289h505v-158h-505z" />
    <glyph glyph-name="six.sc" horiz-adv-x="1032" 
d="M909 342q-1 -162 -111 -266t-279 -104t-279 102t-111 259q0 157 123 349l260 416h229l-288 -426l2 -2q51 23 106 22q152 0 250 -94t98 -256zM324 337q0 -89 56 -145t140 -57q84 1 139 59t56 146q0 88 -53 144q-52 56 -140 56t-143 -56q-55 -58 -55 -147z" />
    <glyph glyph-name="egrave.sc" horiz-adv-x="1038" 
d="M496 1217l-279 294h232l204 -294h-157zM367 487v-321h559v-166h-754v1098h729v-164h-534v-289h505v-158h-505z" />
    <glyph glyph-name="c.sc" horiz-adv-x="1159" 
d="M690 -29q-262 0 -423 160t-161 418t168 418t424 159q123 0 231 -47t173 -131l-154 -121q-88 125 -256 125t-271 -114t-103 -284q0 -171 106 -290q106 -118 274 -118t269 141l155 -109q-170 -207 -432 -207z" />
    <glyph glyph-name="circumflex.sc" 
d="M367 1511l229 -294h-186l-154 202l-156 -202h-184l229 294h222z" />
    <glyph glyph-name="t.sc" horiz-adv-x="905" 
d="M549 934v-934h-197v934h-336v164h873v-164h-340z" />
    <glyph glyph-name="dieresis.cap" 
d="M328 1732q0 50 37 87t90 37t90 -36t37 -88t-37 -88t-90 -36t-90 37t-37 87zM-70 1732q0 50 37 87t90 37t90 -36t37 -88t-37 -88t-90 -36t-90 37t-37 87z" />
    <glyph glyph-name="sacute.sc" horiz-adv-x="952" 
d="M799 1511l-279 -294h-158l205 294h232zM496 958q-76 0 -127 -40t-51 -108t44 -100q45 -32 165 -72t206 -99q107 -75 107 -234q0 -160 -110 -247t-277 -87q-115 0 -217 45t-166 125l135 125q92 -123 252 -123q82 0 136 38t54 111t-56 115q-56 43 -187 83t-206 106t-75 214
t114 232t271 84q205 0 328 -137l-125 -131q-80 100 -215 100z" />
    <glyph glyph-name="caron.sc" 
d="M594 1511l-229 -294h-220l-227 294h184l156 -202l156 202h180z" />
    <glyph glyph-name="d.sc" horiz-adv-x="1267" 
d="M369 934v-768h163q186 0 304 101q116 101 116 290t-115 283q-116 94 -305 94h-163zM172 0v1098h395q231 0 407 -124q187 -134 187 -442q0 -162 -90 -290q-169 -242 -508 -242h-391z" />
    <glyph glyph-name="cdotaccent.sc" horiz-adv-x="1159" 
d="M823 1383q0 -52 -38 -88q-38 -35 -91 -35t-90 36t-37 86q0 51 37 88t90 37t91 -36t38 -88zM690 -29q-262 0 -423 160t-161 418t168 418t424 159q123 0 231 -47t173 -131l-154 -121q-88 125 -256 125t-271 -114t-103 -284q0 -171 106 -290q106 -118 274 -118t269 141
l155 -109q-170 -207 -432 -207z" />
    <glyph glyph-name="f.sc" horiz-adv-x="974" 
d="M369 467v-467h-197v1098h711v-164h-514v-307h483v-160h-483z" />
    <glyph glyph-name="commaaccent.alt" 
d="M143 1155l160 389h162l-131 -389h-191z" />
    <glyph glyph-name="tcaron.sc" horiz-adv-x="905" 
d="M788 1511l-229 -294h-219l-227 294h184l156 -202l155 202h180zM549 934v-934h-197v934h-336v164h873v-164h-340z" />
    <glyph glyph-name="gdotaccent.sc" horiz-adv-x="1280" 
d="M825 1383q0 -52 -38 -88q-38 -35 -91 -35t-90 36t-37 86q0 51 37 88t90 37t91 -36t38 -88zM705 145q129 0 221 43v271h-232v159h428v-548q-186 -98 -435 -98t-415 162q-166 163 -166 418t167 415q167 159 425 159t416 -147l-137 -141q-105 114 -279 114t-277 -114
t-103 -287q0 -172 106 -289t281 -117z" />
    <glyph glyph-name="gcommaaccent.sc" horiz-adv-x="1280" 
d="M809 -92l-160 -389h-162l131 389h191zM705 145q129 0 221 43v271h-232v159h428v-548q-186 -98 -435 -98t-415 162q-166 163 -166 418t167 415q167 159 425 159t416 -147l-137 -141q-105 114 -279 114t-277 -114t-103 -287q0 -172 106 -289t281 -117z" />
    <glyph glyph-name="gcircumflex.sc" horiz-adv-x="1280" 
d="M813 1511l229 -294h-186l-154 202l-155 -202h-185l230 294h221zM705 145q129 0 221 43v271h-232v159h428v-548q-186 -98 -435 -98t-415 162q-166 163 -166 418t167 415q167 159 425 159t416 -147l-137 -141q-105 114 -279 114t-277 -114t-103 -287q0 -172 106 -289
t281 -117z" />
    </font>
</defs>
</svg>
